<?plantuml 1.2026.1?><svg xmlns="http://www.w3.org/2000/svg" xmlns:xlink="http://www.w3.org/1999/xlink" contentStyleType="text/css" data-diagram-type="DESCRIPTION" height="707px" preserveAspectRatio="none" style="width:677px;height:707px;background:#FFFFFF;" version="1.1" viewBox="0 0 677 707" width="677px" zoomAndPan="magnify"><title>&lt;b&gt;Messaufbau - Physischer Versuchsaufbau&lt;/b&gt;
Kontinuierliche SOH-Messung w&#228;hrend Ladevorgang</title><defs/><g><g class="title" data-source-line="8"><text fill="#000000" font-family="Helvetica" font-size="22" font-weight="bold" lengthAdjust="spacing" textLength="441.375" x="113.5276" y="31.9404">Messaufbau - Physischer Versuchsaufbau</text><text fill="#000000" font-family="Helvetica" font-size="22" font-weight="bold" lengthAdjust="spacing" textLength="557.4014" x="55.5144" y="53.9404">Kontinuierliche SOH-Messung w&#228;hrend Ladevorgang</text></g><!--entity car--><g class="entity" data-qualified-name="car" data-source-line="11" id="ent0002"><rect fill="#DBEAFE" height="42" rx="4" ry="4" style="stroke:#000000;stroke-width:1;" width="109.8423" x="122.82" y="93"/><text fill="#000000" font-family="Helvetica" font-size="11" font-weight="bold" lengthAdjust="spacing" textLength="89.8423" x="132.82" y="111.4702">VW ID.4 (77 kWh)</text><text fill="#000000" font-family="Helvetica" font-size="11" lengthAdjust="spacing" textLength="88.6606" x="132.82" y="122.4702">Versuchsfahrzeug</text></g><!--entity charger--><g class="entity" data-qualified-name="charger" data-source-line="13" id="ent0003"><rect fill="#D1FAE5" height="53" rx="4" ry="4" style="stroke:#000000;stroke-width:1;" width="127.6045" x="348.94" y="87.5"/><text fill="#000000" font-family="Helvetica" font-size="11" font-weight="bold" lengthAdjust="spacing" textLength="88.6177" x="358.94" y="105.9702">CCS-Ladestation</text><text fill="#000000" font-family="Helvetica" font-size="11" lengthAdjust="spacing" textLength="107.6045" x="358.94" y="116.9702">DC-Laden bis 135 kW</text><text fill="#000000" font-family="Helvetica" font-size="11" lengthAdjust="spacing" textLength="74.583" x="358.94" y="127.9702">oder AC 11 kW</text></g><!--entity obd--><g class="entity" data-qualified-name="obd" data-source-line="15" id="ent0004"><rect fill="#BFDBFE" height="53" rx="4" ry="4" style="stroke:#000000;stroke-width:1;" width="121.4922" x="12" y="247.5"/><text fill="#000000" font-family="Helvetica" font-size="11" font-weight="bold" lengthAdjust="spacing" textLength="56.2246" x="22" y="265.9702">OBD2-Port</text><text fill="#000000" font-family="Helvetica" font-size="11" lengthAdjust="spacing" textLength="62.3638" x="22" y="276.9702">(SAE J1962)</text><text fill="#000000" font-family="Helvetica" font-size="11" lengthAdjust="spacing" textLength="101.4922" x="22" y="287.9702">Im Fahrzeug verbaut</text></g><!--entity adapter--><g class="entity" data-qualified-name="adapter" data-source-line="17" id="ent0005"><rect fill="#FFF3CD" height="53" rx="4" ry="4" style="stroke:#000000;stroke-width:1;" width="117.8291" x="13.83" y="385"/><text fill="#000000" font-family="Helvetica" font-size="11" font-weight="bold" lengthAdjust="spacing" textLength="76.0923" x="23.83" y="403.4702">OBD Link MX+</text><text fill="#000000" font-family="Helvetica" font-size="11" lengthAdjust="spacing" textLength="88.6714" x="23.83" y="414.4702">Bluetooth-Adapter</text><text fill="#000000" font-family="Helvetica" font-size="11" lengthAdjust="spacing" textLength="97.8291" x="23.83" y="425.4702">ELM327-kompatibel</text></g><!--entity tablet--><g class="entity" data-qualified-name="tablet" data-source-line="19" id="ent0006"><rect fill="#A7F3D0" height="53" rx="4" ry="4" style="stroke:#000000;stroke-width:1;" width="161.8721" x="213.81" y="385"/><text fill="#000000" font-family="Helvetica" font-size="11" font-weight="bold" lengthAdjust="spacing" textLength="105.7354" x="223.81" y="403.4702">Tablet / Smartphone</text><text fill="#000000" font-family="Helvetica" font-size="11" lengthAdjust="spacing" textLength="104.5537" x="223.81" y="414.4702">Car Scanner Pro App</text><text fill="#000000" font-family="Helvetica" font-size="11" lengthAdjust="spacing" textLength="141.8721" x="223.81" y="425.4702">Kontinuierliche Aufzeichnung</text></g><!--entity csv--><g class="entity" data-qualified-name="csv" data-source-line="21" id="ent0007"><rect fill="#FEF3C7" height="53" rx="4" ry="4" style="stroke:#000000;stroke-width:1;" width="127.6099" x="230.94" y="511"/><text fill="#000000" font-family="Helvetica" font-size="11" font-weight="bold" lengthAdjust="spacing" textLength="53.1792" x="240.94" y="529.4702">CSV-Datei</text><text fill="#000000" font-family="Helvetica" font-size="11" lengthAdjust="spacing" textLength="107.6099" x="240.94" y="540.4702">Export der Messdaten</text><text fill="#000000" font-family="Helvetica" font-size="11" lengthAdjust="spacing" textLength="62.9707" x="240.94" y="551.4702">(Langformat)</text></g><!--entity pc--><g class="entity" data-qualified-name="pc" data-source-line="23" id="ent0008"><rect fill="#F3E8FD" height="53" rx="4" ry="4" style="stroke:#000000;stroke-width:1;" width="133.7061" x="455.89" y="511"/><text fill="#000000" font-family="Helvetica" font-size="11" font-weight="bold" lengthAdjust="spacing" textLength="61.1069" x="465.89" y="529.4702">PC / Laptop</text><text fill="#000000" font-family="Helvetica" font-size="11" lengthAdjust="spacing" textLength="113.7061" x="465.89" y="540.4702">SOH-Analyse-Software</text><text fill="#000000" font-family="Helvetica" font-size="11" lengthAdjust="spacing" textLength="61.123" x="465.89" y="551.4702">(Pro-Modus)</text></g><!--entity tablet2--><g class="entity" data-qualified-name="tablet2" data-source-line="25" id="ent0009"><rect fill="#EDE9FE" height="53" rx="4" ry="4" style="stroke:#000000;stroke-width:1;" width="133.7061" x="227.89" y="648"/><text fill="#000000" font-family="Helvetica" font-size="11" font-weight="bold" lengthAdjust="spacing" textLength="95.96" x="237.89" y="666.4702">oder: Tablet direkt</text><text fill="#000000" font-family="Helvetica" font-size="11" lengthAdjust="spacing" textLength="113.7061" x="237.89" y="677.4702">SOH-Analyse-Software</text><text fill="#000000" font-family="Helvetica" font-size="11" lengthAdjust="spacing" textLength="68.46" x="237.89" y="688.4702">(Easy-Modus)</text></g><g class="entity" data-qualified-name="GMN17" data-source-line="37" id="ent0018"><path d="M168.81,240 L168.81,308 A4,4 0 0 0 172.81,312 L392.6884,312 A4,4 0 0 0 396.6884,308 L396.6884,246 L386.6884,236 L261.85,236 L191.26,135.33 L253.85,236 L172.81,236 A4,4 0 0 0 168.81,240" fill="#FFFFFF" style="stroke:#000000;stroke-width:1;"/><path d="M386.6884,236 L386.6884,244 A2,2 0 0 0 388.6884,246 L396.6884,246 L386.6884,236" fill="#FFFFFF" style="stroke:#000000;stroke-width:1;"/><text fill="#000000" font-family="Helvetica" font-size="11" font-weight="bold" lengthAdjust="spacing" textLength="95.3477" x="174.81" y="249.4702">Voraussetzungen:</text><text fill="#000000" font-family="Helvetica" font-size="11" lengthAdjust="spacing" textLength="167.6265" x="174.81" y="260.4702">&#8226; Batterie nahezu leer (SOC &#8776; 0%)</text><text fill="#000000" font-family="Helvetica" font-size="11" lengthAdjust="spacing" textLength="103.5117" x="174.81" y="271.4702">&#8226; Display zeigt 0% an</text><text fill="#000000" font-family="Helvetica" font-size="11" lengthAdjust="spacing" textLength="181.8008" x="174.81" y="282.4702">&#8226; Fahrzeug angeschlossen und bereit</text><text fill="#000000" font-family="Helvetica" font-size="11" lengthAdjust="spacing" textLength="136.5386" x="174.81" y="293.4702">&#8226; OBD2-Scanner verbunden</text><text fill="#000000" font-family="Helvetica" font-size="11" lengthAdjust="spacing" textLength="206.8784" x="174.81" y="304.4702">&#8226; Aufzeichnung gestartet VOR Ladebeginn</text></g><g class="entity" data-qualified-name="GMN20" data-source-line="46" id="ent0021"><path d="M511.06,80 L511.06,110 L476.71,114 L511.06,118 L511.06,148 A4,4 0 0 0 515.06,152 L666.4301,152 A4,4 0 0 0 670.4301,148 L670.4301,86 L660.4301,76 L515.06,76 A4,4 0 0 0 511.06,80" fill="#FFFFFF" style="stroke:#000000;stroke-width:1;"/><path d="M660.4301,76 L660.4301,84 A2,2 0 0 0 662.4301,86 L670.4301,86 L660.4301,76" fill="#FFFFFF" style="stroke:#000000;stroke-width:1;"/><text fill="#000000" font-family="Helvetica" font-size="11" font-weight="bold" lengthAdjust="spacing" textLength="75.77" x="517.06" y="89.4702">Ladeoptionen:</text><text fill="#000000" font-family="Helvetica" font-size="11" lengthAdjust="spacing" textLength="123.0571" x="517.06" y="100.4702">&#8226; DC-Schnellladen (CCS)</text><text fill="#000000" font-family="Helvetica" font-size="11" lengthAdjust="spacing" textLength="94.3325" x="517.06" y="111.4702">&#8226; AC-Laden (Typ 2)</text><text fill="#000000" font-family="Helvetica" font-size="11" lengthAdjust="spacing" textLength="138.3701" x="517.06" y="122.4702">&#8226; Wallbox oder &#246;ffentl. S&#228;ule</text><text fill="#000000" font-family="Helvetica" font-size="11" lengthAdjust="spacing" textLength="101.0625" x="517.06" y="133.4702">&#8226; Dauer: 30 min - 4 h</text><text fill="#000000" font-family="Helvetica" font-size="11" lengthAdjust="spacing" textLength="118.0298" x="523.1723" y="144.4702">(abh&#228;ngig von Leistung)</text></g><!--link car to charger--><g class="link" data-entity-1="ent0002" data-entity-2="ent0003" data-link-type="dependency" data-source-line="28" id="lnk10"><path d="M239.14,114 C273.74,114 306.43,114 342.57,114" fill="none" id="car-charger" style="stroke:#000000;stroke-width:1;"/><polygon fill="#000000" points="233.14,114,242.14,118,238.14,114,242.14,110,233.14,114" style="stroke:#000000;stroke-width:1;"/><polygon fill="#000000" points="348.57,114,339.57,110,343.57,114,339.57,118,348.57,114" style="stroke:#000000;stroke-width:1;"/><text fill="#000000" font-family="Helvetica" font-size="11" lengthAdjust="spacing" textLength="64.2222" x="262.1027" y="96.4702">Ladevorgang</text><text fill="#000000" font-family="Helvetica" font-size="11" lengthAdjust="spacing" textLength="68.4707" x="256.9223" y="107.4702">(0% &#8594; 100%)</text></g><!--link car to obd--><g class="link" data-entity-1="ent0002" data-entity-2="ent0004" data-link-type="dependency" data-source-line="29" id="lnk11"><path d="M164.23,135.33 C145.24,163.92 113.9504,210.9925 93.1804,242.2525" fill="none" id="car-to-obd" style="stroke:#000000;stroke-width:1;"/><polygon fill="#000000" points="89.86,247.25,98.1723,241.9674,92.627,243.0854,91.509,237.5402,89.86,247.25" style="stroke:#000000;stroke-width:1;"/><text fill="#000000" font-family="Helvetica" font-size="11" lengthAdjust="spacing" textLength="56.853" x="132.53" y="191.4702">BMS-Daten</text><text fill="#000000" font-family="Helvetica" font-size="11" lengthAdjust="spacing" textLength="53.1685" x="134.3723" y="202.4702">(CAN-Bus)</text></g><!--link obd to adapter--><g class="link" data-entity-1="ent0004" data-entity-2="ent0005" data-link-type="dependency" data-source-line="30" id="lnk12"><path d="M72.75,300.81 C72.75,324.92 72.75,354.71 72.75,378.79" fill="none" id="obd-to-adapter" style="stroke:#000000;stroke-width:1;"/><polygon fill="#000000" points="72.75,384.79,76.75,375.79,72.75,379.79,68.75,375.79,72.75,384.79" style="stroke:#000000;stroke-width:1;"/><text fill="#000000" font-family="Helvetica" font-size="11" lengthAdjust="spacing" textLength="57.4546" x="73.75" y="351.4702">OBD2-PIDs</text></g><!--link adapter to tablet--><g class="link" data-entity-1="ent0005" data-entity-2="ent0006" data-link-type="dependency" data-source-line="31" id="lnk13"><path d="M131.95,411.5 C156.99,411.5 180.58,411.5 207.61,411.5" fill="none" id="adapter-to-tablet" style="stroke:#000000;stroke-width:1;"/><polygon fill="#000000" points="213.61,411.5,204.61,407.5,208.61,411.5,204.61,415.5,213.61,411.5" style="stroke:#000000;stroke-width:1;"/><text fill="#000000" font-family="Helvetica" font-size="11" lengthAdjust="spacing" textLength="46.4814" x="149.74" y="393.9702">Bluetooth</text><text fill="#000000" font-family="Helvetica" font-size="11" lengthAdjust="spacing" textLength="20.7915" x="162.585" y="404.9702">BLE</text></g><!--link tablet to csv--><g class="link" data-entity-1="ent0006" data-entity-2="ent0007" data-link-type="dependency" data-source-line="32" id="lnk14"><path d="M294.75,438.49 C294.75,459.66 294.75,483.39 294.75,504.54" fill="none" id="tablet-to-csv" style="stroke:#000000;stroke-width:1;"/><polygon fill="#000000" points="294.75,510.54,298.75,501.54,294.75,505.54,290.75,501.54,294.75,510.54" style="stroke:#000000;stroke-width:1;"/><text fill="#000000" font-family="Helvetica" font-size="11" lengthAdjust="spacing" textLength="61.1338" x="295.75" y="477.4702">Datei-Export</text></g><!--link csv to pc--><g class="link" data-entity-1="ent0007" data-entity-2="ent0008" data-link-type="dependency" data-source-line="33" id="lnk15"><path d="M358.86,537.5 C389.03,537.5 418.99,537.5 449.53,537.5" fill="none" id="csv-to-pc" style="stroke:#000000;stroke-width:1;"/><polygon fill="#000000" points="455.53,537.5,446.53,533.5,450.53,537.5,446.53,541.5,455.53,537.5" style="stroke:#000000;stroke-width:1;"/><text fill="#000000" font-family="Helvetica" font-size="11" lengthAdjust="spacing" textLength="61.1499" x="377.0154" y="519.9702">&#220;bertragung</text><text fill="#000000" font-family="Helvetica" font-size="11" lengthAdjust="spacing" textLength="61.7407" x="376.72" y="530.9702">(USB/Cloud)</text></g><!--link csv to tablet2--><g class="link" data-entity-1="ent0007" data-entity-2="ent0009" data-link-type="dependency" data-source-line="34" id="lnk16"><path d="M294.75,564.21 C294.75,588.23 294.75,617.89 294.75,641.89" fill="none" id="csv-to-tablet2" style="stroke:#000000;stroke-width:1;"/><polygon fill="#000000" points="294.75,647.89,298.75,638.89,294.75,642.89,290.75,638.89,294.75,647.89" style="stroke:#000000;stroke-width:1;"/><text fill="#000000" font-family="Helvetica" font-size="11" lengthAdjust="spacing" textLength="67.2461" x="296.9719" y="603.4702">Direkt-Upload</text><text fill="#000000" font-family="Helvetica" font-size="11" lengthAdjust="spacing" textLength="69.6899" x="295.75" y="614.4702">(gleich. Ger&#228;t)</text></g><?plantuml-src VLJDRjj64BxpAQOoWaWgw5XMKYU6OO0YgSQj71jXOlUWov8SaGkjTedTfHtxr5FHNdlkgV0pz0Nq9dwIplB7LPsYEb4xiz_CzystyuqjSODG2SQbPzPSLaop3QGiMnTQrJ8FbL0QzkRDRoSZnnMhXPqhQJymGdYFuWOjpzX_voJy7c4osGcQakNgbii2LamOt8byREjgYHhUUfxbLY2SfAVdQ0ohLochmOVByivmavMKSuNQr5dPnKvUfQTB-IFLvBBcg0Md94WktllkVatrRhSFfKQPmuBbUADqmMJXUIzRo8m9oDIcKXAbDPx6p5AO6XYCnrVNS1RjluRXqH6ihylHUBoKVV4LA_KzriK0c86CaMJHB0xciVTlY31CV5VMM6QvaWuX2fiJ2IatC9c-8UYbL3aH2qAIZFwsc2NJ1JhSoJo8tpp3lPX5X_wbqjOX3fCWXXycxxux72tbsGRcNMzmWveKiWsUIdFOcysZsLSz4XOik5p3-K_VEhYPgD4gPKi_o5bbKIzbl3YV7XxvQnAAUAGe6aZMXXktJCFe6UmdbWgqy0gI3TEsAabXXnwILad6f9lsfLOGLDNNumlgrJtIbwJvDQLi2xON7CsdqS5paPChFs8MkSEFlrGa2pWzdG5oEfSaqOAoLqflc1sryfeRwZkcle-UeLs6rFE2cAdAuJad1PA9EuD-ebRsbcaaF6hTFrTvRLguAYEqQVns_bm5DzXZwBJ8kSQr_H_Kc9cxNTYMzY7inL7ypWtk9OIAfCkScOpdV7VYQrwKrZzzSimn363Nwqi9C3nu0O-__0wJWuCN8u11SzMd1odfehC6NPgT9usCJgum-E3FN1UU2_Q9_S0fkJNWMMG6Nd_wr4WtB0VPMubSjOW7NXVfyTmGAAkPdTyEZZgZmoSeqfKIjd-agArcHUtO33ydirUXK7K-wh8xk5uj1zaexN-kX68vNQ5fa9tsuNlKsmUoWET9PH5IPQtQW5gv9-m1q9jNcjN6eBsdMYYFnsCwVlpvJvWnIoGvWcGbtjSWa2WFauiG7d_x5KZLBY_YXhRh7P1_2qldm6GNUNgMD1EaLIOKrP50om-87dBRvJNIza_4FM7Am1vazsL0uVQAjgJerSN7PkGf5bnApsqxHx2ZsQZPi6mjqZ1rwQfoHjgbITif8NGKGZHBQaWRhASMz9jh-EckWiF--9e9aQelqEomxL-h5MrIiG_9zg4MsCEoshs3wG5ikAHr_XfAYf0lMLfk7sJ1QLaf2GlanXApqJyC_WO0?></g></svg>