<?plantuml 1.2026.1?><svg xmlns="http://www.w3.org/2000/svg" xmlns:xlink="http://www.w3.org/1999/xlink" contentStyleType="text/css" data-diagram-type="ACTIVITY" height="1792px" preserveAspectRatio="none" style="width:518px;height:1792px;background:#FFFFFF;" version="1.1" viewBox="0 0 518 1792" width="518px" zoomAndPan="magnify"><title>&lt;b&gt;Messprotokoll - Schritt-f&#252;r-Schritt-Anleitung&lt;/b&gt;
Standardisierter Ablauf einer SOH-Messung</title><defs/><g><g class="title" data-source-line="8"><text fill="#000000" font-family="Helvetica" font-size="22" font-weight="bold" lengthAdjust="spacing" textLength="460.7646" x="27.2485" y="31.9404">Messprotokoll - Schritt-f&#252;r-Schritt-Anleitung</text><text fill="#000000" font-family="Helvetica" font-size="22" font-weight="bold" lengthAdjust="spacing" textLength="458.4336" x="28.4141" y="53.9404">Standardisierter Ablauf einer SOH-Messung</text></g><ellipse cx="202.0833" cy="80" fill="#FFFFFF" rx="10" ry="10" style="stroke:#000000;stroke-width:1;"/><rect fill="#FFFFFF" height="198" rx="4" ry="4" style="stroke:#000000;stroke-width:1;" width="427.7148" x="84.5469" y="100"/><path d="M157.5337,100 L157.5337,104 L147.5337,114 L84.5469,114" fill="none" style="stroke:#000000;stroke-width:1;"/><text fill="#000000" font-family="Helvetica" font-size="11" lengthAdjust="spacing" textLength="62.9868" x="87.5469" y="109.4702">Vorbereitung</text><path d="M329.6196,136 L329.6196,148 L309.6196,152 L329.6196,156 L329.6196,168 A0,0 0 0 0 329.6196,168 L502.2617,168 A0,0 0 0 0 502.2617,168 L502.2617,146 L492.2617,136 L329.6196,136 A0,0 0 0 0 329.6196,136" fill="#FFFFFF" style="stroke:#000000;stroke-width:1;"/><path d="M492.2617,136 L492.2617,146 L502.2617,146 L492.2617,136" fill="#FFFFFF" style="stroke:#000000;stroke-width:1;"/><text fill="#000000" font-family="Helvetica" font-size="11" lengthAdjust="spacing" textLength="151.6421" x="335.6196" y="149.4702">Entladung durch normale Fahrt</text><text fill="#000000" font-family="Helvetica" font-size="11" lengthAdjust="spacing" textLength="151.0137" x="335.6196" y="160.4702">bis Batterie-Warnung erscheint</text><rect fill="#FFFFFF" height="42" rx="4" ry="4" style="stroke:#000000;stroke-width:1;" width="215.0728" x="94.5469" y="131"/><text fill="#000000" font-family="Helvetica" font-size="11" lengthAdjust="spacing" textLength="195.0728" x="104.5469" y="149.4702">Fahrzeug auf nahezu 0% SOC entladen</text><text fill="#000000" font-family="Helvetica" font-size="11" lengthAdjust="spacing" textLength="88.6392" x="104.5469" y="160.4702">(Display zeigt 0%)</text><rect fill="#FFFFFF" height="42" rx="4" ry="4" style="stroke:#000000;stroke-width:1;" width="175.3105" x="114.428" y="193"/><text fill="#000000" font-family="Helvetica" font-size="11" lengthAdjust="spacing" textLength="155.3105" x="124.428" y="211.4702">Umgebungstemperatur notieren</text><text fill="#000000" font-family="Helvetica" font-size="11" lengthAdjust="spacing" textLength="73.4604" x="124.428" y="222.4702">(T_mess in &#176;C)</text><rect fill="#FFFFFF" height="31" rx="4" ry="4" style="stroke:#000000;stroke-width:1;" width="134.9575" x="134.6045" y="255"/><text fill="#000000" font-family="Helvetica" font-size="11" lengthAdjust="spacing" textLength="114.9575" x="144.6045" y="273.4702">Kilometerstand ablesen</text><rect fill="#FFFFFF" height="395" rx="4" ry="4" style="stroke:#000000;stroke-width:1;" width="238.7036" x="82.7314" y="308"/><path d="M182.6167,308 L182.6167,312 L172.6167,322 L82.7314,322" fill="none" style="stroke:#000000;stroke-width:1;"/><text fill="#000000" font-family="Helvetica" font-size="11" lengthAdjust="spacing" textLength="89.8853" x="85.7314" y="317.4702">OBD2-Verbindung</text><rect fill="#FFFFFF" height="42" rx="4" ry="4" style="stroke:#000000;stroke-width:1;" width="202.4829" x="100.8418" y="339"/><text fill="#000000" font-family="Helvetica" font-size="11" lengthAdjust="spacing" textLength="182.4829" x="110.8418" y="357.4702">OBD Link MX+ in OBD2-Port stecken</text><text fill="#000000" font-family="Helvetica" font-size="11" lengthAdjust="spacing" textLength="157.1528" x="110.8418" y="368.4702">(unterhalb Lenkrad, SAE J1962)</text><rect fill="#FFFFFF" height="42" rx="4" ry="4" style="stroke:#000000;stroke-width:1;" width="158.1929" x="122.9868" y="401"/><text fill="#000000" font-family="Helvetica" font-size="11" lengthAdjust="spacing" textLength="138.1929" x="132.9868" y="419.4702">Car Scanner Pro App &#246;ffnen</text><text fill="#000000" font-family="Helvetica" font-size="11" lengthAdjust="spacing" textLength="125.9521" x="132.9868" y="430.4702">(Tablet oder Smartphone)</text><rect fill="#FFFFFF" height="42" rx="4" ry="4" style="stroke:#000000;stroke-width:1;" width="177.1636" x="113.5015" y="463"/><text fill="#000000" font-family="Helvetica" font-size="11" lengthAdjust="spacing" textLength="157.1636" x="123.5015" y="481.4702">Bluetooth-Verbindung herstellen</text><text fill="#000000" font-family="Helvetica" font-size="11" lengthAdjust="spacing" textLength="121.9668" x="123.5015" y="492.4702">(OBD Link MX+ koppeln)</text><rect fill="#FFFFFF" height="53" rx="4" ry="4" style="stroke:#000000;stroke-width:1;" width="218.7036" x="92.7314" y="525"/><text fill="#000000" font-family="Helvetica" font-size="11" lengthAdjust="spacing" textLength="198.7036" x="102.7314" y="543.4702">Alle BMS-PIDs zur Aufzeichnung w&#228;hlen</text><text fill="#000000" font-family="Helvetica" font-size="11" lengthAdjust="spacing" textLength="185.2437" x="102.7314" y="554.4702">(SOC, Spannung, Strom, Temperatur,</text><text fill="#000000" font-family="Helvetica" font-size="11" lengthAdjust="spacing" textLength="123.5244" x="102.7314" y="565.4702">Kapazit&#228;t, Energiegehalt)</text><rect fill="#FFFFFF" height="42" rx="4" ry="4" style="stroke:#000000;stroke-width:1;" width="144.7437" x="129.7114" y="598"/><text fill="#000000" font-family="Helvetica" font-size="11" lengthAdjust="spacing" textLength="103.3452" x="139.7114" y="616.4702">Aufzeichnung starten</text><text fill="#000000" font-family="Helvetica" font-size="11" lengthAdjust="spacing" textLength="124.7437" x="139.7114" y="627.4702">(BEVOR Ladung beginnt)</text><rect fill="#90EE90" height="31" rx="4" ry="4" style="stroke:#000000;stroke-width:1;" width="124.5645" x="139.801" y="660"/><text fill="#000000" font-family="Helvetica" font-size="11" lengthAdjust="spacing" textLength="104.5645" x="149.801" y="678.4702">&#8594; Aufzeichnung l&#228;uft</text><rect fill="#FFFFFF" height="335.9702" rx="4" ry="4" style="stroke:#000000;stroke-width:1;" width="292.2974" x="54.4346" y="713"/><path d="M128.6567,713 L128.6567,717 L118.6567,727 L54.4346,727" fill="none" style="stroke:#000000;stroke-width:1;"/><text fill="#000000" font-family="Helvetica" font-size="11" lengthAdjust="spacing" textLength="64.2222" x="57.4346" y="722.4702">Ladevorgang</text><rect fill="#FFFFFF" height="42" rx="4" ry="4" style="stroke:#000000;stroke-width:1;" width="204.0674" x="100.0496" y="744"/><text fill="#000000" font-family="Helvetica" font-size="11" lengthAdjust="spacing" textLength="184.0674" x="110.0496" y="762.4702">Fahrzeug an Ladestation anschlie&#223;en</text><text fill="#000000" font-family="Helvetica" font-size="11" lengthAdjust="spacing" textLength="73.96" x="110.0496" y="773.4702">(CCS oder AC)</text><rect fill="#FFFFFF" height="31" rx="4" ry="4" style="stroke:#000000;stroke-width:1;" width="180.209" x="111.9788" y="806"/><text fill="#000000" font-family="Helvetica" font-size="11" lengthAdjust="spacing" textLength="160.209" x="121.9788" y="824.4702">Ladevorgang startet automatisch</text><rect fill="#FFFFFF" height="42" rx="4" ry="4" style="stroke:#000000;stroke-width:1;" width="227.2974" x="88.4346" y="910.9702"/><text fill="#000000" font-family="Helvetica" font-size="11" lengthAdjust="spacing" textLength="97.2383" x="98.4346" y="929.4404">Ladevorgang l&#228;uft...</text><text fill="#000000" font-family="Helvetica" font-size="11" lengthAdjust="spacing" textLength="207.2974" x="98.4346" y="940.4404">Daten werden kontinuierlich aufgezeichnet</text><polygon fill="#FFFFFF" points="166.771,857,237.3955,857,249.3955,869,237.3955,881,166.771,881,154.771,869,166.771,857" style="stroke:#000000;stroke-width:1;"/><text fill="#000000" font-family="Helvetica" font-size="11" lengthAdjust="spacing" textLength="20.7969" x="206.0833" y="889.4702">nein</text><text fill="#000000" font-family="Helvetica" font-size="11" lengthAdjust="spacing" textLength="70.6245" x="166.771" y="871.9702">SOC = 100%?</text><text fill="#000000" font-family="Helvetica" font-size="11" lengthAdjust="spacing" textLength="8.5615" x="146.2095" y="866.4702">ja</text><rect fill="#FFFFFF" height="42" rx="4" ry="4" style="stroke:#000000;stroke-width:1;" width="160.9321" x="121.6172" y="994.9702"/><text fill="#000000" font-family="Helvetica" font-size="11" lengthAdjust="spacing" textLength="107.0405" x="131.6172" y="1013.4404">Ladevorgang beendet</text><text fill="#000000" font-family="Helvetica" font-size="11" lengthAdjust="spacing" textLength="140.9321" x="131.6172" y="1024.4404">(SOC = 100% oder Abbruch)</text><rect fill="#FFFFFF" height="324" rx="4" ry="4" style="stroke:#000000;stroke-width:1;" width="374.4873" x="6" y="1058.9702"/><path d="M75.9253,1058.9702 L75.9253,1062.9702 L65.9253,1072.9702 L6,1072.9702" fill="none" style="stroke:#000000;stroke-width:1;"/><text fill="#000000" font-family="Helvetica" font-size="11" lengthAdjust="spacing" textLength="59.9253" x="9" y="1068.4404">Datenexport</text><rect fill="#FFFFFF" height="31" rx="4" ry="4" style="stroke:#000000;stroke-width:1;" width="128.8613" x="137.6526" y="1089.9702"/><text fill="#000000" font-family="Helvetica" font-size="11" lengthAdjust="spacing" textLength="108.8613" x="147.6526" y="1108.4404">Aufzeichnung stoppen</text><rect fill="#FFFFFF" height="42" rx="4" ry="4" style="stroke:#000000;stroke-width:1;" width="171.0029" x="116.5818" y="1140.9702"/><text fill="#000000" font-family="Helvetica" font-size="11" lengthAdjust="spacing" textLength="110.0483" x="126.5818" y="1159.4404">CSV-Datei exportieren</text><text fill="#000000" font-family="Helvetica" font-size="11" lengthAdjust="spacing" textLength="151.0029" x="126.5818" y="1170.4404">(Dateifreigabe / E-Mail / Cloud)</text><polygon fill="#FFFFFF" points="168.4575,1202.9702,235.709,1202.9702,247.709,1214.9702,235.709,1226.9702,168.4575,1226.9702,156.4575,1214.9702,168.4575,1202.9702" style="stroke:#000000;stroke-width:1;"/><text fill="#000000" font-family="Helvetica" font-size="11" lengthAdjust="spacing" textLength="67.2515" x="168.4575" y="1217.9404">Easy-Modus?</text><text fill="#000000" font-family="Helvetica" font-size="11" lengthAdjust="spacing" textLength="8.5615" x="147.896" y="1212.4404">ja</text><text fill="#000000" font-family="Helvetica" font-size="11" lengthAdjust="spacing" textLength="20.7969" x="247.709" y="1212.4404">nein</text><rect fill="#FFFFFF" height="42" rx="4" ry="4" style="stroke:#000000;stroke-width:1;" width="186.9229" x="18" y="1236.9702"/><text fill="#000000" font-family="Helvetica" font-size="11" lengthAdjust="spacing" textLength="166.9229" x="28" y="1255.4404">CSV direkt in Web-App hochladen</text><text fill="#000000" font-family="Helvetica" font-size="11" lengthAdjust="spacing" textLength="78.2515" x="28" y="1266.4404">(gleiches Ger&#228;t)</text><rect fill="#FFFFFF" height="42" rx="4" ry="4" style="stroke:#000000;stroke-width:1;" width="135.5645" x="224.9229" y="1236.9702"/><text fill="#000000" font-family="Helvetica" font-size="11" lengthAdjust="spacing" textLength="115.5645" x="234.9229" y="1255.4404">CSV auf PC &#252;bertragen</text><text fill="#000000" font-family="Helvetica" font-size="11" lengthAdjust="spacing" textLength="108.1953" x="234.9229" y="1266.4404">(USB, Cloud, AirDrop)</text><rect fill="#FFFFFF" height="42" rx="4" ry="4" style="stroke:#000000;stroke-width:1;" width="105.5938" x="239.9082" y="1298.9702"/><text fill="#000000" font-family="Helvetica" font-size="11" lengthAdjust="spacing" textLength="77.0376" x="249.9082" y="1317.4404">Pro-App starten</text><text fill="#000000" font-family="Helvetica" font-size="11" lengthAdjust="spacing" textLength="85.5938" x="249.9082" y="1328.4404">(python3 start.py)</text><polygon fill="#FFFFFF" points="202.0833,1346.9702,214.0833,1358.9702,202.0833,1370.9702,190.0833,1358.9702,202.0833,1346.9702" style="stroke:#000000;stroke-width:1;"/><rect fill="#FFFFFF" height="352" rx="4" ry="4" style="stroke:#000000;stroke-width:1;" width="278.4551" x="62.8557" y="1392.9702"/><path d="M111.9895,1392.9702 L111.9895,1396.9702 L101.9895,1406.9702 L62.8557,1406.9702" fill="none" style="stroke:#000000;stroke-width:1;"/><text fill="#000000" font-family="Helvetica" font-size="11" lengthAdjust="spacing" textLength="39.1338" x="65.8557" y="1402.4404">Analyse</text><rect fill="#FFFFFF" height="31" rx="4" ry="4" style="stroke:#000000;stroke-width:1;" width="178.9736" x="112.5964" y="1423.9702"/><text fill="#000000" font-family="Helvetica" font-size="11" lengthAdjust="spacing" textLength="158.9736" x="122.5964" y="1442.4404">CSV-Datei in Analyse-App laden</text><rect fill="#FFFFFF" height="42" rx="4" ry="4" style="stroke:#000000;stroke-width:1;" width="171.0244" x="116.571" y="1522.9702"/><text fill="#000000" font-family="Helvetica" font-size="11" lengthAdjust="spacing" textLength="151.0244" x="126.571" y="1541.4404">AVL PDF zus&#228;tzlich hochladen</text><text fill="#000000" font-family="Helvetica" font-size="11" lengthAdjust="spacing" textLength="72.7407" x="126.571" y="1552.4404">(Referenzwert)</text><polygon fill="#FFFFFF" points="134.5176,1474.9702,269.6489,1474.9702,281.6489,1486.9702,269.6489,1498.9702,134.5176,1498.9702,122.5176,1486.9702,134.5176,1474.9702" style="stroke:#000000;stroke-width:1;"/><text fill="#000000" font-family="Helvetica" font-size="11" lengthAdjust="spacing" textLength="8.5615" x="206.0833" y="1507.4404">ja</text><text fill="#000000" font-family="Helvetica" font-size="11" lengthAdjust="spacing" textLength="135.1313" x="134.5176" y="1489.9404">AVL HV-Check vorhanden?</text><text fill="#000000" font-family="Helvetica" font-size="11" lengthAdjust="spacing" textLength="20.7969" x="281.6489" y="1484.4404">nein</text><polygon fill="#FFFFFF" points="202.0833,1584.9702,214.0833,1596.9702,202.0833,1608.9702,190.0833,1596.9702,202.0833,1584.9702" style="stroke:#000000;stroke-width:1;"/><rect fill="#FFFFFF" height="42" rx="4" ry="4" style="stroke:#000000;stroke-width:1;" width="258.4551" x="72.8557" y="1628.9702"/><text fill="#000000" font-family="Helvetica" font-size="11" lengthAdjust="spacing" textLength="100.896" x="82.8557" y="1647.4404">Analyse durchf&#252;hren</text><text fill="#000000" font-family="Helvetica" font-size="11" lengthAdjust="spacing" textLength="238.4551" x="82.8557" y="1658.4404">(automatische Berechnung aller SOH-Methoden)</text><rect fill="#FFFFFF" height="42" rx="4" ry="4" style="stroke:#000000;stroke-width:1;" width="169.8213" x="117.1726" y="1690.9702"/><text fill="#000000" font-family="Helvetica" font-size="11" lengthAdjust="spacing" textLength="149.8213" x="127.1726" y="1709.4404">Ergebnis pr&#252;fen und speichern</text><text fill="#000000" font-family="Helvetica" font-size="11" lengthAdjust="spacing" textLength="122.8745" x="127.1726" y="1720.4404">(PDF-Bericht generieren)</text><ellipse cx="202.0833" cy="1775.9702" fill="none" rx="11" ry="11" style="stroke:#000000;stroke-width:1;"/><ellipse cx="202.0833" cy="1775.9702" fill="#FFFFFF" rx="6" ry="6" style="stroke:#000000;stroke-width:1;"/><line style="stroke:#000000;stroke-width:1;" x1="202.0833" x2="202.0833" y1="173" y2="193"/><polygon fill="#000000" points="198.0833,183,202.0833,193,206.0833,183,202.0833,187" style="stroke:#000000;stroke-width:1;"/><line style="stroke:#000000;stroke-width:1;" x1="202.0833" x2="202.0833" y1="235" y2="255"/><polygon fill="#000000" points="198.0833,245,202.0833,255,206.0833,245,202.0833,249" style="stroke:#000000;stroke-width:1;"/><line style="stroke:#000000;stroke-width:1;" x1="202.0833" x2="202.0833" y1="90" y2="131"/><polygon fill="#000000" points="198.0833,121,202.0833,131,206.0833,121,202.0833,125" style="stroke:#000000;stroke-width:1;"/><line style="stroke:#000000;stroke-width:1;" x1="202.0833" x2="202.0833" y1="381" y2="401"/><polygon fill="#000000" points="198.0833,391,202.0833,401,206.0833,391,202.0833,395" style="stroke:#000000;stroke-width:1;"/><line style="stroke:#000000;stroke-width:1;" x1="202.0833" x2="202.0833" y1="443" y2="463"/><polygon fill="#000000" points="198.0833,453,202.0833,463,206.0833,453,202.0833,457" style="stroke:#000000;stroke-width:1;"/><line style="stroke:#000000;stroke-width:1;" x1="202.0833" x2="202.0833" y1="505" y2="525"/><polygon fill="#000000" points="198.0833,515,202.0833,525,206.0833,515,202.0833,519" style="stroke:#000000;stroke-width:1;"/><line style="stroke:#000000;stroke-width:1;" x1="202.0833" x2="202.0833" y1="578" y2="598"/><polygon fill="#000000" points="198.0833,588,202.0833,598,206.0833,588,202.0833,592" style="stroke:#000000;stroke-width:1;"/><line style="stroke:#000000;stroke-width:1;" x1="202.0833" x2="202.0833" y1="640" y2="660"/><polygon fill="#000000" points="198.0833,650,202.0833,660,206.0833,650,202.0833,654" style="stroke:#000000;stroke-width:1;"/><line style="stroke:#000000;stroke-width:1;" x1="202.0833" x2="202.0833" y1="286" y2="339"/><polygon fill="#000000" points="198.0833,329,202.0833,339,206.0833,329,202.0833,333" style="stroke:#000000;stroke-width:1;"/><line style="stroke:#000000;stroke-width:1;" x1="202.0833" x2="202.0833" y1="786" y2="806"/><polygon fill="#000000" points="198.0833,796,202.0833,806,206.0833,796,202.0833,800" style="stroke:#000000;stroke-width:1;"/><line style="stroke:#000000;stroke-width:1;" x1="202.0833" x2="202.0833" y1="881" y2="910.9702"/><polygon fill="#000000" points="198.0833,900.9702,202.0833,910.9702,206.0833,900.9702,202.0833,904.9702" style="stroke:#000000;stroke-width:1;"/><line style="stroke:#000000;stroke-width:1;" x1="202.0833" x2="202.0833" y1="952.9702" y2="962.9702"/><line style="stroke:#000000;stroke-width:1;" x1="202.0833" x2="327.7319" y1="962.9702" y2="962.9702"/><polygon fill="#000000" points="323.7319,924.4702,327.7319,914.4702,331.7319,924.4702,327.7319,920.4702" style="stroke:#000000;stroke-width:1;"/><line style="stroke:#000000;stroke-width:1;" x1="327.7319" x2="327.7319" y1="869" y2="962.9702"/><line style="stroke:#000000;stroke-width:1;" x1="327.7319" x2="249.3955" y1="869" y2="869"/><polygon fill="#000000" points="259.3955,865,249.3955,869,259.3955,873,255.3955,869" style="stroke:#000000;stroke-width:1;"/><line style="stroke:#000000;stroke-width:1;" x1="154.771" x2="76.4346" y1="869" y2="869"/><polygon fill="#000000" points="72.4346,910.4702,76.4346,920.4702,80.4346,910.4702,76.4346,914.4702" style="stroke:#000000;stroke-width:1;"/><line style="stroke:#000000;stroke-width:1;" x1="76.4346" x2="76.4346" y1="869" y2="974.9702"/><line style="stroke:#000000;stroke-width:1;" x1="76.4346" x2="202.0833" y1="974.9702" y2="974.9702"/><line style="stroke:#000000;stroke-width:1;" x1="202.0833" x2="202.0833" y1="974.9702" y2="994.9702"/><polygon fill="#000000" points="198.0833,984.9702,202.0833,994.9702,206.0833,984.9702,202.0833,988.9702" style="stroke:#000000;stroke-width:1;"/><line style="stroke:#000000;stroke-width:1;" x1="202.0833" x2="202.0833" y1="837" y2="857"/><polygon fill="#000000" points="198.0833,847,202.0833,857,206.0833,847,202.0833,851" style="stroke:#000000;stroke-width:1;"/><line style="stroke:#000000;stroke-width:1;" x1="202.0833" x2="202.0833" y1="691" y2="744"/><polygon fill="#000000" points="198.0833,734,202.0833,744,206.0833,734,202.0833,738" style="stroke:#000000;stroke-width:1;"/><line style="stroke:#000000;stroke-width:1;" x1="202.0833" x2="202.0833" y1="1120.9702" y2="1140.9702"/><polygon fill="#000000" points="198.0833,1130.9702,202.0833,1140.9702,206.0833,1130.9702,202.0833,1134.9702" style="stroke:#000000;stroke-width:1;"/><line style="stroke:#000000;stroke-width:1;" x1="292.7051" x2="292.7051" y1="1278.9702" y2="1298.9702"/><polygon fill="#000000" points="288.7051,1288.9702,292.7051,1298.9702,296.7051,1288.9702,292.7051,1292.9702" style="stroke:#000000;stroke-width:1;"/><line style="stroke:#000000;stroke-width:1;" x1="156.4575" x2="111.4614" y1="1214.9702" y2="1214.9702"/><line style="stroke:#000000;stroke-width:1;" x1="111.4614" x2="111.4614" y1="1214.9702" y2="1236.9702"/><polygon fill="#000000" points="107.4614,1226.9702,111.4614,1236.9702,115.4614,1226.9702,111.4614,1230.9702" style="stroke:#000000;stroke-width:1;"/><line style="stroke:#000000;stroke-width:1;" x1="247.709" x2="292.7051" y1="1214.9702" y2="1214.9702"/><line style="stroke:#000000;stroke-width:1;" x1="292.7051" x2="292.7051" y1="1214.9702" y2="1236.9702"/><polygon fill="#000000" points="288.7051,1226.9702,292.7051,1236.9702,296.7051,1226.9702,292.7051,1230.9702" style="stroke:#000000;stroke-width:1;"/><line style="stroke:#000000;stroke-width:1;" x1="111.4614" x2="111.4614" y1="1278.9702" y2="1358.9702"/><line style="stroke:#000000;stroke-width:1;" x1="111.4614" x2="190.0833" y1="1358.9702" y2="1358.9702"/><polygon fill="#000000" points="180.0833,1354.9702,190.0833,1358.9702,180.0833,1362.9702,184.0833,1358.9702" style="stroke:#000000;stroke-width:1;"/><line style="stroke:#000000;stroke-width:1;" x1="292.7051" x2="292.7051" y1="1340.9702" y2="1358.9702"/><line style="stroke:#000000;stroke-width:1;" x1="292.7051" x2="214.0833" y1="1358.9702" y2="1358.9702"/><polygon fill="#000000" points="224.0833,1354.9702,214.0833,1358.9702,224.0833,1362.9702,220.0833,1358.9702" style="stroke:#000000;stroke-width:1;"/><line style="stroke:#000000;stroke-width:1;" x1="202.0833" x2="202.0833" y1="1182.9702" y2="1202.9702"/><polygon fill="#000000" points="198.0833,1192.9702,202.0833,1202.9702,206.0833,1192.9702,202.0833,1196.9702" style="stroke:#000000;stroke-width:1;"/><line style="stroke:#000000;stroke-width:1;" x1="202.0833" x2="202.0833" y1="1036.9702" y2="1089.9702"/><polygon fill="#000000" points="198.0833,1079.9702,202.0833,1089.9702,206.0833,1079.9702,202.0833,1083.9702" style="stroke:#000000;stroke-width:1;"/><line style="stroke:#000000;stroke-width:1;" x1="202.0833" x2="202.0833" y1="1498.9702" y2="1522.9702"/><polygon fill="#000000" points="198.0833,1512.9702,202.0833,1522.9702,206.0833,1512.9702,202.0833,1516.9702" style="stroke:#000000;stroke-width:1;"/><line style="stroke:#000000;stroke-width:1;" x1="281.6489" x2="297.5955" y1="1486.9702" y2="1486.9702"/><polygon fill="#000000" points="293.5955,1533.9702,297.5955,1543.9702,301.5955,1533.9702,297.5955,1537.9702" style="stroke:#000000;stroke-width:1;"/><line style="stroke:#000000;stroke-width:1;" x1="297.5955" x2="297.5955" y1="1486.9702" y2="1596.9702"/><line style="stroke:#000000;stroke-width:1;" x1="297.5955" x2="214.0833" y1="1596.9702" y2="1596.9702"/><polygon fill="#000000" points="224.0833,1592.9702,214.0833,1596.9702,224.0833,1600.9702,220.0833,1596.9702" style="stroke:#000000;stroke-width:1;"/><line style="stroke:#000000;stroke-width:1;" x1="202.0833" x2="202.0833" y1="1564.9702" y2="1584.9702"/><polygon fill="#000000" points="198.0833,1574.9702,202.0833,1584.9702,206.0833,1574.9702,202.0833,1578.9702" style="stroke:#000000;stroke-width:1;"/><line style="stroke:#000000;stroke-width:1;" x1="202.0833" x2="202.0833" y1="1454.9702" y2="1474.9702"/><polygon fill="#000000" points="198.0833,1464.9702,202.0833,1474.9702,206.0833,1464.9702,202.0833,1468.9702" style="stroke:#000000;stroke-width:1;"/><line style="stroke:#000000;stroke-width:1;" x1="202.0833" x2="202.0833" y1="1608.9702" y2="1628.9702"/><polygon fill="#000000" points="198.0833,1618.9702,202.0833,1628.9702,206.0833,1618.9702,202.0833,1622.9702" style="stroke:#000000;stroke-width:1;"/><line style="stroke:#000000;stroke-width:1;" x1="202.0833" x2="202.0833" y1="1670.9702" y2="1690.9702"/><polygon fill="#000000" points="198.0833,1680.9702,202.0833,1690.9702,206.0833,1680.9702,202.0833,1684.9702" style="stroke:#000000;stroke-width:1;"/><line style="stroke:#000000;stroke-width:1;" x1="202.0833" x2="202.0833" y1="1370.9702" y2="1423.9702"/><polygon fill="#000000" points="198.0833,1413.9702,202.0833,1423.9702,206.0833,1413.9702,202.0833,1417.9702" style="stroke:#000000;stroke-width:1;"/><line style="stroke:#000000;stroke-width:1;" x1="202.0833" x2="202.0833" y1="1732.9702" y2="1764.9702"/><polygon fill="#000000" points="198.0833,1754.9702,202.0833,1764.9702,206.0833,1754.9702,202.0833,1758.9702" style="stroke:#000000;stroke-width:1;"/><?plantuml-src RLLBRXj74DtFAIes39W8HvOS84WOnm5_iX9BaI3QT1O2WXvEpKo7pUf1JuyLCV0s1yW5ij41iifAg_0cEKbUzr0s9OKhihlwrQjNhugV-OfNJBLHMf9cgQLMJgqeKujbwMmh-TWQw-ZnOVpiHEHSgDRuGol-HmM48pRlsUk5-l-OcLup7HpiN3QLoksbbf8APHhUkJdlyZfXHrybYTVUCBt8NfvmqzJEUhkqnb1AiqNbjFTfiRbnwUsFeHZMlfNonRFivONCl99SkLmtcfq7u30pgYs8TK2VdHwb0HNXIT9uvNoIW0CoQYlqQ6vTngw3UqI_9SdWK5LkpMr90KDKnUkMzfy0PqmitgYSvKAUJdG3GQzepRhqkEzzauZrJ4wNbH_GD4O2a_BMBIeIwrOA9GPmVo6PRcYaFCXgJjyf9o6INREeG1e41szN9MSuR3olQdRAjmuO7WN6x6z-Ng4aqaB__3L6wcJmMXkxOW0sGGrIcU661JSVxfHxEfeyJ-ViCYtvnufnICTQbdJoq-S1CmQTMUS9wHVBcB4LO5VAP7JCidGgxzDiEAKV3hx-ydaaC5RGUg4aQ7xcB0thcZP_5uLqX0CXJpOF7Lc1JrrPuVXmP5hsrlfgXnTLeH0s9Zw-mszfwvgDnAT31D3eP9QUVJzfQ0sDXcs1ZYogAEZbvhhg4D0yyAt13kVuvfrTzUdDHstx5_9QrMgj_URQzz4zTgNcab6mxpBjuaONHTpHT7vwJiTTfpCkjKY8VtmSNF3ACSlWtz__kClARAxRmZ_e343ulNMbUkX32HaOMMEa4jZ4QDxy6IcCnxDErc5dX1sSBL4F9tkxmciyHCXbfI5Rq8I-fOFz_IVVzGX-V2hmNYyXVEw0T7ptzlOkPA9GDbsommoW4UArjB2aGMbXMahkgcHKnv9ly_oYUlTePT0bPz_rPSjXMqEMkNPHzHwe4pFphpLCsQbpho71519jE9kd8LXJ5tqxCV6imA2NAcDwHjFqH6c3BsDZspmar0KzdQhcAZsnUTj04wnDwUX7JO1CkNQyz656td6M1ejN5itOxeJI14RSq2jsy1506LllZh019EoLip5jRh1ul5DbVFjsDkftNFeqr6xYR8ttyGscAQRwPBlwocDylkXEzkghNjHR5_TL6ueoLmrtYdrI1lItDn4tqjyAC9mVqz4y7LUOUqA_AYmJbeTYXBYpoI5cha6bw-Y0NIdEkGZ2h-6L-pficGws5Be5YVrUTOtQyIfc6o3R7YlC-kqsH_L84-q-TLYK0llMRdDJW2F-LwYfOoDSm0FB533uxGbIXuthkhSVml-1hPF_0000?></g></svg>