<?plantuml 1.2026.1?><svg xmlns="http://www.w3.org/2000/svg" xmlns:xlink="http://www.w3.org/1999/xlink" contentStyleType="text/css" data-diagram-type="ACTIVITY" height="1237px" preserveAspectRatio="none" style="width:542px;height:1237px;background:#FFFFFF;" version="1.1" viewBox="0 0 542 1237" width="542px" zoomAndPan="magnify"><title>&lt;b&gt;Datenverarbeitungs-Pipeline&lt;/b&gt;
Von der CSV-Rohdatei zu bereinigten Messdaten</title><defs/><g><g class="title" data-source-line="8"><text fill="#000000" font-family="Helvetica" font-size="22" font-weight="bold" lengthAdjust="spacing" textLength="298.2998" x="120.7192" y="31.9404">Datenverarbeitungs-Pipeline</text><text fill="#000000" font-family="Helvetica" font-size="22" font-weight="bold" lengthAdjust="spacing" textLength="509.7383" x="15" y="53.9404">Von der CSV-Rohdatei zu bereinigten Messdaten</text></g><ellipse cx="244.5809" cy="80" fill="#FFFFFF" rx="10" ry="10" style="stroke:#000000;stroke-width:1;"/><rect fill="#FFFFFF" height="31" rx="4" ry="4" style="stroke:#000000;stroke-width:1;" width="115.9922" x="186.5848" y="110"/><text fill="#000000" font-family="Helvetica" font-size="11" lengthAdjust="spacing" textLength="95.9922" x="196.5848" y="128.4702">CSV-Datei einlesen</text><rect fill="#FFFFFF" height="284" rx="4" ry="4" style="stroke:#000000;stroke-width:1;" width="458.8135" x="7.2343" y="151"/><path d="M104.058,151 L104.058,155 L94.058,165 L7.2343,165" fill="none" style="stroke:#000000;stroke-width:1;"/><text fill="#000000" font-family="Helvetica" font-size="11" lengthAdjust="spacing" textLength="86.8237" x="10.2343" y="160.4702">Formaterkennung</text><polygon fill="#FFFFFF" points="169.0929,182,320.069,182,332.069,194,320.069,206,169.0929,206,157.0929,194,169.0929,182" style="stroke:#000000;stroke-width:1;"/><text fill="#000000" font-family="Helvetica" font-size="11" lengthAdjust="spacing" textLength="99.6553" x="169.0929" y="191.4702">Semikolon-Trenner?</text><text fill="#000000" font-family="Helvetica" font-size="11" lengthAdjust="spacing" textLength="150.9761" x="169.0929" y="202.4702">SECONDS;PID;VALUE;UNITS</text><text fill="#000000" font-family="Helvetica" font-size="11" lengthAdjust="spacing" textLength="8.5615" x="148.5314" y="191.4702">ja</text><text fill="#000000" font-family="Helvetica" font-size="11" lengthAdjust="spacing" textLength="20.7969" x="332.069" y="191.4702">nein</text><rect fill="#FFFFFF" height="31" rx="4" ry="4" style="stroke:#000000;stroke-width:1;" width="141.3706" x="62.1923" y="216"/><text fill="#000000" font-family="Helvetica" font-size="11" lengthAdjust="spacing" textLength="121.3706" x="72.1923" y="234.4702">MX+ Langformat erkannt</text><rect fill="#FFFFFF" height="53" rx="4" ry="4" style="stroke:#000000;stroke-width:1;" width="141.666" x="62.0446" y="278"/><text fill="#000000" font-family="Helvetica" font-size="11" lengthAdjust="spacing" textLength="108.8291" x="72.0446" y="296.4702">Pivot-Tabelle erstellen</text><text fill="#000000" font-family="Helvetica" font-size="11" lengthAdjust="spacing" textLength="102.7007" x="72.0446" y="307.4702">(Lang &#8594; Breitformat)</text><text fill="#000000" font-family="Helvetica" font-size="11" lengthAdjust="spacing" textLength="121.666" x="72.0446" y="318.4702">Aggregation: letzter Wert</text><rect fill="#FFFFFF" height="42" rx="4" ry="4" style="stroke:#000000;stroke-width:1;" width="227.2866" x="19.2343" y="351"/><text fill="#000000" font-family="Helvetica" font-size="11" lengthAdjust="spacing" textLength="83.1392" x="29.2343" y="369.4702">Vorw&#228;rts-F&#252;llung</text><text fill="#000000" font-family="Helvetica" font-size="11" lengthAdjust="spacing" textLength="207.2866" x="29.2343" y="380.4702">(Sensoren senden unterschiedlich schnell)</text><rect fill="#FFFFFF" height="42" rx="4" ry="4" style="stroke:#000000;stroke-width:1;" width="178.3452" x="267.1117" y="216"/><text fill="#000000" font-family="Helvetica" font-size="11" lengthAdjust="spacing" textLength="158.3452" x="277.1117" y="234.4702">Car Scanner Breitformat erkannt</text><text fill="#000000" font-family="Helvetica" font-size="11" lengthAdjust="spacing" textLength="89.2515" x="277.1117" y="245.4702">(Komma-getrennt)</text><rect fill="#FFFFFF" height="42" rx="4" ry="4" style="stroke:#000000;stroke-width:1;" width="179.5269" x="266.5209" y="289"/><text fill="#000000" font-family="Helvetica" font-size="11" lengthAdjust="spacing" textLength="113.0991" x="276.5209" y="307.4702">Zeitformat konvertieren</text><text fill="#000000" font-family="Helvetica" font-size="11" lengthAdjust="spacing" textLength="159.5269" x="276.5209" y="318.4702">(HH:MM:SS.mmm &#8594; Sekunden)</text><polygon fill="#FFFFFF" points="244.5809,399,256.5809,411,244.5809,423,232.5809,411,244.5809,399" style="stroke:#000000;stroke-width:1;"/><rect fill="#FFFFFF" height="214" rx="4" ry="4" style="stroke:#000000;stroke-width:1;" width="353.6636" x="159.4645" y="445"/><path d="M263.6412,445 L263.6412,449 L253.6412,459 L159.4645,459" fill="none" style="stroke:#000000;stroke-width:1;"/><text fill="#000000" font-family="Helvetica" font-size="11" lengthAdjust="spacing" textLength="94.1768" x="162.4645" y="454.4702">Spalten-Erkennung</text><path d="M339.6974,476 L339.6974,493.5 L319.6974,497.5 L339.6974,501.5 L339.6974,519 A0,0 0 0 0 339.6974,519 L503.1281,519 A0,0 0 0 0 503.1281,519 L503.1281,486 L493.1281,476 L339.6974,476 A0,0 0 0 0 339.6974,476" fill="#FFFFFF" style="stroke:#000000;stroke-width:1;"/><path d="M493.1281,476 L493.1281,486 L503.1281,486 L493.1281,476" fill="#FFFFFF" style="stroke:#000000;stroke-width:1;"/><text fill="#000000" font-family="Helvetica" font-size="11" lengthAdjust="spacing" textLength="142.4307" x="345.6974" y="489.4702">PID_MAPPINGS W&#246;rterbuch</text><text fill="#000000" font-family="Helvetica" font-size="11" lengthAdjust="spacing" textLength="110.9614" x="345.6974" y="500.4702">mit DE + EN Varianten</text><text fill="#000000" font-family="Helvetica" font-size="11" lengthAdjust="spacing" textLength="125.3613" x="345.6974" y="511.4702">Einheiten werden entfernt</text><rect fill="#FFFFFF" height="42" rx="4" ry="4" style="stroke:#000000;stroke-width:1;" width="150.2329" x="169.4645" y="476.5"/><text fill="#000000" font-family="Helvetica" font-size="11" lengthAdjust="spacing" textLength="118.019" x="179.4645" y="494.9702">PID-Mapping anwenden</text><text fill="#000000" font-family="Helvetica" font-size="11" lengthAdjust="spacing" textLength="130.2329" x="179.4645" y="505.9702">(Automatische Zuordnung)</text><rect fill="#FFFFFF" height="108" rx="4" ry="4" style="stroke:#000000;stroke-width:1;" width="133.5664" x="177.7977" y="539"/><text fill="#000000" font-family="Helvetica" font-size="11" lengthAdjust="spacing" textLength="87.4468" x="187.7977" y="557.4702">Erkannte Spalten:</text><text fill="#000000" font-family="Helvetica" font-size="11" lengthAdjust="spacing" textLength="113.5664" x="187.7977" y="568.4702">&#8226; SOC (BMS + Display)</text><text fill="#000000" font-family="Helvetica" font-size="11" lengthAdjust="spacing" textLength="74.7871" x="187.7977" y="579.4702">&#8226; Spannung (V)</text><text fill="#000000" font-family="Helvetica" font-size="11" lengthAdjust="spacing" textLength="53.9634" x="187.7977" y="590.4702">&#8226; Strom (A)</text><text fill="#000000" font-family="Helvetica" font-size="11" lengthAdjust="spacing" textLength="86.4854" x="187.7977" y="601.4702">&#8226; Temperatur (&#176;C)</text><text fill="#000000" font-family="Helvetica" font-size="11" lengthAdjust="spacing" textLength="101.6748" x="187.7977" y="612.4702">&#8226; Energiegehalt (Wh)</text><text fill="#000000" font-family="Helvetica" font-size="11" lengthAdjust="spacing" textLength="76.6079" x="187.7977" y="623.4702">&#8226; Kapazit&#228;t (Ah)</text><text fill="#000000" font-family="Helvetica" font-size="11" lengthAdjust="spacing" textLength="105.3218" x="187.7977" y="634.4702">&#8226; Kilometerstand (km)</text><rect fill="#FFFFFF" height="149" rx="4" ry="4" style="stroke:#000000;stroke-width:1;" width="411.5664" x="31.2299" y="669"/><path d="M90.1552,669 L90.1552,673 L80.1552,683 L31.2299,683" fill="none" style="stroke:#000000;stroke-width:1;"/><text fill="#000000" font-family="Helvetica" font-size="11" lengthAdjust="spacing" textLength="48.9253" x="34.2299" y="678.4702">Aufl&#246;sung</text><polygon fill="#FFFFFF" points="203.4518,700,285.7101,700,297.7101,712,285.7101,724,203.4518,724,191.4518,712,203.4518,700" style="stroke:#000000;stroke-width:1;"/><text fill="#000000" font-family="Helvetica" font-size="11" lengthAdjust="spacing" textLength="82.2583" x="203.4518" y="714.9702">&gt; 50.000 Zeilen?</text><text fill="#000000" font-family="Helvetica" font-size="11" lengthAdjust="spacing" textLength="8.5615" x="182.8903" y="709.4702">ja</text><text fill="#000000" font-family="Helvetica" font-size="11" lengthAdjust="spacing" textLength="20.7969" x="297.7101" y="709.4702">nein</text><rect fill="#FFFFFF" height="42" rx="4" ry="4" style="stroke:#000000;stroke-width:1;" width="190.9189" x="51.2299" y="734"/><text fill="#000000" font-family="Helvetica" font-size="11" lengthAdjust="spacing" textLength="112.4976" x="61.2299" y="752.4702">Low-Resolution-Modus</text><text fill="#000000" font-family="Helvetica" font-size="11" lengthAdjust="spacing" textLength="170.9189" x="61.2299" y="763.4702">Downsampling auf ~10.000 Punkte</text><rect fill="#FFFFFF" height="42" rx="4" ry="4" style="stroke:#000000;stroke-width:1;" width="160.6475" x="262.1488" y="734"/><text fill="#000000" font-family="Helvetica" font-size="11" lengthAdjust="spacing" textLength="114.9414" x="272.1488" y="752.4702">High-Resolution-Modus</text><text fill="#000000" font-family="Helvetica" font-size="11" lengthAdjust="spacing" textLength="140.6475" x="272.1488" y="763.4702">Alle Datenpunkte verwenden</text><polygon fill="#FFFFFF" points="244.5809,782,256.5809,794,244.5809,806,232.5809,794,244.5809,782" style="stroke:#000000;stroke-width:1;"/><rect fill="#FFFFFF" height="147" rx="4" ry="4" style="stroke:#000000;stroke-width:1;" width="217.939" x="135.6115" y="828"/><path d="M266.7028,828 L266.7028,832 L256.7028,842 L135.6115,842" fill="none" style="stroke:#000000;stroke-width:1;"/><text fill="#000000" font-family="Helvetica" font-size="11" lengthAdjust="spacing" textLength="121.0913" x="138.6115" y="837.4702">Ladevorgang-Erkennung</text><rect fill="#FFFFFF" height="42" rx="4" ry="4" style="stroke:#000000;stroke-width:1;" width="197.939" x="145.6115" y="859"/><text fill="#000000" font-family="Helvetica" font-size="11" lengthAdjust="spacing" textLength="177.939" x="155.6115" y="877.4702">Ladezeitraum automatisch erkennen</text><text fill="#000000" font-family="Helvetica" font-size="11" lengthAdjust="spacing" textLength="102.7007" x="155.6115" y="888.4702">(siehe Diagramm 04)</text><rect fill="#FFFFFF" height="42" rx="4" ry="4" style="stroke:#000000;stroke-width:1;" width="180.8105" x="154.1757" y="921"/><text fill="#000000" font-family="Helvetica" font-size="11" lengthAdjust="spacing" textLength="141.8774" x="164.1757" y="939.4702">Daten auf Ladeperiode filtern</text><text fill="#000000" font-family="Helvetica" font-size="11" lengthAdjust="spacing" textLength="160.8105" x="164.1757" y="950.4702">(charging_start &#8594; charging_end)</text><rect fill="#FFFFFF" height="204.5" rx="4" ry="4" style="stroke:#000000;stroke-width:1;" width="389.811" x="145.693" y="985"/><path d="M216.236,985 L216.236,989 L206.236,999 L145.693,999" fill="none" style="stroke:#000000;stroke-width:1;"/><text fill="#000000" font-family="Helvetica" font-size="11" lengthAdjust="spacing" textLength="60.543" x="148.693" y="994.4702">Interpolation</text><rect fill="#FFFFFF" height="42" rx="4" ry="4" style="stroke:#000000;stroke-width:1;" width="166.7651" x="161.1984" y="1016"/><text fill="#000000" font-family="Helvetica" font-size="11" lengthAdjust="spacing" textLength="146.7651" x="171.1984" y="1034.4702">Interpolationsmethode w&#228;hlen</text><text fill="#000000" font-family="Helvetica" font-size="11" lengthAdjust="spacing" textLength="125.936" x="171.1984" y="1045.4702">(Linear / Kubisch / Akima)</text><path d="M353.1466,1077.5 L353.1466,1095 L333.1466,1099 L353.1466,1103 L353.1466,1120.5 A0,0 0 0 0 353.1466,1120.5 L489.2599,1120.5 A0,0 0 0 0 489.2599,1120.5 L489.2599,1087.5 L479.2599,1077.5 L353.1466,1077.5 A0,0 0 0 0 353.1466,1077.5" fill="#FFFFFF" style="stroke:#000000;stroke-width:1;"/><path d="M479.2599,1077.5 L479.2599,1087.5 L489.2599,1087.5 L479.2599,1077.5" fill="#FFFFFF" style="stroke:#000000;stroke-width:1;"/><text fill="#000000" font-family="Helvetica" font-size="11" lengthAdjust="spacing" textLength="91.7007" x="359.1466" y="1090.9702">Resampling-Basis:</text><text fill="#000000" font-family="Helvetica" font-size="11" lengthAdjust="spacing" textLength="115.1133" x="359.1466" y="1101.9702">&#8226; Nach SOC (0&#8594;100%)</text><text fill="#000000" font-family="Helvetica" font-size="11" lengthAdjust="spacing" textLength="79.6641" x="359.1466" y="1112.9702">&#8226; Oder nach Zeit</text><rect fill="#FFFFFF" height="42" rx="4" ry="4" style="stroke:#000000;stroke-width:1;" width="177.1313" x="156.0153" y="1078"/><text fill="#000000" font-family="Helvetica" font-size="11" lengthAdjust="spacing" textLength="157.1313" x="166.0153" y="1096.4702">Daten auf gleichm&#228;&#223;iges Raster</text><text fill="#000000" font-family="Helvetica" font-size="11" lengthAdjust="spacing" textLength="126.5752" x="166.0153" y="1107.4702">interpolieren (100 Punkte)</text><path d="M353.4689,1134.5 L353.4689,1152 L333.4689,1156 L353.4689,1160 L353.4689,1177.5 A0,0 0 0 0 353.4689,1177.5 L525.504,1177.5 A0,0 0 0 0 525.504,1177.5 L525.504,1144.5 L515.504,1134.5 L353.4689,1134.5 A0,0 0 0 0 353.4689,1134.5" fill="#FFFFFF" style="stroke:#000000;stroke-width:1;"/><path d="M515.504,1134.5 L515.504,1144.5 L525.504,1144.5 L515.504,1134.5" fill="#FFFFFF" style="stroke:#000000;stroke-width:1;"/><text fill="#000000" font-family="Helvetica" font-size="11" lengthAdjust="spacing" textLength="151.0352" x="359.4689" y="1147.9702">Spalten: Zeit, SOC, Spannung,</text><text fill="#000000" font-family="Helvetica" font-size="11" lengthAdjust="spacing" textLength="140.0029" x="359.4689" y="1158.9702">Strom, Temperatur, Leistung</text><text fill="#000000" font-family="Helvetica" font-size="11" lengthAdjust="spacing" textLength="148.5645" x="359.4689" y="1169.9702">&#8594; Bereit f&#252;r SOH-Berechnung</text><rect fill="#FFFFFF" height="31" rx="4" ry="4" style="stroke:#000000;stroke-width:1;" width="177.7759" x="155.693" y="1140.5"/><text fill="#000000" font-family="Helvetica" font-size="11" lengthAdjust="spacing" textLength="157.7759" x="165.693" y="1158.9702">Bereinigte Messdaten ausgeben</text><ellipse cx="244.5809" cy="1220.5" fill="none" rx="11" ry="11" style="stroke:#000000;stroke-width:1;"/><ellipse cx="244.5809" cy="1220.5" fill="#FFFFFF" rx="6" ry="6" style="stroke:#000000;stroke-width:1;"/><line style="stroke:#000000;stroke-width:1;" x1="244.5809" x2="244.5809" y1="90" y2="110"/><polygon fill="#000000" points="240.5809,100,244.5809,110,248.5809,100,244.5809,104" style="stroke:#000000;stroke-width:1;"/><line style="stroke:#000000;stroke-width:1;" x1="132.8776" x2="132.8776" y1="247" y2="278"/><polygon fill="#000000" points="128.8776,268,132.8776,278,136.8776,268,132.8776,272" style="stroke:#000000;stroke-width:1;"/><line style="stroke:#000000;stroke-width:1;" x1="132.8776" x2="132.8776" y1="331" y2="351"/><polygon fill="#000000" points="128.8776,341,132.8776,351,136.8776,341,132.8776,345" style="stroke:#000000;stroke-width:1;"/><line style="stroke:#000000;stroke-width:1;" x1="356.2843" x2="356.2843" y1="258" y2="289"/><polygon fill="#000000" points="352.2843,279,356.2843,289,360.2843,279,356.2843,283" style="stroke:#000000;stroke-width:1;"/><line style="stroke:#000000;stroke-width:1;" x1="157.0929" x2="132.8776" y1="194" y2="194"/><line style="stroke:#000000;stroke-width:1;" x1="132.8776" x2="132.8776" y1="194" y2="216"/><polygon fill="#000000" points="128.8776,206,132.8776,216,136.8776,206,132.8776,210" style="stroke:#000000;stroke-width:1;"/><line style="stroke:#000000;stroke-width:1;" x1="332.069" x2="356.2843" y1="194" y2="194"/><line style="stroke:#000000;stroke-width:1;" x1="356.2843" x2="356.2843" y1="194" y2="216"/><polygon fill="#000000" points="352.2843,206,356.2843,216,360.2843,206,356.2843,210" style="stroke:#000000;stroke-width:1;"/><line style="stroke:#000000;stroke-width:1;" x1="132.8776" x2="132.8776" y1="393" y2="411"/><line style="stroke:#000000;stroke-width:1;" x1="132.8776" x2="232.5809" y1="411" y2="411"/><polygon fill="#000000" points="222.5809,407,232.5809,411,222.5809,415,226.5809,411" style="stroke:#000000;stroke-width:1;"/><line style="stroke:#000000;stroke-width:1;" x1="356.2843" x2="356.2843" y1="331" y2="411"/><line style="stroke:#000000;stroke-width:1;" x1="356.2843" x2="256.5809" y1="411" y2="411"/><polygon fill="#000000" points="266.5809,407,256.5809,411,266.5809,415,262.5809,411" style="stroke:#000000;stroke-width:1;"/><line style="stroke:#000000;stroke-width:1;" x1="244.5809" x2="244.5809" y1="141" y2="182"/><polygon fill="#000000" points="240.5809,172,244.5809,182,248.5809,172,244.5809,176" style="stroke:#000000;stroke-width:1;"/><line style="stroke:#000000;stroke-width:1;" x1="244.5809" x2="244.5809" y1="518.5" y2="539"/><polygon fill="#000000" points="240.5809,529,244.5809,539,248.5809,529,244.5809,533" style="stroke:#000000;stroke-width:1;"/><line style="stroke:#000000;stroke-width:1;" x1="244.5809" x2="244.5809" y1="423" y2="476.5"/><polygon fill="#000000" points="240.5809,466.5,244.5809,476.5,248.5809,466.5,244.5809,470.5" style="stroke:#000000;stroke-width:1;"/><line style="stroke:#000000;stroke-width:1;" x1="191.4518" x2="146.6893" y1="712" y2="712"/><line style="stroke:#000000;stroke-width:1;" x1="146.6893" x2="146.6893" y1="712" y2="734"/><polygon fill="#000000" points="142.6893,724,146.6893,734,150.6893,724,146.6893,728" style="stroke:#000000;stroke-width:1;"/><line style="stroke:#000000;stroke-width:1;" x1="297.7101" x2="342.4725" y1="712" y2="712"/><line style="stroke:#000000;stroke-width:1;" x1="342.4725" x2="342.4725" y1="712" y2="734"/><polygon fill="#000000" points="338.4725,724,342.4725,734,346.4725,724,342.4725,728" style="stroke:#000000;stroke-width:1;"/><line style="stroke:#000000;stroke-width:1;" x1="146.6893" x2="146.6893" y1="776" y2="794"/><line style="stroke:#000000;stroke-width:1;" x1="146.6893" x2="232.5809" y1="794" y2="794"/><polygon fill="#000000" points="222.5809,790,232.5809,794,222.5809,798,226.5809,794" style="stroke:#000000;stroke-width:1;"/><line style="stroke:#000000;stroke-width:1;" x1="342.4725" x2="342.4725" y1="776" y2="794"/><line style="stroke:#000000;stroke-width:1;" x1="342.4725" x2="256.5809" y1="794" y2="794"/><polygon fill="#000000" points="266.5809,790,256.5809,794,266.5809,798,262.5809,794" style="stroke:#000000;stroke-width:1;"/><line style="stroke:#000000;stroke-width:1;" x1="244.5809" x2="244.5809" y1="647" y2="700"/><polygon fill="#000000" points="240.5809,690,244.5809,700,248.5809,690,244.5809,694" style="stroke:#000000;stroke-width:1;"/><line style="stroke:#000000;stroke-width:1;" x1="244.5809" x2="244.5809" y1="901" y2="921"/><polygon fill="#000000" points="240.5809,911,244.5809,921,248.5809,911,244.5809,915" style="stroke:#000000;stroke-width:1;"/><line style="stroke:#000000;stroke-width:1;" x1="244.5809" x2="244.5809" y1="806" y2="859"/><polygon fill="#000000" points="240.5809,849,244.5809,859,248.5809,849,244.5809,853" style="stroke:#000000;stroke-width:1;"/><line style="stroke:#000000;stroke-width:1;" x1="244.5809" x2="244.5809" y1="1058" y2="1078"/><polygon fill="#000000" points="240.5809,1068,244.5809,1078,248.5809,1068,244.5809,1072" style="stroke:#000000;stroke-width:1;"/><line style="stroke:#000000;stroke-width:1;" x1="244.5809" x2="244.5809" y1="1120" y2="1140.5"/><polygon fill="#000000" points="240.5809,1130.5,244.5809,1140.5,248.5809,1130.5,244.5809,1134.5" style="stroke:#000000;stroke-width:1;"/><line style="stroke:#000000;stroke-width:1;" x1="244.5809" x2="244.5809" y1="963" y2="1016"/><polygon fill="#000000" points="240.5809,1006,244.5809,1016,248.5809,1006,244.5809,1010" style="stroke:#000000;stroke-width:1;"/><line style="stroke:#000000;stroke-width:1;" x1="244.5809" x2="244.5809" y1="1171.5" y2="1209.5"/><polygon fill="#000000" points="240.5809,1199.5,244.5809,1209.5,248.5809,1199.5,244.5809,1203.5" style="stroke:#000000;stroke-width:1;"/><?plantuml-src TLN1Rjj64BtpAwOf2b286Cj02XHIu42MvCgm90kc8nU1W60b3icjo5bYTscXAbBqr0_e3nGe_04zvPHJzIVvaivIj2mxBYyITtPctioRD_p6ffWZ59cGv9cLf49eaSD2B5U9LYL5FPKf3T-ULS_1ZGXZKMRsJ96T28umnEmMhLoAv--4SeDmV7nWDAc8r5fI0h7831vOhdPvDQ667ppFIfiXl5cSz8L5kaKjz0AbBIanmLGMc4d2DqUBapdD575E3Rrm5bofDEBx4ZObB52Z99cmEupH66SWppDMQEjvRNUzNztbMnaQf8xdCHHEB3dYYpEbSpRh5H9nrXVmg-V96FmGSxdYzb1mhTc4-ksSma7lSj8FEzFpVcVM7RqRTDvDpg_31d2V2VoVHSC3VjhZdrx2I50ILx61WmiYszaPf_9MsU1QB33Zob4Rw_xGd7pd0b_--1DEkIAxSsxCgPia6XFXuBOXGxjXj723-ZxWJEdrzavR4vnjFsSP5y6nGYIZ63XmmH7_bCHUPfbAZ3AvJ87_4kTjT3naVi0dxawDlYSqX4lXQZv4Sby61xzGUIw21AthZ6tKEDu_N5qfHwMLJ8qhR3XiZyVjC7oLvtbLO8Yhqi5owIcIiUTzV4HAM8YCMGm6ZsXfSz-3iIWADrU2rbLb7BvRMiLP9TU4yBvKEd8k79kKHT0oIIqZPESFu-vqUZxvCOIRxIVD3LcKovHDkRJG7y1B64nW9hGKv4O8O20fvQAuVMlKhej8DaPDrg465vr13NPjGQX1j-VqvVU_8RpiWNyw3ZbgNngMu2-Dsb28gYJmP_SdLgiS_6xzUervmJgmfGR_ttzwzUc0wKWa9fXo5l1lqlhyGXHY8-tsZW-x-qEPgHmTurOmKd-LSpUUzBXRnjdsapcS-HFullMgrMe1KyaZ-VQhmHwfTN25HcMbYn6CLLIQEVNLcep8YwpYfOpXj-DTc6b9AulFZDYGENacKDSfebe4HUK9F4GxblzdJaOYmbkb4nREqrbnfWsJfqMPCwZzXC1EwjNW68ayCNqf4jvCERHUkowrAm1L7Iu6Ko5LX11B9bSxhsKgc0bAFbGhffhd_H6Z_BhJvqvxXSeg2U_GFJeoJ5NgSh2CqteLyDfZ6Hx1HRceK1z1ToLpyGHWaY6BET_URV-I2Hgu4hnDz9na7RuI8FZ7UowUYe8vg8aBJeMHfirdRe0cWdDM8zpY-jZ_kqPjkNGxc9pPwVrG2AVxHVomXncbIN3X27oKzruhLP2cozJS2wFfx4uIpGCfD664qhZlWiFXTgJBPY7UVkPjTJaCt3llD7VX0TD7znrGXVSV?></g></svg>