<?plantuml 1.2026.1?><svg xmlns="http://www.w3.org/2000/svg" xmlns:xlink="http://www.w3.org/1999/xlink" contentStyleType="text/css" data-diagram-type="ACTIVITY" height="1576px" preserveAspectRatio="none" style="width:659px;height:1576px;background:#FFFFFF;" version="1.1" viewBox="0 0 659 1576" width="659px" zoomAndPan="magnify"><title>&lt;b&gt;Ladevorgang-Erkennung&lt;/b&gt;
Automatische Bestimmung von Ladestart und -ende</title><defs/><g><g class="title" data-source-line="8"><text fill="#000000" font-family="Helvetica" font-size="22" font-weight="bold" lengthAdjust="spacing" textLength="260.3584" x="198.0105" y="31.9404">Ladevorgang-Erkennung</text><text fill="#000000" font-family="Helvetica" font-size="22" font-weight="bold" lengthAdjust="spacing" textLength="546.4014" x="54.989" y="53.9404">Automatische Bestimmung von Ladestart und -ende</text></g><ellipse cx="367.5601" cy="80" fill="#FFFFFF" rx="10" ry="10" style="stroke:#000000;stroke-width:1;"/><rect fill="#FFFFFF" height="31" rx="4" ry="4" style="stroke:#000000;stroke-width:1;" width="161.8613" x="286.6294" y="110"/><text fill="#000000" font-family="Helvetica" font-size="11" lengthAdjust="spacing" textLength="141.8613" x="296.6294" y="128.4702">Rohdaten nach Zeit sortieren</text><rect fill="#FFFFFF" height="31" rx="4" ry="4" style="stroke:#000000;stroke-width:1;" width="166.0991" x="284.5105" y="161"/><text fill="#000000" font-family="Helvetica" font-size="11" lengthAdjust="spacing" textLength="146.0991" x="294.5105" y="179.4702">NaN-Werte im SOC entfernen</text><rect fill="#FFFFFF" height="42" rx="4" ry="4" style="stroke:#000000;stroke-width:1;" width="185.0859" x="275.0171" y="260"/><text fill="#000000" font-family="Helvetica" font-size="11" lengthAdjust="spacing" textLength="165.0859" x="285.0171" y="278.4702">Gesamten Zeitbereich verwenden</text><text fill="#000000" font-family="Helvetica" font-size="11" lengthAdjust="spacing" textLength="130.8452" x="285.0171" y="289.4702">(keine Erkennung m&#246;glich)</text><ellipse cx="367.5601" cy="337.5" fill="none" rx="11" ry="11" style="stroke:#000000;stroke-width:1;"/><ellipse cx="367.5601" cy="337.5" fill="#FFFFFF" rx="6" ry="6" style="stroke:#000000;stroke-width:1;"/><polygon fill="#FFFFFF" points="320.9255,212,414.1946,212,426.1946,224,414.1946,236,320.9255,236,308.9255,224,320.9255,212" style="stroke:#000000;stroke-width:1;"/><text fill="#000000" font-family="Helvetica" font-size="11" lengthAdjust="spacing" textLength="8.5615" x="371.5601" y="244.4702">ja</text><text fill="#000000" font-family="Helvetica" font-size="11" lengthAdjust="spacing" textLength="93.269" x="320.9255" y="226.9702">&lt; 10 Datenpunkte?</text><text fill="#000000" font-family="Helvetica" font-size="11" lengthAdjust="spacing" textLength="20.7969" x="426.1946" y="221.4702">nein</text><rect fill="#FFFFFF" height="667" rx="4" ry="4" style="stroke:#000000;stroke-width:1;" width="647.3794" x="6" y="380.5"/><path d="M118.7329,380.5 L118.7329,384.5 L108.7329,394.5 L6,394.5" fill="none" style="stroke:#000000;stroke-width:1;"/><text fill="#000000" font-family="Helvetica" font-size="11" lengthAdjust="spacing" textLength="102.7329" x="9" y="389.9702">Ladestart-Erkennung</text><rect fill="#FFFFFF" height="42" rx="4" ry="4" style="stroke:#000000;stroke-width:1;" width="196.7036" x="269.2083" y="411.5"/><text fill="#000000" font-family="Helvetica" font-size="11" lengthAdjust="spacing" textLength="176.7036" x="279.2083" y="429.9702">Gleitende SOC-Differenz berechnen</text><text fill="#000000" font-family="Helvetica" font-size="11" lengthAdjust="spacing" textLength="172.1113" x="279.2083" y="440.9702">(Fenster = min(10, Datenl&#228;nge/10))</text><rect fill="#FFFFFF" height="42" rx="4" ry="4" style="stroke:#000000;stroke-width:1;" width="170.3853" x="282.3674" y="473.5"/><text fill="#000000" font-family="Helvetica" font-size="11" lengthAdjust="spacing" textLength="150.3853" x="292.3674" y="491.9702">SOC-Anstiegs-Maske erstellen</text><text fill="#000000" font-family="Helvetica" font-size="11" lengthAdjust="spacing" textLength="128.6914" x="292.3674" y="502.9702">&#916;SOC &gt; 0,5% pro Fenster</text><polygon fill="#FFFFFF" points="307.6348,535.5,427.4854,535.5,439.4854,547.5,427.4854,559.5,307.6348,559.5,295.6348,547.5,307.6348,535.5" style="stroke:#000000;stroke-width:1;"/><text fill="#000000" font-family="Helvetica" font-size="11" lengthAdjust="spacing" textLength="119.8506" x="307.6348" y="550.4702">Stromspalte vorhanden?</text><text fill="#000000" font-family="Helvetica" font-size="11" lengthAdjust="spacing" textLength="8.5615" x="287.0732" y="544.9702">ja</text><text fill="#000000" font-family="Helvetica" font-size="11" lengthAdjust="spacing" textLength="20.7969" x="439.4854" y="544.9702">nein</text><rect fill="#FFFFFF" height="31" rx="4" ry="4" style="stroke:#000000;stroke-width:1;" width="187.5459" x="80.8877" y="569.5"/><text fill="#000000" font-family="Helvetica" font-size="11" lengthAdjust="spacing" textLength="167.5459" x="90.8877" y="587.9702">Beide Strom-Konventionen testen:</text><rect fill="#000000" height="6" rx="2.5" ry="2.5" style="stroke:#000000;stroke-width:1;" width="315.3213" x="18" y="620.5"/><rect fill="#FFFFFF" height="53" rx="4" ry="4" style="stroke:#000000;stroke-width:1;" width="130.6768" x="30" y="646.5"/><text fill="#000000" font-family="Helvetica" font-size="11" lengthAdjust="spacing" textLength="102.0884" x="40" y="664.9702">Maske A: SOC steigt</text><text fill="#000000" font-family="Helvetica" font-size="11" lengthAdjust="spacing" textLength="74.5884" x="40" y="675.9702">UND I &gt; +0,5 A</text><text fill="#000000" font-family="Helvetica" font-size="11" lengthAdjust="spacing" textLength="110.6768" x="40" y="686.9702">(Standard-Konvention)</text><rect fill="#FFFFFF" height="53" rx="4" ry="4" style="stroke:#000000;stroke-width:1;" width="130.6445" x="188.6768" y="646.5"/><text fill="#000000" font-family="Helvetica" font-size="11" lengthAdjust="spacing" textLength="102.0884" x="198.6768" y="664.9702">Maske B: SOC steigt</text><text fill="#000000" font-family="Helvetica" font-size="11" lengthAdjust="spacing" textLength="74.5884" x="198.6768" y="675.9702">UND I &lt; &#8722;0,5 A</text><text fill="#000000" font-family="Helvetica" font-size="11" lengthAdjust="spacing" textLength="110.6445" x="198.6768" y="686.9702">(VW BMS-Konvention)</text><rect fill="#000000" height="6" rx="2.5" ry="2.5" style="stroke:#000000;stroke-width:1;" width="315.3213" x="18" y="719.5"/><path d="M294.8413,735.5 L294.8413,758.5 L274.8413,762.5 L294.8413,766.5 L294.8413,789.5 A0,0 0 0 0 294.8413,789.5 L459.5396,789.5 A0,0 0 0 0 459.5396,789.5 L459.5396,745.5 L449.5396,735.5 L294.8413,735.5 A0,0 0 0 0 294.8413,735.5" fill="#FFFFFF" style="stroke:#000000;stroke-width:1;"/><path d="M449.5396,735.5 L449.5396,745.5 L459.5396,745.5 L449.5396,735.5" fill="#FFFFFF" style="stroke:#000000;stroke-width:1;"/><text fill="#000000" font-family="Helvetica" font-size="11" lengthAdjust="spacing" textLength="103.9146" x="300.8413" y="748.9702">VW ID.4 BMS meldet</text><text fill="#000000" font-family="Helvetica" font-size="11" lengthAdjust="spacing" textLength="143.6982" x="300.8413" y="759.9702">negativen Strom beim Laden.</text><text fill="#000000" font-family="Helvetica" font-size="11" lengthAdjust="spacing" textLength="122.9067" x="300.8413" y="770.9702">Automatische Erkennung</text><text fill="#000000" font-family="Helvetica" font-size="11" lengthAdjust="spacing" textLength="99.043" x="300.8413" y="781.9702">l&#246;st dieses Problem.</text><rect fill="#FFFFFF" height="31" rx="4" ry="4" style="stroke:#000000;stroke-width:1;" width="200.3613" x="74.48" y="747"/><text fill="#000000" font-family="Helvetica" font-size="11" lengthAdjust="spacing" textLength="180.3613" x="84.48" y="765.4702">Konvention mit mehr Treffern w&#228;hlen</text><rect fill="#FFFFFF" height="42" rx="4" ry="4" style="stroke:#000000;stroke-width:1;" width="161.8398" x="93.7407" y="857.5"/><text fill="#000000" font-family="Helvetica" font-size="11" lengthAdjust="spacing" textLength="141.8398" x="103.7407" y="875.9702">Nur SOC-Anstieg verwenden</text><text fill="#000000" font-family="Helvetica" font-size="11" lengthAdjust="spacing" textLength="111.8584" x="103.7407" y="886.9702">(ohne Strom-Kriterium)</text><polygon fill="#FFFFFF" points="101.4338,809.5,247.8875,809.5,259.8875,821.5,247.8875,833.5,101.4338,833.5,89.4338,821.5,101.4338,809.5" style="stroke:#000000;stroke-width:1;"/><text fill="#000000" font-family="Helvetica" font-size="11" lengthAdjust="spacing" textLength="8.5615" x="178.6606" y="841.9702">ja</text><text fill="#000000" font-family="Helvetica" font-size="11" lengthAdjust="spacing" textLength="146.4536" x="101.4338" y="824.4702">Keine Konvention &gt; 0 Treffer?</text><text fill="#000000" font-family="Helvetica" font-size="11" lengthAdjust="spacing" textLength="20.7969" x="259.8875" y="818.9702">nein</text><polygon fill="#FFFFFF" points="174.6606,919.5,186.6606,931.5,174.6606,943.5,162.6606,931.5,174.6606,919.5" style="stroke:#000000;stroke-width:1;"/><rect fill="#FFFFFF" height="31" rx="4" ry="4" style="stroke:#000000;stroke-width:1;" width="161.8398" x="479.5396" y="569.5"/><text fill="#000000" font-family="Helvetica" font-size="11" lengthAdjust="spacing" textLength="141.8398" x="489.5396" y="587.9702">Nur SOC-Anstieg verwenden</text><polygon fill="#FFFFFF" points="367.5601,949.5,379.5601,961.5,367.5601,973.5,355.5601,961.5,367.5601,949.5" style="stroke:#000000;stroke-width:1;"/><rect fill="#FFFFFF" height="42" rx="4" ry="4" style="stroke:#000000;stroke-width:1;" width="136.4829" x="299.3186" y="993.5"/><text fill="#000000" font-family="Helvetica" font-size="11" lengthAdjust="spacing" textLength="116.4829" x="309.3186" y="1011.9702">Ladestart = erster Index</text><text fill="#000000" font-family="Helvetica" font-size="11" lengthAdjust="spacing" textLength="104.5591" x="309.3186" y="1022.9702">der gew&#228;hlten Maske</text><rect fill="#FFFFFF" height="199" rx="4" ry="4" style="stroke:#000000;stroke-width:1;" width="430.1284" x="152.4958" y="1057.5"/><path d="M268.3064,1057.5 L268.3064,1061.5 L258.3064,1071.5 L152.4958,1071.5" fill="none" style="stroke:#000000;stroke-width:1;"/><text fill="#000000" font-family="Helvetica" font-size="11" lengthAdjust="spacing" textLength="105.8105" x="155.4958" y="1066.9702">Ladeende-Erkennung</text><rect fill="#000000" height="6" rx="2.5" ry="2.5" style="stroke:#000000;stroke-width:1;" width="410.1284" x="162.4958" y="1088.5"/><rect fill="#FFFFFF" height="42" rx="4" ry="4" style="stroke:#000000;stroke-width:1;" width="182.5186" x="176.4958" y="1120"/><text fill="#000000" font-family="Helvetica" font-size="11" lengthAdjust="spacing" textLength="56.2354" x="186.4958" y="1138.4702">Kriterium 1:</text><text fill="#000000" font-family="Helvetica" font-size="11" lengthAdjust="spacing" textLength="162.5186" x="186.4958" y="1149.4702">SOC &#8805; 99% des SOC-Maximums</text><rect fill="#FFFFFF" height="53" rx="4" ry="4" style="stroke:#000000;stroke-width:1;" width="171.6099" x="387.0144" y="1114.5"/><text fill="#000000" font-family="Helvetica" font-size="11" lengthAdjust="spacing" textLength="56.2354" x="397.0144" y="1132.9702">Kriterium 2:</text><text fill="#000000" font-family="Helvetica" font-size="11" lengthAdjust="spacing" textLength="136.2646" x="397.0144" y="1143.9702">|I| &lt; 0,05 A (nach Ladestart)</text><text fill="#000000" font-family="Helvetica" font-size="11" lengthAdjust="spacing" textLength="151.6099" x="397.0144" y="1154.9702">(10x kleiner als Start-Schwelle)</text><rect fill="#000000" height="6" rx="2.5" ry="2.5" style="stroke:#000000;stroke-width:1;" width="410.1284" x="162.4958" y="1187.5"/><rect fill="#FFFFFF" height="31" rx="4" ry="4" style="stroke:#000000;stroke-width:1;" width="220.8896" x="257.1152" y="1213.5"/><text fill="#000000" font-family="Helvetica" font-size="11" lengthAdjust="spacing" textLength="200.8896" x="267.1152" y="1231.9702">Ladeende = fr&#252;heres der beiden Kriterien</text><rect fill="#FFFFFF" height="262" rx="4" ry="4" style="stroke:#000000;stroke-width:1;" width="403.9072" x="172.1726" y="1266.5"/><path d="M237.2102,1266.5 L237.2102,1270.5 L227.2102,1280.5 L172.1726,1280.5" fill="none" style="stroke:#000000;stroke-width:1;"/><text fill="#000000" font-family="Helvetica" font-size="11" lengthAdjust="spacing" textLength="55.0376" x="175.1726" y="1275.9702">Validierung</text><polygon fill="#FFFFFF" points="294.2339,1297.5,440.8862,1297.5,452.8862,1309.5,440.8862,1321.5,294.2339,1321.5,282.2339,1309.5,294.2339,1297.5" style="stroke:#000000;stroke-width:1;"/><text fill="#000000" font-family="Helvetica" font-size="11" lengthAdjust="spacing" textLength="61.4561" x="294.2339" y="1306.9702">Start &lt; Ende</text><text fill="#000000" font-family="Helvetica" font-size="11" lengthAdjust="spacing" textLength="146.6523" x="294.2339" y="1317.9702">UND &#8805; 10 Punkte im Bereich?</text><text fill="#000000" font-family="Helvetica" font-size="11" lengthAdjust="spacing" textLength="8.5615" x="273.6724" y="1306.9702">ja</text><text fill="#000000" font-family="Helvetica" font-size="11" lengthAdjust="spacing" textLength="20.7969" x="452.8862" y="1306.9702">nein</text><rect fill="#FFFFFF" height="31" rx="4" ry="4" style="stroke:#000000;stroke-width:1;" width="158.8213" x="192.1726" y="1331.5"/><text fill="#000000" font-family="Helvetica" font-size="11" lengthAdjust="spacing" textLength="138.8213" x="202.1726" y="1349.9702">G&#252;ltige Ladeperiode erkannt</text><rect fill="#FFFFFF" height="31" rx="4" ry="4" style="stroke:#000000;stroke-width:1;" width="185.0859" x="370.9939" y="1331.5"/><text fill="#000000" font-family="Helvetica" font-size="11" lengthAdjust="spacing" textLength="165.0859" x="380.9939" y="1349.9702">Gesamten Zeitbereich verwenden</text><polygon fill="#FFFFFF" points="367.5601,1368.5,379.5601,1380.5,367.5601,1392.5,355.5601,1380.5,367.5601,1368.5" style="stroke:#000000;stroke-width:1;"/><rect fill="#FFFFFF" height="42" rx="4" ry="4" style="stroke:#000000;stroke-width:1;" width="183.856" x="275.6321" y="1412.5"/><text fill="#000000" font-family="Helvetica" font-size="11" lengthAdjust="spacing" textLength="163.856" x="285.6321" y="1430.9702">Start-SOC und End-SOC ablesen</text><text fill="#000000" font-family="Helvetica" font-size="11" lengthAdjust="spacing" textLength="97.2275" x="285.6321" y="1441.9702">(gerundet auf 0,1%)</text><rect fill="#FFFFFF" height="42" rx="4" ry="4" style="stroke:#000000;stroke-width:1;" width="219.3374" x="257.8914" y="1474.5"/><text fill="#000000" font-family="Helvetica" font-size="11" lengthAdjust="spacing" textLength="199.3374" x="267.8914" y="1492.9702">Ergebnis: (charging_start, charging_end)</text><text fill="#000000" font-family="Helvetica" font-size="11" lengthAdjust="spacing" textLength="115.5806" x="267.8914" y="1503.9702">Zeitpunkte in Sekunden</text><ellipse cx="367.5601" cy="1559.5" fill="none" rx="11" ry="11" style="stroke:#000000;stroke-width:1;"/><ellipse cx="367.5601" cy="1559.5" fill="#FFFFFF" rx="6" ry="6" style="stroke:#000000;stroke-width:1;"/><line style="stroke:#000000;stroke-width:1;" x1="367.5601" x2="367.5601" y1="90" y2="110"/><polygon fill="#000000" points="363.5601,100,367.5601,110,371.5601,100,367.5601,104" style="stroke:#000000;stroke-width:1;"/><line style="stroke:#000000;stroke-width:1;" x1="367.5601" x2="367.5601" y1="141" y2="161"/><polygon fill="#000000" points="363.5601,151,367.5601,161,371.5601,151,367.5601,155" style="stroke:#000000;stroke-width:1;"/><line style="stroke:#000000;stroke-width:1;" x1="367.5601" x2="367.5601" y1="302" y2="326.5"/><polygon fill="#000000" points="363.5601,316.5,367.5601,326.5,371.5601,316.5,367.5601,320.5" style="stroke:#000000;stroke-width:1;"/><line style="stroke:#000000;stroke-width:1;" x1="367.5601" x2="367.5601" y1="236" y2="260"/><polygon fill="#000000" points="363.5601,250,367.5601,260,371.5601,250,367.5601,254" style="stroke:#000000;stroke-width:1;"/><line style="stroke:#000000;stroke-width:1;" x1="426.1946" x2="470.103" y1="224" y2="224"/><polygon fill="#000000" points="466.103,296.5,470.103,306.5,474.103,296.5,470.103,300.5" style="stroke:#000000;stroke-width:1;"/><line style="stroke:#000000;stroke-width:1;" x1="470.103" x2="470.103" y1="224" y2="370.5"/><line style="stroke:#000000;stroke-width:1;" x1="470.103" x2="367.5601" y1="370.5" y2="370.5"/><line style="stroke:#000000;stroke-width:1;" x1="367.5601" x2="367.5601" y1="370.5" y2="411.5"/><polygon fill="#000000" points="363.5601,401.5,367.5601,411.5,371.5601,401.5,367.5601,405.5" style="stroke:#000000;stroke-width:1;"/><line style="stroke:#000000;stroke-width:1;" x1="367.5601" x2="367.5601" y1="192" y2="212"/><polygon fill="#000000" points="363.5601,202,367.5601,212,371.5601,202,367.5601,206" style="stroke:#000000;stroke-width:1;"/><line style="stroke:#000000;stroke-width:1;" x1="367.5601" x2="367.5601" y1="453.5" y2="473.5"/><polygon fill="#000000" points="363.5601,463.5,367.5601,473.5,371.5601,463.5,367.5601,467.5" style="stroke:#000000;stroke-width:1;"/><line style="stroke:#000000;stroke-width:1;" x1="95.3384" x2="95.3384" y1="626.5" y2="646.5"/><polygon fill="#000000" points="91.3384,636.5,95.3384,646.5,99.3384,636.5,95.3384,640.5" style="stroke:#000000;stroke-width:1;"/><line style="stroke:#000000;stroke-width:1;" x1="253.999" x2="253.999" y1="626.5" y2="646.5"/><polygon fill="#000000" points="249.999,636.5,253.999,646.5,257.999,636.5,253.999,640.5" style="stroke:#000000;stroke-width:1;"/><line style="stroke:#000000;stroke-width:1;" x1="95.3384" x2="95.3384" y1="699.5" y2="719.5"/><polygon fill="#000000" points="91.3384,709.5,95.3384,719.5,99.3384,709.5,95.3384,713.5" style="stroke:#000000;stroke-width:1;"/><line style="stroke:#000000;stroke-width:1;" x1="253.999" x2="253.999" y1="699.5" y2="719.5"/><polygon fill="#000000" points="249.999,709.5,253.999,719.5,257.999,709.5,253.999,713.5" style="stroke:#000000;stroke-width:1;"/><line style="stroke:#000000;stroke-width:1;" x1="174.6606" x2="174.6606" y1="600.5" y2="620.5"/><polygon fill="#000000" points="170.6606,610.5,174.6606,620.5,178.6606,610.5,174.6606,614.5" style="stroke:#000000;stroke-width:1;"/><line style="stroke:#000000;stroke-width:1;" x1="174.6606" x2="174.6606" y1="725.5" y2="747"/><polygon fill="#000000" points="170.6606,737,174.6606,747,178.6606,737,174.6606,741" style="stroke:#000000;stroke-width:1;"/><line style="stroke:#000000;stroke-width:1;" x1="174.6606" x2="174.6606" y1="833.5" y2="857.5"/><polygon fill="#000000" points="170.6606,847.5,174.6606,857.5,178.6606,847.5,174.6606,851.5" style="stroke:#000000;stroke-width:1;"/><line style="stroke:#000000;stroke-width:1;" x1="259.8875" x2="271.8875" y1="821.5" y2="821.5"/><polygon fill="#000000" points="267.8875,868.5,271.8875,878.5,275.8875,868.5,271.8875,872.5" style="stroke:#000000;stroke-width:1;"/><line style="stroke:#000000;stroke-width:1;" x1="271.8875" x2="271.8875" y1="821.5" y2="931.5"/><line style="stroke:#000000;stroke-width:1;" x1="271.8875" x2="186.6606" y1="931.5" y2="931.5"/><polygon fill="#000000" points="196.6606,927.5,186.6606,931.5,196.6606,935.5,192.6606,931.5" style="stroke:#000000;stroke-width:1;"/><line style="stroke:#000000;stroke-width:1;" x1="174.6606" x2="174.6606" y1="899.5" y2="919.5"/><polygon fill="#000000" points="170.6606,909.5,174.6606,919.5,178.6606,909.5,174.6606,913.5" style="stroke:#000000;stroke-width:1;"/><line style="stroke:#000000;stroke-width:1;" x1="174.6606" x2="174.6606" y1="778" y2="809.5"/><polygon fill="#000000" points="170.6606,799.5,174.6606,809.5,178.6606,799.5,174.6606,803.5" style="stroke:#000000;stroke-width:1;"/><line style="stroke:#000000;stroke-width:1;" x1="295.6348" x2="174.6606" y1="547.5" y2="547.5"/><line style="stroke:#000000;stroke-width:1;" x1="174.6606" x2="174.6606" y1="547.5" y2="569.5"/><polygon fill="#000000" points="170.6606,559.5,174.6606,569.5,178.6606,559.5,174.6606,563.5" style="stroke:#000000;stroke-width:1;"/><line style="stroke:#000000;stroke-width:1;" x1="439.4854" x2="560.4595" y1="547.5" y2="547.5"/><line style="stroke:#000000;stroke-width:1;" x1="560.4595" x2="560.4595" y1="547.5" y2="569.5"/><polygon fill="#000000" points="556.4595,559.5,560.4595,569.5,564.4595,559.5,560.4595,563.5" style="stroke:#000000;stroke-width:1;"/><line style="stroke:#000000;stroke-width:1;" x1="174.6606" x2="174.6606" y1="943.5" y2="961.5"/><line style="stroke:#000000;stroke-width:1;" x1="174.6606" x2="355.5601" y1="961.5" y2="961.5"/><polygon fill="#000000" points="345.5601,957.5,355.5601,961.5,345.5601,965.5,349.5601,961.5" style="stroke:#000000;stroke-width:1;"/><line style="stroke:#000000;stroke-width:1;" x1="560.4595" x2="560.4595" y1="600.5" y2="961.5"/><line style="stroke:#000000;stroke-width:1;" x1="560.4595" x2="379.5601" y1="961.5" y2="961.5"/><polygon fill="#000000" points="389.5601,957.5,379.5601,961.5,389.5601,965.5,385.5601,961.5" style="stroke:#000000;stroke-width:1;"/><line style="stroke:#000000;stroke-width:1;" x1="367.5601" x2="367.5601" y1="515.5" y2="535.5"/><polygon fill="#000000" points="363.5601,525.5,367.5601,535.5,371.5601,525.5,367.5601,529.5" style="stroke:#000000;stroke-width:1;"/><line style="stroke:#000000;stroke-width:1;" x1="367.5601" x2="367.5601" y1="973.5" y2="993.5"/><polygon fill="#000000" points="363.5601,983.5,367.5601,993.5,371.5601,983.5,367.5601,987.5" style="stroke:#000000;stroke-width:1;"/><line style="stroke:#000000;stroke-width:1;" x1="267.7551" x2="267.7551" y1="1094.5" y2="1120"/><polygon fill="#000000" points="263.7551,1110,267.7551,1120,271.7551,1110,267.7551,1114" style="stroke:#000000;stroke-width:1;"/><line style="stroke:#000000;stroke-width:1;" x1="472.8193" x2="472.8193" y1="1094.5" y2="1114.5"/><polygon fill="#000000" points="468.8193,1104.5,472.8193,1114.5,476.8193,1104.5,472.8193,1108.5" style="stroke:#000000;stroke-width:1;"/><line style="stroke:#000000;stroke-width:1;" x1="267.7551" x2="267.7551" y1="1162" y2="1187.5"/><polygon fill="#000000" points="263.7551,1177.5,267.7551,1187.5,271.7551,1177.5,267.7551,1181.5" style="stroke:#000000;stroke-width:1;"/><line style="stroke:#000000;stroke-width:1;" x1="472.8193" x2="472.8193" y1="1167.5" y2="1187.5"/><polygon fill="#000000" points="468.8193,1177.5,472.8193,1187.5,476.8193,1177.5,472.8193,1181.5" style="stroke:#000000;stroke-width:1;"/><line style="stroke:#000000;stroke-width:1;" x1="367.5601" x2="367.5601" y1="1193.5" y2="1213.5"/><polygon fill="#000000" points="363.5601,1203.5,367.5601,1213.5,371.5601,1203.5,367.5601,1207.5" style="stroke:#000000;stroke-width:1;"/><line style="stroke:#000000;stroke-width:1;" x1="367.5601" x2="367.5601" y1="1035.5" y2="1088.5"/><polygon fill="#000000" points="363.5601,1078.5,367.5601,1088.5,371.5601,1078.5,367.5601,1082.5" style="stroke:#000000;stroke-width:1;"/><line style="stroke:#000000;stroke-width:1;" x1="282.2339" x2="271.5833" y1="1309.5" y2="1309.5"/><line style="stroke:#000000;stroke-width:1;" x1="271.5833" x2="271.5833" y1="1309.5" y2="1331.5"/><polygon fill="#000000" points="267.5833,1321.5,271.5833,1331.5,275.5833,1321.5,271.5833,1325.5" style="stroke:#000000;stroke-width:1;"/><line style="stroke:#000000;stroke-width:1;" x1="452.8862" x2="463.5369" y1="1309.5" y2="1309.5"/><line style="stroke:#000000;stroke-width:1;" x1="463.5369" x2="463.5369" y1="1309.5" y2="1331.5"/><polygon fill="#000000" points="459.5369,1321.5,463.5369,1331.5,467.5369,1321.5,463.5369,1325.5" style="stroke:#000000;stroke-width:1;"/><line style="stroke:#000000;stroke-width:1;" x1="271.5833" x2="271.5833" y1="1362.5" y2="1380.5"/><line style="stroke:#000000;stroke-width:1;" x1="271.5833" x2="355.5601" y1="1380.5" y2="1380.5"/><polygon fill="#000000" points="345.5601,1376.5,355.5601,1380.5,345.5601,1384.5,349.5601,1380.5" style="stroke:#000000;stroke-width:1;"/><line style="stroke:#000000;stroke-width:1;" x1="463.5369" x2="463.5369" y1="1362.5" y2="1380.5"/><line style="stroke:#000000;stroke-width:1;" x1="463.5369" x2="379.5601" y1="1380.5" y2="1380.5"/><polygon fill="#000000" points="389.5601,1376.5,379.5601,1380.5,389.5601,1384.5,385.5601,1380.5" style="stroke:#000000;stroke-width:1;"/><line style="stroke:#000000;stroke-width:1;" x1="367.5601" x2="367.5601" y1="1392.5" y2="1412.5"/><polygon fill="#000000" points="363.5601,1402.5,367.5601,1412.5,371.5601,1402.5,367.5601,1406.5" style="stroke:#000000;stroke-width:1;"/><line style="stroke:#000000;stroke-width:1;" x1="367.5601" x2="367.5601" y1="1454.5" y2="1474.5"/><polygon fill="#000000" points="363.5601,1464.5,367.5601,1474.5,371.5601,1464.5,367.5601,1468.5" style="stroke:#000000;stroke-width:1;"/><line style="stroke:#000000;stroke-width:1;" x1="367.5601" x2="367.5601" y1="1244.5" y2="1297.5"/><polygon fill="#000000" points="363.5601,1287.5,367.5601,1297.5,371.5601,1287.5,367.5601,1291.5" style="stroke:#000000;stroke-width:1;"/><line style="stroke:#000000;stroke-width:1;" x1="367.5601" x2="367.5601" y1="1516.5" y2="1548.5"/><polygon fill="#000000" points="363.5601,1538.5,367.5601,1548.5,371.5601,1538.5,367.5601,1542.5" style="stroke:#000000;stroke-width:1;"/><?plantuml-src VLN1Rjj64BtpAwOf34YevKX12pIKuiAAxTH8h0PHcm25W68b3iajoLbXToaRINflhqK_8Vs5d7BJlH-HB-dCaf9booqFWiITdNdlpPlH5px72c5PAasHApGjbLKLpDMYoAofANbgIcFXo_Fmx4GacAgwzEU6_4HnXk-nNA7N2tL_p5I_HHWCTWvThX9pfIc3L9KETqvUDNKjeOLleyXhNoACviSlL88hOpD5MU_C5aXKKpPwE3-UqKdjJQMyTeiSOOpEwwhYGrWP0hdclB8UE2tqa1ACel0YYk9N9a-KHm9IYnn-Hkt16UirMgHX54_KfFS6hKVG5Kn_U0f8FaL6neUHJg4pWa4VJYN3igR2utTTO4K9Eh-gRWJynC_GgKegIF8vvzLSQ8NsIe3GZ3e5QaBO4e9g_J4hEQWx30cSDyi8MI7e44Ts8xwdqoXYhLWPpGGVR1dUoF80tZ6xPoNNb3g2lNUgqrHulGM1iSWfb3z7SfwLVWALfiwWVzZGATSVACE7WtwNSKInt3_XG8sPwrqgLo2WvNjbAKd--KkqEOR-uJS7iBG6sgIjI5DlJUMMgcGTkO6v4kRxIerH2r89xZqtj6AjcHw7U6Q757CsYKkDBSANSAd1SXA7xd2OploCVfgSmWNZ-Oe1mGcJd7gkgMooaxULLxA1oiJ-TtAExyivWi-__xd9-leDZ2-d-pbPyGPbm-lcd2NsK65kuKUBqWo2g_M7l1GxIIWPLiZgBFSj6AvmSNhqjPJXUsM2cmF2ZEtEQHkzkADiKF417RKHjqPYwulsi5n_T1uIZGuTlBHcNc9rjCKkC1hiqhtdmPyx9BZF6_nxJGo49xM57SFSShjXssrwRDcSLjVLHhOTaxTGsEXtt_vtzk5cDEARaN_IsDJ21KTSp_Z3GeP1T9d9q6dsrMzxyoGPxupJrdZn5ZaCuXc9Ipx_yJSyVdp0Ayy5S9VgMbTrvORH7OFjt7t4TzzVl6TFzG_xx2XcAKje2xuxatcyXgAK3bZWDSdAoPXF5_cLZ5utK6wz5czWC-dKhZ_bFEGEXF1S1ekWhHnsrst2hrMfsGnsmxGPMj5l16USiN6_SEHjzp8iEbc8usQRtRFprfzAhpCCN9PSqoIoBmf5v8Vx7Vt_5NdJrfOyoosRd865xuhDwuAtCc70CmAgJbdJmK5ONMSsmpbf5qDdaIkRyL_EBq7VGzZ-vWgijfHVjknuiB2ec_gYLbZ3_m80?></g></svg>