<?plantuml 1.2026.1?><svg xmlns="http://www.w3.org/2000/svg" xmlns:xlink="http://www.w3.org/1999/xlink" contentStyleType="text/css" data-diagram-type="DESCRIPTION" height="549px" preserveAspectRatio="none" style="width:1089px;height:549px;background:#FFFFFF;" version="1.1" viewBox="0 0 1089 549" width="1089px" zoomAndPan="magnify"><title>&lt;b&gt;Gesamtsystem-&#220;bersicht&lt;/b&gt;
Vom Fahrzeug zum SOH-Ergebnis</title><defs/><g><g class="title" data-source-line="17"><text fill="#000000" font-family="Helvetica" font-size="22" font-weight="bold" lengthAdjust="spacing" textLength="265.332" x="407.334" y="31.9404">Gesamtsystem-&#220;bersicht</text><text fill="#000000" font-family="Helvetica" font-size="22" font-weight="bold" lengthAdjust="spacing" textLength="356.9307" x="361.5347" y="53.9404">Vom Fahrzeug zum SOH-Ergebnis</text></g><!--cluster **Physische Messung**--><g class="cluster" data-qualified-name="..Physische Messung.." data-source-line="20" id="ent0002"><rect fill="#E8F4FD" height="74" rx="4" ry="4" style="stroke:#2C3E50;stroke-width:1;" width="540" x="12" y="77"/><text fill="#2C3E50" font-family="Helvetica" font-size="11" font-weight="bold" lengthAdjust="spacing" textLength="105.1499" x="229.425" y="87.4702">Physische Messung</text></g><!--cluster **Datenexport**--><g class="cluster" data-qualified-name="..Datenexport.." data-source-line="28" id="ent0007"><rect fill="#FFF3CD" height="74" rx="4" ry="4" style="stroke:#2C3E50;stroke-width:1;" width="108" x="422" y="175"/><text fill="#2C3E50" font-family="Helvetica" font-size="11" font-weight="bold" lengthAdjust="spacing" textLength="64.1792" x="443.9104" y="185.4702">Datenexport</text></g><!--cluster **Datenverarbeitung**--><g class="cluster" data-qualified-name="..Datenverarbeitung.." data-source-line="33" id="ent0009"><rect fill="#E8F8E8" height="74" rx="4" ry="4" style="stroke:#2C3E50;stroke-width:1;" width="414" x="407" y="273"/><text fill="#2C3E50" font-family="Helvetica" font-size="11" font-weight="bold" lengthAdjust="spacing" textLength="97.1899" x="565.405" y="283.4702">Datenverarbeitung</text></g><!--cluster **SOH-Berechnung**--><g class="cluster" data-qualified-name="..SOH-Berechnung.." data-source-line="40" id="ent0013"><rect fill="#FDE8E8" height="74" rx="4" ry="4" style="stroke:#2C3E50;stroke-width:1;" width="582" x="475" y="371"/><text fill="#2C3E50" font-family="Helvetica" font-size="11" font-weight="bold" lengthAdjust="spacing" textLength="91.6738" x="720.1631" y="381.4702">SOH-Berechnung</text></g><!--cluster **Ausgabe**--><g class="cluster" data-qualified-name="..Ausgabe.." data-source-line="48" id="ent0018"><rect fill="#F3E8FD" height="74" rx="4" ry="4" style="stroke:#2C3E50;stroke-width:1;" width="457" x="626" y="469"/><text fill="#2C3E50" font-family="Helvetica" font-size="11" font-weight="bold" lengthAdjust="spacing" textLength="46.4546" x="831.2727" y="479.4702">Ausgabe</text></g><!--entity car--><g class="entity" data-qualified-name="..Physische Messung...car" data-source-line="21" id="ent0003"><rect fill="#DBEAFE" height="28" rx="4" ry="4" style="stroke:#2C3E50;stroke-width:1;" width="97.043" x="28.48" y="107"/><text fill="#000000" font-family="Helvetica" font-size="11" lengthAdjust="spacing" textLength="77.043" x="38.48" y="118.4702">Elektrofahrzeug</text><text fill="#000000" font-family="Helvetica" font-size="11" lengthAdjust="spacing" textLength="48.2754" x="38.48" y="129.4702">(VW ID.4)</text></g><!--entity obd--><g class="entity" data-qualified-name="..Physische Messung...obd" data-source-line="22" id="ent0004"><rect fill="#DBEAFE" height="28" rx="4" ry="4" style="stroke:#2C3E50;stroke-width:1;" width="82.3638" x="160.82" y="107"/><text fill="#000000" font-family="Helvetica" font-size="11" lengthAdjust="spacing" textLength="53.7915" x="170.82" y="118.4702">OBD2-Port</text><text fill="#000000" font-family="Helvetica" font-size="11" lengthAdjust="spacing" textLength="62.3638" x="170.82" y="129.4702">(SAE J1962)</text></g><!--entity elm--><g class="entity" data-qualified-name="..Physische Messung...elm" data-source-line="23" id="ent0005"><rect fill="#DBEAFE" height="28" rx="4" ry="4" style="stroke:#2C3E50;stroke-width:1;" width="103.1606" x="278.42" y="107"/><text fill="#000000" font-family="Helvetica" font-size="11" lengthAdjust="spacing" textLength="83.1606" x="288.42" y="118.4702">ELM327-Adapter</text><text fill="#000000" font-family="Helvetica" font-size="11" lengthAdjust="spacing" textLength="53.8076" x="288.42" y="129.4702">(Bluetooth)</text></g><!--entity tablet--><g class="entity" data-qualified-name="..Physische Messung...tablet" data-source-line="24" id="ent0006"><rect fill="#DBEAFE" height="28" rx="4" ry="4" style="stroke:#2C3E50;stroke-width:1;" width="119.666" x="416.17" y="107"/><text fill="#000000" font-family="Helvetica" font-size="11" lengthAdjust="spacing" textLength="99.666" x="426.17" y="118.4702">Tablet / Smartphone</text><text fill="#000000" font-family="Helvetica" font-size="11" lengthAdjust="spacing" textLength="89.2515" x="426.17" y="129.4702">(Car Scanner Pro)</text></g><!--entity csv--><g class="entity" data-qualified-name="..Datenexport...csv" data-source-line="29" id="ent0008"><rect fill="#FEF3C7" height="28" rx="4" ry="4" style="stroke:#2C3E50;stroke-width:1;" width="75.0322" x="438.48" y="205"/><text fill="#000000" font-family="Helvetica" font-size="11" lengthAdjust="spacing" textLength="51.96" x="448.48" y="216.4702">CSV-Datei</text><text fill="#000000" font-family="Helvetica" font-size="11" lengthAdjust="spacing" textLength="55.0322" x="448.48" y="227.4702">(Rohdaten)</text></g><!--entity import--><g class="entity" data-qualified-name="..Datenverarbeitung...import" data-source-line="34" id="ent0010"><rect fill="#D1FAE5" height="28" rx="4" ry="4" style="stroke:#2C3E50;stroke-width:1;" width="106.8237" x="422.59" y="303"/><text fill="#000000" font-family="Helvetica" font-size="11" lengthAdjust="spacing" textLength="67.8477" x="432.59" y="314.4702">CSV-Import &amp;</text><text fill="#000000" font-family="Helvetica" font-size="11" lengthAdjust="spacing" textLength="86.8237" x="432.59" y="325.4702">Formaterkennung</text></g><!--entity charge--><g class="entity" data-qualified-name="..Datenverarbeitung...charge" data-source-line="35" id="ent0011"><rect fill="#D1FAE5" height="28" rx="4" ry="4" style="stroke:#2C3E50;stroke-width:1;" width="87.8853" x="564.06" y="303"/><text fill="#000000" font-family="Helvetica" font-size="11" lengthAdjust="spacing" textLength="67.8853" x="574.06" y="314.4702">Ladevorgang-</text><text fill="#000000" font-family="Helvetica" font-size="11" lengthAdjust="spacing" textLength="53.2061" x="574.06" y="325.4702">Erkennung</text></g><!--entity clean--><g class="entity" data-qualified-name="..Datenverarbeitung...clean" data-source-line="36" id="ent0012"><rect fill="#D1FAE5" height="28" rx="4" ry="4" style="stroke:#2C3E50;stroke-width:1;" width="117.2383" x="687.38" y="303"/><text fill="#000000" font-family="Helvetica" font-size="11" lengthAdjust="spacing" textLength="97.2383" x="697.38" y="314.4702">Datenbereinigung &amp;</text><text fill="#000000" font-family="Helvetica" font-size="11" lengthAdjust="spacing" textLength="60.543" x="697.38" y="325.4702">Interpolation</text></g><!--entity cap--><g class="entity" data-qualified-name="..SOH-Berechnung...cap" data-source-line="41" id="ent0014"><rect fill="#FEE2E2" height="28" rx="4" ry="4" style="stroke:#2C3E50;stroke-width:1;" width="104.3799" x="490.81" y="401"/><text fill="#000000" font-family="Helvetica" font-size="11" lengthAdjust="spacing" textLength="84.3799" x="500.81" y="412.4702">Kapazit&#228;tsbasiert</text><text fill="#000000" font-family="Helvetica" font-size="11" lengthAdjust="spacing" textLength="55.0107" x="500.81" y="423.4702">(Q/Q_nom)</text></g><!--entity energy--><g class="entity" data-qualified-name="..SOH-Berechnung...energy" data-source-line="42" id="ent0015"><rect fill="#FEE2E2" height="28" rx="4" ry="4" style="stroke:#2C3E50;stroke-width:1;" width="92.73" x="630.64" y="401"/><text fill="#000000" font-family="Helvetica" font-size="11" lengthAdjust="spacing" textLength="70.9307" x="640.64" y="412.4702">Energiebasiert</text><text fill="#000000" font-family="Helvetica" font-size="11" lengthAdjust="spacing" textLength="72.73" x="640.64" y="423.4702">(SOHe, SOHc)</text></g><!--entity resist--><g class="entity" data-qualified-name="..SOH-Berechnung...resist" data-source-line="43" id="ent0016"><rect fill="#FEE2E2" height="28" rx="4" ry="4" style="stroke:#2C3E50;stroke-width:1;" width="114.1499" x="757.93" y="401"/><text fill="#000000" font-family="Helvetica" font-size="11" lengthAdjust="spacing" textLength="94.1499" x="767.93" y="412.4702">Widerstandsbasiert</text><text fill="#000000" font-family="Helvetica" font-size="11" lengthAdjust="spacing" textLength="81.8984" x="767.93" y="423.4702">(SOH_R, HPPC)</text></g><!--entity adv--><g class="entity" data-qualified-name="..SOH-Berechnung...adv" data-source-line="44" id="ent0017"><rect fill="#FEE2E2" height="28" rx="4" ry="4" style="stroke:#2C3E50;stroke-width:1;" width="133.0669" x="907.47" y="401"/><text fill="#000000" font-family="Helvetica" font-size="11" lengthAdjust="spacing" textLength="91.7061" x="917.47" y="412.4702">Erweiterte Analyse</text><text fill="#000000" font-family="Helvetica" font-size="11" lengthAdjust="spacing" textLength="113.0669" x="917.47" y="423.4702">(ICA/DVA, T-Korrektur)</text></g><!--entity viz--><g class="entity" data-qualified-name="..Ausgabe...viz" data-source-line="49" id="ent0019"><rect fill="#EDE9FE" height="28" rx="4" ry="4" style="stroke:#2C3E50;stroke-width:1;" width="88.4814" x="641.76" y="499"/><text fill="#000000" font-family="Helvetica" font-size="11" lengthAdjust="spacing" textLength="68.4814" x="651.76" y="510.4702">Visualisierung</text><text fill="#000000" font-family="Helvetica" font-size="11" lengthAdjust="spacing" textLength="64.1738" x="651.76" y="521.4702">(Diagramme)</text></g><!--entity pdf--><g class="entity" data-qualified-name="..Ausgabe...pdf" data-source-line="50" id="ent0020"><rect fill="#EDE9FE" height="17" rx="4" ry="4" style="stroke:#2C3E50;stroke-width:1;" width="79.8984" x="765.05" y="504.5"/><text fill="#000000" font-family="Helvetica" font-size="11" lengthAdjust="spacing" textLength="59.8984" x="775.05" y="515.9702">PDF-Bericht</text></g><!--entity db--><g class="entity" data-qualified-name="..Ausgabe...db" data-source-line="51" id="ent0021"><rect fill="#EDE9FE" height="28" rx="4" ry="4" style="stroke:#2C3E50;stroke-width:1;" width="73.2061" x="880.4" y="499"/><text fill="#000000" font-family="Helvetica" font-size="11" lengthAdjust="spacing" textLength="53.2061" x="890.4" y="510.4702">Datenbank</text><text fill="#000000" font-family="Helvetica" font-size="11" lengthAdjust="spacing" textLength="40.9546" x="890.4" y="521.4702">(SQLite)</text></g><!--entity exp--><g class="entity" data-qualified-name="..Ausgabe...exp" data-source-line="52" id="ent0022"><rect fill="#EDE9FE" height="17" rx="4" ry="4" style="stroke:#2C3E50;stroke-width:1;" width="78.0723" x="988.96" y="504.5"/><text fill="#000000" font-family="Helvetica" font-size="11" lengthAdjust="spacing" textLength="58.0723" x="998.96" y="515.9702">CSV-Export</text></g><!--link car to obd--><g class="link" data-entity-1="ent0003" data-entity-2="ent0004" data-link-type="dependency" data-source-line="56" id="lnk23"><path d="M125.83,121 C137.33,121 142.84,121 154.34,121" fill="none" id="car-to-obd" style="stroke:#000000;stroke-width:1;"/><polygon fill="#000000" points="160.34,121,151.34,117,155.34,121,151.34,125,160.34,121" style="stroke:#000000;stroke-width:1;"/></g><!--link obd to elm--><g class="link" data-entity-1="ent0004" data-entity-2="ent0005" data-link-type="dependency" data-source-line="57" id="lnk24"><path d="M243.5,121 C254.99,121 260.48,121 271.96,121" fill="none" id="obd-to-elm" style="stroke:#000000;stroke-width:1;"/><polygon fill="#000000" points="277.96,121,268.96,117,272.96,121,268.96,125,277.96,121" style="stroke:#000000;stroke-width:1;"/></g><!--link elm to tablet--><g class="link" data-entity-1="ent0005" data-entity-2="ent0006" data-link-type="dependency" data-source-line="58" id="lnk25"><path d="M381.9,121 C393.17,121 398.44,121 409.72,121" fill="none" id="elm-to-tablet" style="stroke:#000000;stroke-width:1;"/><polygon fill="#000000" points="415.72,121,406.72,117,410.72,121,406.72,125,415.72,121" style="stroke:#000000;stroke-width:1;"/></g><!--link tablet to csv--><g class="link" data-entity-1="ent0006" data-entity-2="ent0008" data-link-type="dependency" data-source-line="60" id="lnk26"><path d="M476,135.35 C476,153.69 476,180.48 476,198.76" fill="none" id="tablet-to-csv" style="stroke:#000000;stroke-width:1;"/><polygon fill="#000000" points="476,204.76,480,195.76,476,199.76,472,195.76,476,204.76" style="stroke:#000000;stroke-width:1;"/></g><!--link csv to import--><g class="link" data-entity-1="ent0008" data-entity-2="ent0010" data-link-type="dependency" data-source-line="62" id="lnk27"><path d="M476,233.35 C476,251.69 476,278.48 476,296.76" fill="none" id="csv-to-import" style="stroke:#000000;stroke-width:1;"/><polygon fill="#000000" points="476,302.76,480,293.76,476,297.76,472,293.76,476,302.76" style="stroke:#000000;stroke-width:1;"/></g><!--link import to charge--><g class="link" data-entity-1="ent0010" data-entity-2="ent0011" data-link-type="dependency" data-source-line="63" id="lnk28"><path d="M529.88,317 C541.17,317 546.46,317 557.75,317" fill="none" id="import-to-charge" style="stroke:#000000;stroke-width:1;"/><polygon fill="#000000" points="563.75,317,554.75,313,558.75,317,554.75,321,563.75,317" style="stroke:#000000;stroke-width:1;"/></g><!--link charge to clean--><g class="link" data-entity-1="ent0011" data-entity-2="ent0012" data-link-type="dependency" data-source-line="64" id="lnk29"><path d="M652.2,317 C663.81,317 669.41,317 681.01,317" fill="none" id="charge-to-clean" style="stroke:#000000;stroke-width:1;"/><polygon fill="#000000" points="687.01,317,678.01,313,682.01,317,678.01,321,687.01,317" style="stroke:#000000;stroke-width:1;"/></g><!--link clean to cap--><g class="link" data-entity-1="ent0012" data-entity-2="ent0014" data-link-type="dependency" data-source-line="66" id="lnk30"><path d="M722.83,331.45 C707.92,339.5 687.87,349.27 669,355 C644.94,362.31 636.29,353.54 613,363 C591.41,371.77 574.7666,384.6138 561.4766,396.5338" fill="none" id="clean-to-cap" style="stroke:#000000;stroke-width:1;"/><polygon fill="#000000" points="557.01,400.54,566.3807,397.5085,560.7322,397.2015,561.0391,391.553,557.01,400.54" style="stroke:#000000;stroke-width:1;"/></g><!--link clean to energy--><g class="link" data-entity-1="ent0012" data-entity-2="ent0015" data-link-type="dependency" data-source-line="67" id="lnk31"><path d="M736.41,331.35 C723.22,349.69 703.152,377.6081 690.012,395.8881" fill="none" id="clean-to-energy" style="stroke:#000000;stroke-width:1;"/><polygon fill="#000000" points="686.51,400.76,695.011,395.7868,689.4284,396.7001,688.5151,391.1174,686.51,400.76" style="stroke:#000000;stroke-width:1;"/></g><!--link clean to resist--><g class="link" data-entity-1="ent0012" data-entity-2="ent0016" data-link-type="dependency" data-source-line="68" id="lnk32"><path d="M755.59,331.35 C768.78,349.69 788.848,377.6081 801.988,395.8881" fill="none" id="clean-to-resist" style="stroke:#000000;stroke-width:1;"/><polygon fill="#000000" points="805.49,400.76,803.4849,391.1174,802.5716,396.7001,796.989,395.7868,805.49,400.76" style="stroke:#000000;stroke-width:1;"/></g><!--link clean to adv--><g class="link" data-entity-1="ent0012" data-entity-2="ent0017" data-link-type="dependency" data-source-line="69" id="lnk33"><path d="M799.8,331.46 C827.37,339.19 861.12,349.95 890,363 C913.48,373.6 933.5104,386.078 950.0804,397.288" fill="none" id="clean-to-adv" style="stroke:#000000;stroke-width:1;"/><polygon fill="#000000" points="955.05,400.65,949.837,392.2939,950.9087,397.8483,945.3543,398.92,955.05,400.65" style="stroke:#000000;stroke-width:1;"/></g><!--link cap to viz--><g class="link" data-entity-1="ent0014" data-entity-2="ent0019" data-link-type="dependency" data-source-line="71" id="lnk34"><path d="M562.88,429.35 C590.2,447.69 634.0679,477.1366 661.3079,495.4166" fill="none" id="cap-to-viz" style="stroke:#000000;stroke-width:1;"/><polygon fill="#000000" points="666.29,498.76,661.0457,490.4235,662.1382,495.9738,656.5879,497.0664,666.29,498.76" style="stroke:#000000;stroke-width:1;"/></g><!--link energy to viz--><g class="link" data-entity-1="ent0015" data-entity-2="ent0019" data-link-type="dependency" data-source-line="72" id="lnk35"><path d="M678.25,429.35 C679.97,447.69 682.4912,474.5061 684.2012,492.7861" fill="none" id="energy-to-viz" style="stroke:#000000;stroke-width:1;"/><polygon fill="#000000" points="684.76,498.76,687.9044,489.4266,684.2943,493.7817,679.9391,490.1717,684.76,498.76" style="stroke:#000000;stroke-width:1;"/></g><!--link resist to pdf--><g class="link" data-entity-1="ent0016" data-entity-2="ent0020" data-link-type="dependency" data-source-line="73" id="lnk36"><path d="M813.61,429.35 C811.5,449.65 808.1643,481.6826 806.4443,498.1226" fill="none" id="resist-to-pdf" style="stroke:#000000;stroke-width:1;"/><polygon fill="#000000" points="805.82,504.09,810.7348,495.5551,806.3403,499.1171,802.7782,494.7226,805.82,504.09" style="stroke:#000000;stroke-width:1;"/></g><!--link adv to db--><g class="link" data-entity-1="ent0017" data-entity-2="ent0021" data-link-type="dependency" data-source-line="74" id="lnk37"><path d="M966.07,429.35 C955.18,447.69 938.7724,475.3204 927.9224,493.6004" fill="none" id="adv-to-db" style="stroke:#000000;stroke-width:1;"/><polygon fill="#000000" points="924.86,498.76,932.8934,493.0622,927.412,494.4603,926.0139,488.979,924.86,498.76" style="stroke:#000000;stroke-width:1;"/></g><!--link viz to pdf--><g class="link" data-entity-1="ent0019" data-entity-2="ent0020" data-link-type="dependency" data-source-line="76" id="lnk38"><path d="M730.62,513 C741.96,513 747.29,513 758.62,513" fill="none" id="viz-to-pdf" style="stroke:#000000;stroke-width:1;"/><polygon fill="#000000" points="764.62,513,755.62,509,759.62,513,755.62,517,764.62,513" style="stroke:#000000;stroke-width:1;"/></g><!--link pdf to db--><g class="link" data-entity-1="ent0020" data-entity-2="ent0021" data-link-type="dependency" data-source-line="77" id="lnk39"><path d="M845.25,513 C856.83,513 862.42,513 874,513" fill="none" id="pdf-to-db" style="stroke:#000000;stroke-width:1;"/><polygon fill="#000000" points="880,513,871,509,875,513,871,517,880,513" style="stroke:#000000;stroke-width:1;"/></g><!--link db to exp--><g class="link" data-entity-1="ent0021" data-entity-2="ent0022" data-link-type="dependency" data-source-line="78" id="lnk40"><path d="M953.86,513 C965.44,513 971.03,513 982.61,513" fill="none" id="db-to-exp" style="stroke:#000000;stroke-width:1;"/><polygon fill="#000000" points="988.61,513,979.61,509,983.61,513,979.61,517,988.61,513" style="stroke:#000000;stroke-width:1;"/></g><?plantuml-src VLJRRjiu47tNLx09qEu6qQPnscqA505iIsgoJLidBjoN0CL8caY49L8WAITnqJ_fu_v9Vwn3KL9anxjwqt3EdBcScMScnn9PLG0NdbvoKO62aiMGB3CbQv5EPI4Lsu-QR-2HuYtKXOcaC9-08fnZiKB34zZjC-ThPCV7WqUTGohlkCZOBHGQ1o_NZbS9LEpK6pmeJ0o8h43stMFqJQHAKRKPZgOduUkNZTqIRbf_3CCaeDB_YK2-XXiYUHUVlKSDfT4Fsc3f__ePez8yoSsxe_ZiHYnaoIB8rHhhZAthaiq_d_kXoZ0MN7lU2-RxFZidiZjGo8xOB7_GN2UvjNkFjUmT77Glo3wYrhN83Wxss7vu6hsAWZRJ9kcziC2bKVAsPRqHVoo-ielWhrT_xZ7Gredj1vDm78K3qET9CF9dKXboduz3zi_nsxz73Y3ZT0SWlFnuCdhZZrEe32f2JOeQZPGcToWioXseBn0NQAZEUGdALBaKID0ffJHFGDXXpfHq0OnpxMByw9eLW461znNb-hH9WyUcFQJ7a-bcUwRpXM_TE15VoporYBOpUaM8a11ljkXMg435o0sr_Jz8XoxTP4x3qoVK5sMJ-VCR4KbL4b8jKGW2DIbmzxeV74VZyFK0UWafhgJAYDI_4U46ACc11BK3r2H6UaGkU6PJ9zOBGPILBC1mAHoyG10zkY_S2dKie7ZG-BHa-pYXm4akkdgZ8DokzmDKiERcrxz6nw0vDkgwEhhw9cJPYR6oBGz7uMYeBH92nl4HGtHuQ3DAMd5PXuSToA-SLbLJdgdUG7-xFcJdizdKmHNI9fbTnEgE9aWeP6tf1B-OZe-2nVYGVV4_IALekMhbua2wweFqVUkM-sdJnhNE84RNhHFInwOm5rpNK72RDVMKY0CE6TsY4XtRYgz9LK7uTcEZPa5a9s4lJkDLfRSxl9mIG2njEwukgKONCurtE5kPXiqEkMRVLxrJNsLKoBkcGdjEVCMptFXdzbHuzbpq1he2dhq4lS5jDLrFjzq-dNT1PbezpxFxrndS8dZjFlHm9tMlLVoZsKgO0ZHAxcD2jMLnijaoEZ5i6Mco58x4sHce-Lwhkg6fLL9dekPxLXJTVnfxdXrRdwXri1Fg3UH1CtZirttb_GO0?></g></svg>