<?plantuml 1.2026.1?><svg xmlns="http://www.w3.org/2000/svg" xmlns:xlink="http://www.w3.org/1999/xlink" contentStyleType="text/css" data-diagram-type="ACTIVITY" height="1424px" preserveAspectRatio="none" style="width:694px;height:1424px;background:#FFFFFF;" version="1.1" viewBox="0 0 694 1424" width="694px" zoomAndPan="magnify"><title>&lt;b&gt;ICA/DVA-Analyseprozess&lt;/b&gt;
Inkrementelle Kapazit&#228;ts- und Differenzielle Spannungsanalyse</title><defs/><g><g class="title" data-source-line="8"><text fill="#000000" font-family="Helvetica" font-size="22" font-weight="bold" lengthAdjust="spacing" textLength="265.2998" x="213.0483" y="31.9404">ICA/DVA-Analyseprozess</text><text fill="#000000" font-family="Helvetica" font-size="22" font-weight="bold" lengthAdjust="spacing" textLength="661.3965" x="15" y="53.9404">Inkrementelle Kapazit&#228;ts- und Differenzielle Spannungsanalyse</text></g><ellipse cx="232.4543" cy="80" fill="#FFFFFF" rx="10" ry="10" style="stroke:#000000;stroke-width:1;"/><rect fill="#FFFFFF" height="42" rx="4" ry="4" style="stroke:#000000;stroke-width:1;" width="160.6099" x="152.1494" y="110"/><text fill="#000000" font-family="Helvetica" font-size="11" lengthAdjust="spacing" textLength="133.939" x="162.1494" y="128.4702">Lade-Rohdaten empfangen</text><text fill="#000000" font-family="Helvetica" font-size="11" lengthAdjust="spacing" textLength="140.6099" x="162.1494" y="139.4702">(Spannung U, Strom I, Zeit t)</text><rect fill="#FFFFFF" height="42" rx="4" ry="4" style="stroke:#000000;stroke-width:1;" width="180.8105" x="142.0491" y="172"/><text fill="#000000" font-family="Helvetica" font-size="11" lengthAdjust="spacing" textLength="110.6875" x="152.0491" y="190.4702">Auf Ladeperiode filtern</text><text fill="#000000" font-family="Helvetica" font-size="11" lengthAdjust="spacing" textLength="160.8105" x="152.0491" y="201.4702">(charging_start &#8594; charging_end)</text><rect fill="#FFFFFF" height="42" rx="4" ry="4" style="stroke:#000000;stroke-width:1;" width="131.9014" x="166.5037" y="282"/><text fill="#000000" font-family="Helvetica" font-size="11" lengthAdjust="spacing" textLength="106.4121" x="176.5037" y="300.4702">Analyse abgebrochen</text><text fill="#000000" font-family="Helvetica" font-size="11" lengthAdjust="spacing" textLength="111.9014" x="176.5037" y="311.4702">(unzureichende Daten)</text><ellipse cx="232.4543" cy="359.5" fill="none" rx="11" ry="11" style="stroke:#000000;stroke-width:1;"/><ellipse cx="232.4543" cy="359.5" fill="#FFFFFF" rx="6" ry="6" style="stroke:#000000;stroke-width:1;"/><polygon fill="#FFFFFF" points="186.0132,234,278.8955,234,290.8955,246,278.8955,258,186.0132,258,174.0132,246,186.0132,234" style="stroke:#000000;stroke-width:1;"/><text fill="#000000" font-family="Helvetica" font-size="11" lengthAdjust="spacing" textLength="20.7969" x="236.4543" y="266.4702">nein</text><text fill="#000000" font-family="Helvetica" font-size="11" lengthAdjust="spacing" textLength="92.8823" x="186.0132" y="248.9702">&#8805; 20 Datenpunkte?</text><text fill="#000000" font-family="Helvetica" font-size="11" lengthAdjust="spacing" textLength="8.5615" x="290.8955" y="243.4702">ja</text><rect fill="#FFFFFF" height="53" rx="4" ry="4" style="stroke:#000000;stroke-width:1;" width="167.3828" x="148.7629" y="412.5"/><text fill="#000000" font-family="Helvetica" font-size="11" lengthAdjust="spacing" textLength="147.3828" x="158.7629" y="430.9702">Kumulierte Ladung berechnen</text><text fill="#000000" font-family="Helvetica" font-size="11" font-weight="bold" lengthAdjust="spacing" textLength="68.7339" x="158.7629" y="441.9702">Q(t) = &#8747;|I(t)| dt</text><text fill="#000000" font-family="Helvetica" font-size="11" lengthAdjust="spacing" textLength="20.7808" x="230.553" y="441.9702">(Ah)</text><text fill="#000000" font-family="Helvetica" font-size="11" lengthAdjust="spacing" textLength="146.126" x="158.7629" y="452.9702">(Trapezregel, Zeit in Stunden)</text><rect fill="#FFFFFF" height="446.5" rx="4" ry="4" style="stroke:#000000;stroke-width:1;" width="421.8872" x="109.7322" y="475.5"/><path d="M203.4783,475.5 L203.4783,479.5 L193.4783,489.5 L109.7322,489.5" fill="none" style="stroke:#000000;stroke-width:1;"/><text fill="#000000" font-family="Helvetica" font-size="11" lengthAdjust="spacing" textLength="83.7461" x="112.7322" y="484.9702">ICA: dQ/dV vs. U</text><rect fill="#FFFFFF" height="31" rx="4" ry="4" style="stroke:#000000;stroke-width:1;" width="212.0112" x="126.4487" y="506.5"/><text fill="#000000" font-family="Helvetica" font-size="11" lengthAdjust="spacing" textLength="192.0112" x="136.4487" y="524.9702">Nach Spannung sortieren (aufsteigend)</text><rect fill="#FFFFFF" height="31" rx="4" ry="4" style="stroke:#000000;stroke-width:1;" width="199.1851" x="132.8618" y="557.5"/><text fill="#000000" font-family="Helvetica" font-size="11" lengthAdjust="spacing" textLength="179.1851" x="142.8618" y="575.9702">Doppelte Spannungswerte entfernen</text><rect fill="#FFFFFF" height="42" rx="4" ry="4" style="stroke:#000000;stroke-width:1;" width="220.5674" x="122.1707" y="608.5"/><text fill="#000000" font-family="Helvetica" font-size="11" lengthAdjust="spacing" textLength="200.5674" x="132.1707" y="626.9702">Auf 500 gleichm&#228;&#223;ige Spannungsschritte</text><text fill="#000000" font-family="Helvetica" font-size="11" lengthAdjust="spacing" textLength="157.7437" x="132.1707" y="637.9702">resamples (lineare Interpolation)</text><path d="M348.6658,670 L348.6658,687.5 L328.6658,691.5 L348.6658,695.5 L348.6658,713 A0,0 0 0 0 348.6658,713 L521.6194,713 A0,0 0 0 0 521.6194,713 L521.6194,680 L511.6194,670 L348.6658,670 A0,0 0 0 0 348.6658,670" fill="#FFFFFF" style="stroke:#000000;stroke-width:1;"/><path d="M511.6194,670 L511.6194,680 L521.6194,680 L511.6194,670" fill="#FFFFFF" style="stroke:#000000;stroke-width:1;"/><text fill="#000000" font-family="Helvetica" font-size="11" lengthAdjust="spacing" textLength="122.8799" x="354.6658" y="683.4702">Fenster wird automatisch</text><text fill="#000000" font-family="Helvetica" font-size="11" lengthAdjust="spacing" textLength="139.439" x="354.6658" y="694.4702">angepasst wenn Datenl&#228;nge</text><text fill="#000000" font-family="Helvetica" font-size="11" lengthAdjust="spacing" textLength="151.9536" x="354.6658" y="705.4702">&lt; 51 Punkte (min. 5, ungerade)</text><rect fill="#FFFFFF" height="42" rx="4" ry="4" style="stroke:#000000;stroke-width:1;" width="192.4229" x="136.2429" y="670.5"/><text fill="#000000" font-family="Helvetica" font-size="11" lengthAdjust="spacing" textLength="172.4229" x="146.2429" y="688.9702">Savitzky-Golay-Gl&#228;ttung anwenden</text><text fill="#000000" font-family="Helvetica" font-size="11" font-weight="bold" lengthAdjust="spacing" textLength="147.9253" x="146.2429" y="699.9702">Fenster: 51, Polynomgrad: 3</text><rect fill="#FFFFFF" height="42" rx="4" ry="4" style="stroke:#000000;stroke-width:1;" width="120.9121" x="171.9983" y="733"/><text fill="#000000" font-family="Helvetica" font-size="11" lengthAdjust="spacing" textLength="100.9121" x="181.9983" y="751.4702">Ableitung berechnen</text><text fill="#000000" font-family="Helvetica" font-size="11" font-weight="bold" lengthAdjust="spacing" textLength="86.48" x="181.9983" y="762.4702">dQ/dV = &#916;Q / &#916;U</text><rect fill="#FFFFFF" height="53" rx="4" ry="4" style="stroke:#000000;stroke-width:1;" width="225.4443" x="119.7322" y="795"/><text fill="#000000" font-family="Helvetica" font-size="11" lengthAdjust="spacing" textLength="205.4443" x="129.7322" y="813.4702">Peak-Erkennung (scipy.signal.find_peaks)</text><text fill="#000000" font-family="Helvetica" font-size="11" lengthAdjust="spacing" textLength="80.0186" x="129.7322" y="824.4702">Prominenz &#8805; 0,1</text><text fill="#000000" font-family="Helvetica" font-size="11" lengthAdjust="spacing" textLength="133.3105" x="129.7322" y="835.4702">Mindestabstand: 20 Punkte</text><rect fill="#FFFFFF" height="42" rx="4" ry="4" style="stroke:#000000;stroke-width:1;" width="153.3105" x="155.7991" y="868"/><text fill="#000000" font-family="Helvetica" font-size="11" lengthAdjust="spacing" textLength="103.3237" x="165.7991" y="886.4702">ICA-Peaks speichern</text><text fill="#000000" font-family="Helvetica" font-size="11" lengthAdjust="spacing" textLength="133.3105" x="165.7991" y="897.4702">(Spannungsposition, H&#246;he)</text><rect fill="#FFFFFF" height="238" rx="4" ry="4" style="stroke:#000000;stroke-width:1;" width="252.7598" x="106.0745" y="932"/><path d="M204.7136,932 L204.7136,936 L194.7136,946 L106.0745,946" fill="none" style="stroke:#000000;stroke-width:1;"/><text fill="#000000" font-family="Helvetica" font-size="11" lengthAdjust="spacing" textLength="88.6392" x="109.0745" y="941.4702">DVA: dV/dQ vs. Q</text><rect fill="#FFFFFF" height="31" rx="4" ry="4" style="stroke:#000000;stroke-width:1;" width="188.7544" x="138.0771" y="963"/><text fill="#000000" font-family="Helvetica" font-size="11" lengthAdjust="spacing" textLength="168.7544" x="148.0771" y="981.4702">Nach kumulierter Ladung sortieren</text><rect fill="#FFFFFF" height="31" rx="4" ry="4" style="stroke:#000000;stroke-width:1;" width="232.7598" x="116.0745" y="1014"/><text fill="#000000" font-family="Helvetica" font-size="11" lengthAdjust="spacing" textLength="212.7598" x="126.0745" y="1032.4702">Auf 500 gleichm&#228;&#223;ige Q-Schritte resamples</text><rect fill="#FFFFFF" height="31" rx="4" ry="4" style="stroke:#000000;stroke-width:1;" width="192.4229" x="136.2429" y="1065"/><text fill="#000000" font-family="Helvetica" font-size="11" lengthAdjust="spacing" textLength="172.4229" x="146.2429" y="1083.4702">Savitzky-Golay-Gl&#228;ttung anwenden</text><rect fill="#FFFFFF" height="42" rx="4" ry="4" style="stroke:#000000;stroke-width:1;" width="120.9121" x="171.9983" y="1116"/><text fill="#000000" font-family="Helvetica" font-size="11" lengthAdjust="spacing" textLength="100.9121" x="181.9983" y="1134.4702">Ableitung berechnen</text><text fill="#000000" font-family="Helvetica" font-size="11" font-weight="bold" lengthAdjust="spacing" textLength="86.48" x="181.9983" y="1145.4702">dV/dQ = &#916;U / &#916;Q</text><rect fill="#FFFFFF" height="196" rx="4" ry="4" style="stroke:#000000;stroke-width:1;" width="507.9429" x="93.2268" y="1180"/><path d="M220.0266,1180 L220.0266,1184 L210.0266,1194 L93.2268,1194" fill="none" style="stroke:#000000;stroke-width:1;"/><text fill="#000000" font-family="Helvetica" font-size="11" lengthAdjust="spacing" textLength="116.7998" x="96.2268" y="1189.4702">Degradationsbewertung</text><path d="M381.6819,1204 L381.6819,1254.5 L361.6819,1258.5 L381.6819,1262.5 L381.6819,1313 A0,0 0 0 0 381.6819,1313 L591.1697,1313 A0,0 0 0 0 591.1697,1313 L591.1697,1214 L581.1697,1204 L381.6819,1204 A0,0 0 0 0 381.6819,1204" fill="#FFFFFF" style="stroke:#000000;stroke-width:1;"/><path d="M581.1697,1204 L581.1697,1214 L591.1697,1214 L581.1697,1204" fill="#FFFFFF" style="stroke:#000000;stroke-width:1;"/><text fill="#000000" font-family="Helvetica" font-size="11" font-weight="bold" lengthAdjust="spacing" textLength="74.5562" x="387.6819" y="1217.4702">Interpretation:</text><text fill="#000000" font-family="Helvetica" font-size="11" lengthAdjust="spacing" textLength="161.0093" x="387.6819" y="1228.4702">&#8226; Peak-Verschiebung zu h&#246;heren</text><text fill="#000000" font-family="Helvetica" font-size="11" lengthAdjust="spacing" textLength="139.439" x="393.7942" y="1239.4702">Spannungen &#8594; Degradation</text><text fill="#000000" font-family="Helvetica" font-size="11" lengthAdjust="spacing" textLength="188.4878" x="387.6819" y="1250.4702">&#8226; Peak-H&#246;he sinkt &#8594; Kapazit&#228;tsverlust</text><text fill="#000000" font-family="Helvetica" font-size="11" lengthAdjust="spacing" textLength="149.3809" x="387.6819" y="1261.4702">&#8226; Neue/verschwindende Peaks</text><text fill="#000000" font-family="Helvetica" font-size="11" lengthAdjust="spacing" textLength="97.8506" x="393.7942" y="1272.4702">&#8594; Phasen&#228;nderung</text><text fill="#000000" font-family="Helvetica" font-size="11" lengthAdjust="spacing" textLength="3.0562" x="387.6819" y="1283.4702">&#160;</text><text fill="#000000" font-family="Helvetica" font-size="11" font-weight="bold" lengthAdjust="spacing" textLength="147.9683" x="387.6819" y="1294.4702">Peaks gespeichert als JSON</text><text fill="#000000" font-family="Helvetica" font-size="11" lengthAdjust="spacing" textLength="151.0352" x="387.6819" y="1305.4702">in Datenbank (ica_peaks_json)</text><rect fill="#FFFFFF" height="31" rx="4" ry="4" style="stroke:#000000;stroke-width:1;" width="258.4551" x="103.2268" y="1243"/><text fill="#000000" font-family="Helvetica" font-size="11" lengthAdjust="spacing" textLength="238.4551" x="113.2268" y="1261.4702">Peak-Positionen &#252;ber mehrere Tests vergleichen</text><rect fill="#FFFFFF" height="31" rx="4" ry="4" style="stroke:#000000;stroke-width:1;" width="180.1714" x="142.3687" y="1333"/><text fill="#000000" font-family="Helvetica" font-size="11" lengthAdjust="spacing" textLength="160.1714" x="152.3687" y="1351.4702">ICA/DVA-Diagramme generieren</text><ellipse cx="232.4543" cy="1407" fill="none" rx="11" ry="11" style="stroke:#000000;stroke-width:1;"/><ellipse cx="232.4543" cy="1407" fill="#FFFFFF" rx="6" ry="6" style="stroke:#000000;stroke-width:1;"/><line style="stroke:#000000;stroke-width:1;" x1="232.4543" x2="232.4543" y1="90" y2="110"/><polygon fill="#000000" points="228.4543,100,232.4543,110,236.4543,100,232.4543,104" style="stroke:#000000;stroke-width:1;"/><line style="stroke:#000000;stroke-width:1;" x1="232.4543" x2="232.4543" y1="152" y2="172"/><polygon fill="#000000" points="228.4543,162,232.4543,172,236.4543,162,232.4543,166" style="stroke:#000000;stroke-width:1;"/><line style="stroke:#000000;stroke-width:1;" x1="232.4543" x2="232.4543" y1="324" y2="348.5"/><polygon fill="#000000" points="228.4543,338.5,232.4543,348.5,236.4543,338.5,232.4543,342.5" style="stroke:#000000;stroke-width:1;"/><line style="stroke:#000000;stroke-width:1;" x1="232.4543" x2="232.4543" y1="258" y2="282"/><polygon fill="#000000" points="228.4543,272,232.4543,282,236.4543,272,232.4543,276" style="stroke:#000000;stroke-width:1;"/><line style="stroke:#000000;stroke-width:1;" x1="290.8955" x2="308.405" y1="246" y2="246"/><polygon fill="#000000" points="304.405,318.5,308.405,328.5,312.405,318.5,308.405,322.5" style="stroke:#000000;stroke-width:1;"/><line style="stroke:#000000;stroke-width:1;" x1="308.405" x2="308.405" y1="246" y2="392.5"/><line style="stroke:#000000;stroke-width:1;" x1="308.405" x2="232.4543" y1="392.5" y2="392.5"/><line style="stroke:#000000;stroke-width:1;" x1="232.4543" x2="232.4543" y1="392.5" y2="412.5"/><polygon fill="#000000" points="228.4543,402.5,232.4543,412.5,236.4543,402.5,232.4543,406.5" style="stroke:#000000;stroke-width:1;"/><line style="stroke:#000000;stroke-width:1;" x1="232.4543" x2="232.4543" y1="214" y2="234"/><polygon fill="#000000" points="228.4543,224,232.4543,234,236.4543,224,232.4543,228" style="stroke:#000000;stroke-width:1;"/><line style="stroke:#000000;stroke-width:1;" x1="232.4543" x2="232.4543" y1="537.5" y2="557.5"/><polygon fill="#000000" points="228.4543,547.5,232.4543,557.5,236.4543,547.5,232.4543,551.5" style="stroke:#000000;stroke-width:1;"/><line style="stroke:#000000;stroke-width:1;" x1="232.4543" x2="232.4543" y1="588.5" y2="608.5"/><polygon fill="#000000" points="228.4543,598.5,232.4543,608.5,236.4543,598.5,232.4543,602.5" style="stroke:#000000;stroke-width:1;"/><line style="stroke:#000000;stroke-width:1;" x1="232.4543" x2="232.4543" y1="650.5" y2="670.5"/><polygon fill="#000000" points="228.4543,660.5,232.4543,670.5,236.4543,660.5,232.4543,664.5" style="stroke:#000000;stroke-width:1;"/><line style="stroke:#000000;stroke-width:1;" x1="232.4543" x2="232.4543" y1="712.5" y2="733"/><polygon fill="#000000" points="228.4543,723,232.4543,733,236.4543,723,232.4543,727" style="stroke:#000000;stroke-width:1;"/><line style="stroke:#000000;stroke-width:1;" x1="232.4543" x2="232.4543" y1="775" y2="795"/><polygon fill="#000000" points="228.4543,785,232.4543,795,236.4543,785,232.4543,789" style="stroke:#000000;stroke-width:1;"/><line style="stroke:#000000;stroke-width:1;" x1="232.4543" x2="232.4543" y1="848" y2="868"/><polygon fill="#000000" points="228.4543,858,232.4543,868,236.4543,858,232.4543,862" style="stroke:#000000;stroke-width:1;"/><line style="stroke:#000000;stroke-width:1;" x1="232.4543" x2="232.4543" y1="465.5" y2="506.5"/><polygon fill="#000000" points="228.4543,496.5,232.4543,506.5,236.4543,496.5,232.4543,500.5" style="stroke:#000000;stroke-width:1;"/><line style="stroke:#000000;stroke-width:1;" x1="232.4543" x2="232.4543" y1="994" y2="1014"/><polygon fill="#000000" points="228.4543,1004,232.4543,1014,236.4543,1004,232.4543,1008" style="stroke:#000000;stroke-width:1;"/><line style="stroke:#000000;stroke-width:1;" x1="232.4543" x2="232.4543" y1="1045" y2="1065"/><polygon fill="#000000" points="228.4543,1055,232.4543,1065,236.4543,1055,232.4543,1059" style="stroke:#000000;stroke-width:1;"/><line style="stroke:#000000;stroke-width:1;" x1="232.4543" x2="232.4543" y1="1096" y2="1116"/><polygon fill="#000000" points="228.4543,1106,232.4543,1116,236.4543,1106,232.4543,1110" style="stroke:#000000;stroke-width:1;"/><line style="stroke:#000000;stroke-width:1;" x1="232.4543" x2="232.4543" y1="910" y2="963"/><polygon fill="#000000" points="228.4543,953,232.4543,963,236.4543,953,232.4543,957" style="stroke:#000000;stroke-width:1;"/><line style="stroke:#000000;stroke-width:1;" x1="232.4543" x2="232.4543" y1="1274" y2="1333"/><polygon fill="#000000" points="228.4543,1323,232.4543,1333,236.4543,1323,232.4543,1327" style="stroke:#000000;stroke-width:1;"/><line style="stroke:#000000;stroke-width:1;" x1="232.4543" x2="232.4543" y1="1158" y2="1243"/><polygon fill="#000000" points="228.4543,1233,232.4543,1243,236.4543,1233,232.4543,1237" style="stroke:#000000;stroke-width:1;"/><line style="stroke:#000000;stroke-width:1;" x1="232.4543" x2="232.4543" y1="1364" y2="1396"/><polygon fill="#000000" points="228.4543,1386,232.4543,1396,236.4543,1386,232.4543,1390" style="stroke:#000000;stroke-width:1;"/><?plantuml-src ZLNFRnj56BtlN_5HBclBZXDGfCf9Ywo6qBGGxBh90KMAPhtVxawz--rgPZPHJ2jnGd15t95GEN7dn2rt_eZy9RoPTLmNgCHAjkoPxyVxtdip-v4hk69gIgKbiaijZJAgeaGjbhcfMqcVr6LjwEFZy6n5f9ofjdJ7jRXJXGfFkRnYfnVglsFcUiMqjxUrQGkLrjTQSifKQNbhvqNNrmWRUXX5JhkIwJ1vVF9aCZewdmmdeieRousfLspjuIXvV24diZGOH1oN27wk6hNIxlQjiqD2CJhIMSQ6PQN3_hnH8gtaLdMbeiWwPLmKZRzKAGzVr4Mg70jnrMHASfOBYUzpw6n0SsVgYau6z0rhHwvtWCn9cv7FRjZeEcNATEdO-Cn5eKoEGIz34xhx_YVQBB6aFbjd5D_z-1jziaj7ldFJojBnPps2F4BnAzMB62HHBAob5n6UyPe6KadEYQaNHO3PogerhFq_W0Z5qC0dM5St4LPr1hJFswejDHl77hGVAm4_Yq9yaNv_5hiUFQAx7tv_VOAVhobr_Jx5awA75Y-DQdXbEETopO0MK0AUGwy8Aa8pNGizW6HZIcUZz9okx0wTFQ1lqVnKBOgD1cHhX7jnA5PjPXthl6DbV5Gt3OF5TtfT1yIG6Me2wa57-_xkBkMb7xgwVNlx2_BVPTX5ORHpV266hQgQaYt5fHPMXka4VZ5DNIgFDgWuLrVQhPOtmo-mYkyI7d8UfP9hpsXWvvW5CCsOzlS6DAtB6wchtAXqJ9_s-mUHrC1eT5uuyBwEfMjjKbAjgoiq0oXiUMSrobf7A2sTLkY7LMmUeZXDWmqehhJiqFu0LiuPVRZdTIJVnnilmUZkNn9sh3-YltwUqGZVPnvQD9woMWu_Dqlko8_jGZStErRdSDDEfYMzR11XeVCK7WTFiYBlpDt1teLyXNs6YnDy1EF2hXr4NnbQ3trrIxO91ZJRnyOsjGsc6D3JspyAzco_USyhEDhmolaedGMlpBQyijourTpRTUEQ3tjWDfolnQUDzWV_G-A33tCQq7bEpmAdiy3fFyPWRuNWA9kmDopATBC4xgTh7k3tspzHdIek39hGIp1hwOfDDuR7yPwJ-ltEhePTg3xkzx5wzzsl5EgUiu6jD2SUzQgbmhCCViBPlrS1JVtriuLnkqGGXgo6eY5iwne5hBArRXrzoYsFhaB3Qsy9VzK4wKCpdpejb6M1cLCsw1i5_9qxShxtXoFS_FHi_lLf64Mlpq2YP4anNYMT5IzVMHpERSVVlmYEjC8S5Tu-60pNRcS7hqUuw_u6?></g></svg>