<?plantuml 1.2026.1?><svg xmlns="http://www.w3.org/2000/svg" xmlns:xlink="http://www.w3.org/1999/xlink" contentStyleType="text/css" data-diagram-type="ACTIVITY" height="1355px" preserveAspectRatio="none" style="width:636px;height:1355px;background:#FFFFFF;" version="1.1" viewBox="0 0 636 1355" width="636px" zoomAndPan="magnify"><title>&lt;b&gt;HPPC-Methode - Innenwiderstand-Extraktion&lt;/b&gt;
DC-Puls-Analyse zur SOH_R-Berechnung</title><defs/><g><g class="title" data-source-line="8"><text fill="#000000" font-family="Helvetica" font-size="22" font-weight="bold" lengthAdjust="spacing" textLength="468.1445" x="82.6809" y="31.9404">HPPC-Methode - Innenwiderstand-Extraktion</text><text fill="#000000" font-family="Helvetica" font-size="22" font-weight="bold" lengthAdjust="spacing" textLength="433.9629" x="99.7717" y="53.9404">DC-Puls-Analyse zur SOH_R-Berechnung</text></g><ellipse cx="341.032" cy="80" fill="#FFFFFF" rx="10" ry="10" style="stroke:#000000;stroke-width:1;"/><rect fill="#FFFFFF" height="42" rx="4" ry="4" style="stroke:#000000;stroke-width:1;" width="153.939" x="264.0625" y="110"/><text fill="#000000" font-family="Helvetica" font-size="11" lengthAdjust="spacing" textLength="133.939" x="274.0625" y="128.4702">Lade-Rohdaten empfangen</text><text fill="#000000" font-family="Helvetica" font-size="11" lengthAdjust="spacing" textLength="117.3853" x="274.0625" y="139.4702">(Spannung, Strom, Zeit)</text><rect fill="#FFFFFF" height="53" rx="4" ry="4" style="stroke:#000000;stroke-width:1;" width="172.1685" x="254.9478" y="172"/><text fill="#000000" font-family="Helvetica" font-size="11" lengthAdjust="spacing" textLength="146.7275" x="264.9478" y="190.4702">Beste Stromspalte bestimmen</text><text fill="#000000" font-family="Helvetica" font-size="11" lengthAdjust="spacing" textLength="152.1685" x="264.9478" y="201.4702">(Auto-Erkennung: &#8805; 100 Werte,</text><text fill="#000000" font-family="Helvetica" font-size="11" lengthAdjust="spacing" textLength="74.4971" x="264.9478" y="212.4702">|I_max| &gt; 20 A)</text><rect fill="#FFFFFF" height="42" rx="4" ry="4" style="stroke:#000000;stroke-width:1;" width="212.21" x="234.927" y="245"/><text fill="#000000" font-family="Helvetica" font-size="11" lengthAdjust="spacing" textLength="65.436" x="244.927" y="263.4702">Daten gl&#228;tten</text><text fill="#000000" font-family="Helvetica" font-size="11" lengthAdjust="spacing" textLength="192.21" x="244.927" y="274.4702">(Gleitender Median, Fenster = 25 &#8776; 2 s)</text><rect fill="#FFFFFF" height="457" rx="4" ry="4" style="stroke:#000000;stroke-width:1;" width="249.1343" x="216.4648" y="297"/><path d="M315.7593,297 L315.7593,301 L305.7593,311 L216.4648,311" fill="none" style="stroke:#000000;stroke-width:1;"/><text fill="#000000" font-family="Helvetica" font-size="11" lengthAdjust="spacing" textLength="89.2944" x="219.4648" y="306.4702">Phasenerkennung</text><rect fill="#FFFFFF" height="42" rx="4" ry="4" style="stroke:#000000;stroke-width:1;" width="154.5352" x="263.7644" y="328"/><text fill="#000000" font-family="Helvetica" font-size="11" lengthAdjust="spacing" textLength="134.5352" x="273.7644" y="346.4702">Leerlaufphase identifizieren</text><text fill="#000000" font-family="Helvetica" font-size="11" font-weight="bold" lengthAdjust="spacing" textLength="38.8652" x="273.7644" y="357.4702">|I| &lt; 5 A</text><text fill="#000000" font-family="Helvetica" font-size="11" lengthAdjust="spacing" textLength="78.8799" x="315.6858" y="357.4702">&#8594; Ruhezustand</text><rect fill="#FFFFFF" height="42" rx="4" ry="4" style="stroke:#000000;stroke-width:1;" width="198.562" x="241.751" y="390"/><text fill="#000000" font-family="Helvetica" font-size="11" lengthAdjust="spacing" textLength="178.562" x="251.751" y="408.4702">Mittlere Spannung U_idle berechnen</text><text fill="#000000" font-family="Helvetica" font-size="11" lengthAdjust="spacing" textLength="156.5137" x="251.751" y="419.4702">Mittlerer Strom I_idle berechnen</text><rect fill="#FFFFFF" height="42" rx="4" ry="4" style="stroke:#000000;stroke-width:1;" width="160.959" x="260.5525" y="452"/><text fill="#000000" font-family="Helvetica" font-size="11" lengthAdjust="spacing" textLength="116.1821" x="270.5525" y="470.4702">Pulsphase identifizieren</text><text fill="#000000" font-family="Helvetica" font-size="11" font-weight="bold" lengthAdjust="spacing" textLength="44.9829" x="270.5525" y="481.4702">|I| &gt; 20 A</text><text fill="#000000" font-family="Helvetica" font-size="11" lengthAdjust="spacing" textLength="92.9199" x="318.5916" y="481.4702">&#8594; Ladestrom flie&#223;t</text><rect fill="#FFFFFF" height="42" rx="4" ry="4" style="stroke:#000000;stroke-width:1;" width="169.7837" x="256.1401" y="514"/><text fill="#000000" font-family="Helvetica" font-size="11" lengthAdjust="spacing" textLength="149.7837" x="266.1401" y="532.4702">Mittlere 60% des Pulsintervalls</text><text fill="#000000" font-family="Helvetica" font-size="11" lengthAdjust="spacing" textLength="92.3237" x="266.1401" y="543.4702">&#8594; Plateau-Bereich</text><rect fill="#FFFFFF" height="42" rx="4" ry="4" style="stroke:#000000;stroke-width:1;" width="217.5273" x="232.2683" y="576"/><text fill="#000000" font-family="Helvetica" font-size="11" lengthAdjust="spacing" textLength="197.5273" x="242.2683" y="594.4702">Mittlere Spannung U_plateau berechnen</text><text fill="#000000" font-family="Helvetica" font-size="11" lengthAdjust="spacing" textLength="175.479" x="242.2683" y="605.4702">Mittlerer Strom I_plateau berechnen</text><rect fill="#FFFFFF" height="53" rx="4" ry="4" style="stroke:#000000;stroke-width:1;" width="172.2598" x="254.9021" y="638"/><text fill="#000000" font-family="Helvetica" font-size="11" lengthAdjust="spacing" textLength="152.2598" x="264.9021" y="656.4702">Relaxationsphase identifizieren</text><text fill="#000000" font-family="Helvetica" font-size="11" font-weight="bold" lengthAdjust="spacing" textLength="38.8652" x="264.9021" y="667.4702">|I| &lt; 5 A</text><text fill="#000000" font-family="Helvetica" font-size="11" lengthAdjust="spacing" textLength="48.3076" x="306.8235" y="667.4702">nach Puls</text><text fill="#000000" font-family="Helvetica" font-size="11" lengthAdjust="spacing" textLength="112.5298" x="264.9021" y="678.4702">&#8594; Spannungserholung</text><rect fill="#FFFFFF" height="31" rx="4" ry="4" style="stroke:#000000;stroke-width:1;" width="229.1343" x="226.4648" y="711"/><text fill="#000000" font-family="Helvetica" font-size="11" lengthAdjust="spacing" textLength="209.1343" x="236.4648" y="729.4702">Mittlere Spannung U_relaxation berechnen</text><rect fill="#FFFFFF" height="299" rx="4" ry="4" style="stroke:#000000;stroke-width:1;" width="325.3604" x="179.2534" y="764"/><path d="M308.4917,764 L308.4917,768 L298.4917,778 L179.2534,778" fill="none" style="stroke:#000000;stroke-width:1;"/><text fill="#000000" font-family="Helvetica" font-size="11" lengthAdjust="spacing" textLength="119.2383" x="182.2534" y="773.4702">Widerstandsberechnung</text><rect fill="#FFFFFF" height="57" rx="4" ry="4" style="stroke:#000000;stroke-width:1;" width="303.5571" x="189.2534" y="795"/><text fill="#000000" font-family="Helvetica" font-size="11" lengthAdjust="spacing" textLength="135.7651" x="199.2534" y="813.4702">Innenwiderstand berechnen</text><text fill="#000000" font-family="Helvetica" font-size="11" font-weight="bold" lengthAdjust="spacing" textLength="71.8652" x="199.2534" y="824.4702">R_i = |&#916;U / &#916;I|</text><text fill="#000000" font-family="Helvetica" font-size="15" font-weight="bold" lengthAdjust="spacing" textLength="283.5571" x="199.2534" y="838.5503">|U_plateau &#8722; U_idle| / |I_plateau &#8722; I_idle|</text><polygon fill="#FFFFFF" points="281.4182,872,400.6458,872,412.6458,884,400.6458,896,281.4182,896,269.4182,884,281.4182,872" style="stroke:#000000;stroke-width:1;"/><text fill="#000000" font-family="Helvetica" font-size="11" lengthAdjust="spacing" textLength="119.2275" x="281.4182" y="881.4702">R_i im g&#252;ltigen Bereich?</text><text fill="#000000" font-family="Helvetica" font-size="11" lengthAdjust="spacing" textLength="107.5991" x="281.4182" y="892.4702">1 m&#937; &lt; R_i &lt; 200 m&#937;</text><text fill="#000000" font-family="Helvetica" font-size="11" lengthAdjust="spacing" textLength="8.5615" x="260.8567" y="881.4702">ja</text><text fill="#000000" font-family="Helvetica" font-size="11" lengthAdjust="spacing" textLength="20.7969" x="412.6458" y="881.4702">nein</text><rect fill="#FFFFFF" height="31" rx="4" ry="4" style="stroke:#000000;stroke-width:1;" width="65.8584" x="226.489" y="906"/><text fill="#000000" font-family="Helvetica" font-size="11" lengthAdjust="spacing" textLength="45.8584" x="236.489" y="924.4702">R_i g&#252;ltig</text><rect fill="#FFFFFF" height="42" rx="4" ry="4" style="stroke:#000000;stroke-width:1;" width="123.936" x="360.6777" y="906"/><text fill="#000000" font-family="Helvetica" font-size="11" lengthAdjust="spacing" textLength="103.936" x="370.6777" y="924.4702">Qualit&#228;ts-Flag setzen</text><text fill="#000000" font-family="Helvetica" font-size="11" lengthAdjust="spacing" textLength="81.8984" x="370.6777" y="935.4702">(Wert verwerfen)</text><polygon fill="#FFFFFF" points="341.032,954,353.032,966,341.032,978,329.032,966,341.032,954" style="stroke:#000000;stroke-width:1;"/><rect fill="#FFFFFF" height="53" rx="4" ry="4" style="stroke:#000000;stroke-width:1;" width="144.1313" x="268.9663" y="998"/><text fill="#000000" font-family="Helvetica" font-size="11" lengthAdjust="spacing" textLength="122.9175" x="278.9663" y="1016.4702">Median &#252;ber alle g&#252;ltigen</text><text fill="#000000" font-family="Helvetica" font-size="11" lengthAdjust="spacing" textLength="124.1313" x="278.9663" y="1027.4702">Stromspr&#252;nge berechnen</text><text fill="#000000" font-family="Helvetica" font-size="11" lengthAdjust="spacing" textLength="100.8584" x="278.9663" y="1038.4702">&#8594; R_i_median (m&#937;)</text><rect fill="#FFFFFF" height="234" rx="4" ry="4" style="stroke:#000000;stroke-width:1;" width="624.5063" x="6" y="1073"/><path d="M116.8853,1073 L116.8853,1077 L106.8853,1087 L6,1087" fill="none" style="stroke:#000000;stroke-width:1;"/><text fill="#000000" font-family="Helvetica" font-size="11" lengthAdjust="spacing" textLength="100.8853" x="9" y="1082.4702">SOH_R-Berechnung</text><polygon fill="#FFFFFF" points="276.8259,1104,405.238,1104,417.238,1116,405.238,1128,276.8259,1128,264.8259,1116,276.8259,1104" style="stroke:#000000;stroke-width:1;"/><text fill="#000000" font-family="Helvetica" font-size="11" lengthAdjust="spacing" textLength="128.4121" x="276.8259" y="1118.9702">Baseline-Test vorhanden?</text><text fill="#000000" font-family="Helvetica" font-size="11" lengthAdjust="spacing" textLength="8.5615" x="256.2644" y="1113.4702">ja</text><text fill="#000000" font-family="Helvetica" font-size="11" lengthAdjust="spacing" textLength="20.7969" x="417.238" y="1113.4702">nein</text><path d="M284.8374,1138 L284.8374,1166.5 L264.8374,1170.5 L284.8374,1174.5 L284.8374,1203 A0,0 0 0 0 284.8374,1203 L442.7842,1203 A0,0 0 0 0 442.7842,1203 L442.7842,1148 L432.7842,1138 L284.8374,1138 A0,0 0 0 0 284.8374,1138" fill="#FFFFFF" style="stroke:#000000;stroke-width:1;"/><path d="M432.7842,1138 L432.7842,1148 L442.7842,1148 L432.7842,1138" fill="#FFFFFF" style="stroke:#000000;stroke-width:1;"/><text fill="#000000" font-family="Helvetica" font-size="11" lengthAdjust="spacing" textLength="107.5991" x="290.8374" y="1151.4702">R_i steigt mit Alterung</text><text fill="#000000" font-family="Helvetica" font-size="11" lengthAdjust="spacing" textLength="136.9468" x="290.8374" y="1162.4702">&#8594; SOH_R sinkt unter 100%</text><text fill="#000000" font-family="Helvetica" font-size="11" lengthAdjust="spacing" textLength="3.0562" x="290.8374" y="1173.4702">&#160;</text><text fill="#000000" font-family="Helvetica" font-size="11" lengthAdjust="spacing" textLength="131.7476" x="290.8374" y="1184.4702">Erster Test = automatische</text><text fill="#000000" font-family="Helvetica" font-size="11" lengthAdjust="spacing" textLength="117.396" x="290.8374" y="1195.4702">Baseline (R_i_Baseline)</text><rect fill="#FFFFFF" height="31" rx="4" ry="4" style="stroke:#000000;stroke-width:1;" width="246.8374" x="18" y="1155"/><text fill="#000000" font-family="Helvetica" font-size="11" lengthAdjust="spacing" textLength="226.8374" x="28" y="1173.4702">SOH_R = (R_i_Baseline / R_i_aktuell) &#215; 100%</text><rect fill="#FFFFFF" height="42" rx="4" ry="4" style="stroke:#000000;stroke-width:1;" width="155.7222" x="462.7842" y="1138"/><text fill="#000000" font-family="Helvetica" font-size="11" lengthAdjust="spacing" textLength="135.7222" x="472.7842" y="1156.4702">Aktueller Test wird Baseline</text><text fill="#000000" font-family="Helvetica" font-size="11" lengthAdjust="spacing" textLength="87.7422" x="472.7842" y="1167.4702">SOH_R = 100,0%</text><polygon fill="#FFFFFF" points="341.032,1209,353.032,1221,341.032,1233,329.032,1221,341.032,1209" style="stroke:#000000;stroke-width:1;"/><rect fill="#FFFFFF" height="42" rx="4" ry="4" style="stroke:#000000;stroke-width:1;" width="208.8638" x="236.6001" y="1253"/><text fill="#000000" font-family="Helvetica" font-size="11" lengthAdjust="spacing" textLength="94.166" x="246.6001" y="1271.4702">Ergebnis speichern</text><text fill="#000000" font-family="Helvetica" font-size="11" lengthAdjust="spacing" textLength="188.8638" x="246.6001" y="1282.4702">R_i (m&#937;), SOH_R (%), Qualit&#228;ts-Flags</text><ellipse cx="341.032" cy="1338" fill="none" rx="11" ry="11" style="stroke:#000000;stroke-width:1;"/><ellipse cx="341.032" cy="1338" fill="#FFFFFF" rx="6" ry="6" style="stroke:#000000;stroke-width:1;"/><line style="stroke:#000000;stroke-width:1;" x1="341.032" x2="341.032" y1="90" y2="110"/><polygon fill="#000000" points="337.032,100,341.032,110,345.032,100,341.032,104" style="stroke:#000000;stroke-width:1;"/><line style="stroke:#000000;stroke-width:1;" x1="341.032" x2="341.032" y1="152" y2="172"/><polygon fill="#000000" points="337.032,162,341.032,172,345.032,162,341.032,166" style="stroke:#000000;stroke-width:1;"/><line style="stroke:#000000;stroke-width:1;" x1="341.032" x2="341.032" y1="225" y2="245"/><polygon fill="#000000" points="337.032,235,341.032,245,345.032,235,341.032,239" style="stroke:#000000;stroke-width:1;"/><line style="stroke:#000000;stroke-width:1;" x1="341.032" x2="341.032" y1="370" y2="390"/><polygon fill="#000000" points="337.032,380,341.032,390,345.032,380,341.032,384" style="stroke:#000000;stroke-width:1;"/><line style="stroke:#000000;stroke-width:1;" x1="341.032" x2="341.032" y1="432" y2="452"/><polygon fill="#000000" points="337.032,442,341.032,452,345.032,442,341.032,446" style="stroke:#000000;stroke-width:1;"/><line style="stroke:#000000;stroke-width:1;" x1="341.032" x2="341.032" y1="494" y2="514"/><polygon fill="#000000" points="337.032,504,341.032,514,345.032,504,341.032,508" style="stroke:#000000;stroke-width:1;"/><line style="stroke:#000000;stroke-width:1;" x1="341.032" x2="341.032" y1="556" y2="576"/><polygon fill="#000000" points="337.032,566,341.032,576,345.032,566,341.032,570" style="stroke:#000000;stroke-width:1;"/><line style="stroke:#000000;stroke-width:1;" x1="341.032" x2="341.032" y1="618" y2="638"/><polygon fill="#000000" points="337.032,628,341.032,638,345.032,628,341.032,632" style="stroke:#000000;stroke-width:1;"/><line style="stroke:#000000;stroke-width:1;" x1="341.032" x2="341.032" y1="691" y2="711"/><polygon fill="#000000" points="337.032,701,341.032,711,345.032,701,341.032,705" style="stroke:#000000;stroke-width:1;"/><line style="stroke:#000000;stroke-width:1;" x1="341.032" x2="341.032" y1="287" y2="328"/><polygon fill="#000000" points="337.032,318,341.032,328,345.032,318,341.032,322" style="stroke:#000000;stroke-width:1;"/><line style="stroke:#000000;stroke-width:1;" x1="269.4182" x2="259.4182" y1="884" y2="884"/><line style="stroke:#000000;stroke-width:1;" x1="259.4182" x2="259.4182" y1="884" y2="906"/><polygon fill="#000000" points="255.4182,896,259.4182,906,263.4182,896,259.4182,900" style="stroke:#000000;stroke-width:1;"/><line style="stroke:#000000;stroke-width:1;" x1="412.6458" x2="422.6458" y1="884" y2="884"/><line style="stroke:#000000;stroke-width:1;" x1="422.6458" x2="422.6458" y1="884" y2="906"/><polygon fill="#000000" points="418.6458,896,422.6458,906,426.6458,896,422.6458,900" style="stroke:#000000;stroke-width:1;"/><line style="stroke:#000000;stroke-width:1;" x1="259.4182" x2="259.4182" y1="937" y2="966"/><line style="stroke:#000000;stroke-width:1;" x1="259.4182" x2="329.032" y1="966" y2="966"/><polygon fill="#000000" points="319.032,962,329.032,966,319.032,970,323.032,966" style="stroke:#000000;stroke-width:1;"/><line style="stroke:#000000;stroke-width:1;" x1="422.6458" x2="422.6458" y1="948" y2="966"/><line style="stroke:#000000;stroke-width:1;" x1="422.6458" x2="353.032" y1="966" y2="966"/><polygon fill="#000000" points="363.032,962,353.032,966,363.032,970,359.032,966" style="stroke:#000000;stroke-width:1;"/><line style="stroke:#000000;stroke-width:1;" x1="341.032" x2="341.032" y1="852" y2="872"/><polygon fill="#000000" points="337.032,862,341.032,872,345.032,862,341.032,866" style="stroke:#000000;stroke-width:1;"/><line style="stroke:#000000;stroke-width:1;" x1="341.032" x2="341.032" y1="978" y2="998"/><polygon fill="#000000" points="337.032,988,341.032,998,345.032,988,341.032,992" style="stroke:#000000;stroke-width:1;"/><line style="stroke:#000000;stroke-width:1;" x1="341.032" x2="341.032" y1="742" y2="795"/><polygon fill="#000000" points="337.032,785,341.032,795,345.032,785,341.032,789" style="stroke:#000000;stroke-width:1;"/><line style="stroke:#000000;stroke-width:1;" x1="264.8259" x2="141.4187" y1="1116" y2="1116"/><line style="stroke:#000000;stroke-width:1;" x1="141.4187" x2="141.4187" y1="1116" y2="1155"/><polygon fill="#000000" points="137.4187,1145,141.4187,1155,145.4187,1145,141.4187,1149" style="stroke:#000000;stroke-width:1;"/><line style="stroke:#000000;stroke-width:1;" x1="417.238" x2="540.6453" y1="1116" y2="1116"/><line style="stroke:#000000;stroke-width:1;" x1="540.6453" x2="540.6453" y1="1116" y2="1138"/><polygon fill="#000000" points="536.6453,1128,540.6453,1138,544.6453,1128,540.6453,1132" style="stroke:#000000;stroke-width:1;"/><line style="stroke:#000000;stroke-width:1;" x1="141.4187" x2="141.4187" y1="1186" y2="1221"/><line style="stroke:#000000;stroke-width:1;" x1="141.4187" x2="329.032" y1="1221" y2="1221"/><polygon fill="#000000" points="319.032,1217,329.032,1221,319.032,1225,323.032,1221" style="stroke:#000000;stroke-width:1;"/><line style="stroke:#000000;stroke-width:1;" x1="540.6453" x2="540.6453" y1="1180" y2="1221"/><line style="stroke:#000000;stroke-width:1;" x1="540.6453" x2="353.032" y1="1221" y2="1221"/><polygon fill="#000000" points="363.032,1217,353.032,1221,363.032,1225,359.032,1221" style="stroke:#000000;stroke-width:1;"/><line style="stroke:#000000;stroke-width:1;" x1="341.032" x2="341.032" y1="1233" y2="1253"/><polygon fill="#000000" points="337.032,1243,341.032,1253,345.032,1243,341.032,1247" style="stroke:#000000;stroke-width:1;"/><line style="stroke:#000000;stroke-width:1;" x1="341.032" x2="341.032" y1="1051" y2="1104"/><polygon fill="#000000" points="337.032,1094,341.032,1104,345.032,1094,341.032,1098" style="stroke:#000000;stroke-width:1;"/><line style="stroke:#000000;stroke-width:1;" x1="341.032" x2="341.032" y1="1295" y2="1327"/><polygon fill="#000000" points="337.032,1317,341.032,1327,345.032,1317,341.032,1321" style="stroke:#000000;stroke-width:1;"/><?plantuml-src ZLJDRjj64BxpAQO93CY2YCW6KXIsuq1sx5f0dAfoWW21064b3icjbaDYTscx2dijqciGeCTUaaFUmJVT_H1-aimkAKMsaw0yaPo_x_lcvoUROePGA24fC3D9XT0YWucOpXATbnGTvYhNyF3OFsiU4SQYLFOu9_j2S8OJLETevLHys-TCpX6sjjQC9XLHVY4fWLWeWskMOLrN4shu9GYij0fXRx9_CXWSXgTeqpn22A5FX7GX8zJ62eh2eqkhnSpAdFOUJVP7zEmm79JAX3qIwa-3C2yrdFrsCXw61wXncb99IH1mhBP1iFDSH1WEypGI5WamAs912TA8McU58EVRWJEhywm3Rr3QpLsEEK1ZiVvh2g7uVS9_P9Rvk5vfy_18pz17xy3DFvzWgzk5rwWjTaPKzSUPkAnW7xQxqFC9d_dYYLfyjDRd-5LnBIJc2ASOIK4TE4RYgXgUmFPZplaEji6uODQEbMBsy62G2eEiNbFw0Rnr116r4cLSE2EmR6HbBEUIjU1AxNRLhs0F7aEltOQRlz_3i4nnNdffTuETKscv2vhPDch0gx6Cb6FijNGvbZwwbWJwTpmSGzUH7o6enMWWk9uOdofM4XV_sNKWFtStUC0Ck8oIM95pePGPaGiSA1PIbBxHSff-1tzHU_sOmZqdnsA8IbmA9xRvFtAIcAOUPurk2S6WJdF5Bz_1frTLRbN_wrQlNwyMm4nMOrrt_Cw2hFDijuTZoIDKNNzu1O_W-aE_QhT7n3--odBpxdtJv8fTglujGztRYk7865ekcSmWMLmfAtbhe17-wOYs8Bl-p4eubprkRjTzRmAV7OBM7s8p07vsdBM9tWsGpm6q22KrrjzBeQJbfJ3XiH896BHplnvkbU0SzGNg68ctW5T5naozNXPON35duBd0hzX6r2oiNbpnXg-huiT-BCTP7TroIEy9VlU4UAsT20Sy24eIXYzvQE4yrocBZlJq7bcVWSLtiesNKIon--G3Lg9Icx3urnsBZLqVGZdV5YsJrFfFy6ho5P29XKnQwF7jqUwSrLO_PBu8RyRCGkdMmwSB6eyZxM-8H_e415-gZ0VDJ5Di75QmRe6i2R387j7zHlLgzClC5r97gqoiUyERWNGSisMpZdI24v86JE661ZMtmX7q-dSQ9gqDVhqp2APkZh5v4Nm1?></g></svg>