<?plantuml 1.2026.1?><svg xmlns="http://www.w3.org/2000/svg" xmlns:xlink="http://www.w3.org/1999/xlink" contentStyleType="text/css" data-diagram-type="ACTIVITY" height="877px" preserveAspectRatio="none" style="width:1155px;height:877px;background:#FFFFFF;" version="1.1" viewBox="0 0 1155 877" width="1155px" zoomAndPan="magnify"><title>&lt;b&gt;CSV-Formaterkennung&lt;/b&gt;
Automatische Erkennung des Scanner-Formats</title><defs/><g><g class="title" data-source-line="8"><text fill="#000000" font-family="Helvetica" font-size="22" font-weight="bold" lengthAdjust="spacing" textLength="239.583" x="456.5869" y="31.9404">CSV-Formaterkennung</text><text fill="#000000" font-family="Helvetica" font-size="22" font-weight="bold" lengthAdjust="spacing" textLength="497.5566" x="327.6" y="53.9404">Automatische Erkennung des Scanner-Formats</text></g><ellipse cx="609.9439" cy="80" fill="#FFFFFF" rx="10" ry="10" style="stroke:#000000;stroke-width:1;"/><rect fill="#FFFFFF" height="31" rx="4" ry="4" style="stroke:#000000;stroke-width:1;" width="105.5991" x="557.1443" y="110"/><text fill="#000000" font-family="Helvetica" font-size="11" lengthAdjust="spacing" textLength="85.5991" x="567.1443" y="128.4702">CSV-Datei &#246;ffnen</text><rect fill="#FFFFFF" height="31" rx="4" ry="4" style="stroke:#000000;stroke-width:1;" width="138.0029" x="540.9424" y="161"/><text fill="#000000" font-family="Helvetica" font-size="11" lengthAdjust="spacing" textLength="118.0029" x="550.9424" y="179.4702">Erste Zeilen analysieren</text><polygon fill="#FFFFFF" points="537.794,212,682.0938,212,694.0938,224,682.0938,236,537.794,236,525.794,224,537.794,212" style="stroke:#000000;stroke-width:1;"/><text fill="#000000" font-family="Helvetica" font-size="11" lengthAdjust="spacing" textLength="144.2998" x="537.794" y="226.9702">Semikolon als Trennzeichen?</text><text fill="#000000" font-family="Helvetica" font-size="11" lengthAdjust="spacing" textLength="8.5615" x="517.2325" y="221.4702">ja</text><text fill="#000000" font-family="Helvetica" font-size="11" lengthAdjust="spacing" textLength="20.7969" x="694.0938" y="221.4702">nein</text><polygon fill="#FFFFFF" points="196.2236,246,405.9058,246,417.9058,258,405.9058,270,196.2236,270,184.2236,258,196.2236,246" style="stroke:#000000;stroke-width:1;"/><text fill="#000000" font-family="Helvetica" font-size="11" lengthAdjust="spacing" textLength="209.6821" x="196.2236" y="260.9702">Spalten: SECONDS, PID, VALUE, UNITS?</text><text fill="#000000" font-family="Helvetica" font-size="11" lengthAdjust="spacing" textLength="8.5615" x="175.6621" y="255.4702">ja</text><text fill="#000000" font-family="Helvetica" font-size="11" lengthAdjust="spacing" textLength="20.7969" x="417.9058" y="255.4702">nein</text><path d="M207.0469,280 L207.0469,297.5 L187.0469,301.5 L207.0469,305.5 L207.0469,323 A0,0 0 0 0 207.0469,323 L380.3926,323 A0,0 0 0 0 380.3926,323 L380.3926,290 L370.3926,280 L207.0469,280 A0,0 0 0 0 207.0469,280" fill="#FFFFFF" style="stroke:#000000;stroke-width:1;"/><path d="M370.3926,280 L370.3926,290 L380.3926,290 L370.3926,280" fill="#FFFFFF" style="stroke:#000000;stroke-width:1;"/><text fill="#000000" font-family="Helvetica" font-size="11" lengthAdjust="spacing" textLength="63.583" x="213.0469" y="293.4702">Datenformat:</text><text fill="#000000" font-family="Helvetica" font-size="11" lengthAdjust="spacing" textLength="152.3457" x="213.0469" y="304.4702">"42302.46";"[8C.BMS] Batterie-</text><text fill="#000000" font-family="Helvetica" font-size="11" lengthAdjust="spacing" textLength="111.8799" x="213.0469" y="315.4702">spannung";"395.5";"V";</text><rect fill="#FFFFFF" height="31" rx="4" ry="4" style="stroke:#000000;stroke-width:1;" width="181.0469" x="6" y="286"/><text fill="#000000" font-family="Helvetica" font-size="11" lengthAdjust="spacing" textLength="37.8931" x="16" y="304.4702">Format:</text><text fill="#000000" font-family="Helvetica" font-size="11" font-weight="bold" lengthAdjust="spacing" textLength="120.0977" x="56.9492" y="304.4702">MX+ OBD2 Langformat</text><rect fill="#FFFFFF" height="42" rx="4" ry="4" style="stroke:#000000;stroke-width:1;" width="153.8745" x="19.5862" y="344"/><text fill="#000000" font-family="Helvetica" font-size="11" lengthAdjust="spacing" textLength="108.8291" x="29.5862" y="362.4702">Pivot-Tabelle erstellen</text><text fill="#000000" font-family="Helvetica" font-size="11" lengthAdjust="spacing" textLength="133.8745" x="29.5862" y="373.4702">(Langformat &#8594; Breitformat)</text><rect fill="#FFFFFF" height="31" rx="4" ry="4" style="stroke:#000000;stroke-width:1;" width="162.4683" x="15.2893" y="406"/><text fill="#000000" font-family="Helvetica" font-size="11" lengthAdjust="spacing" textLength="142.4683" x="25.2893" y="424.4702">Jeder PID wird eigene Spalte</text><rect fill="#FFFFFF" height="42" rx="4" ry="4" style="stroke:#000000;stroke-width:1;" width="141.666" x="25.6904" y="468"/><text fill="#000000" font-family="Helvetica" font-size="11" lengthAdjust="spacing" textLength="121.666" x="35.6904" y="486.4702">Aggregation: letzter Wert</text><text fill="#000000" font-family="Helvetica" font-size="11" lengthAdjust="spacing" textLength="64.2007" x="35.6904" y="497.4702">pro Zeitpunkt</text><rect fill="#FFFFFF" height="42" rx="4" ry="4" style="stroke:#000000;stroke-width:1;" width="158.1982" x="17.4243" y="541"/><text fill="#000000" font-family="Helvetica" font-size="11" lengthAdjust="spacing" textLength="106.9653" x="27.4243" y="559.4702">Vorw&#228;rts-F&#252;llung (ffill)</text><text fill="#000000" font-family="Helvetica" font-size="11" lengthAdjust="spacing" textLength="138.1982" x="27.4243" y="570.4702">f&#252;r asynchrone Sensordaten</text><rect fill="#FFFFFF" height="42" rx="4" ry="4" style="stroke:#000000;stroke-width:1;" width="210.4268" x="400.3926" y="280"/><text fill="#000000" font-family="Helvetica" font-size="11" lengthAdjust="spacing" textLength="190.4268" x="410.3926" y="298.4702">Semikolon-CSV aber kein MX+-Format</text><text fill="#000000" font-family="Helvetica" font-size="11" lengthAdjust="spacing" textLength="175.4683" x="410.3926" y="309.4702">&#8594; Als generisches CSV verarbeiten</text><polygon fill="#FFFFFF" points="301.0647,589,313.0647,601,301.0647,613,289.0647,601,301.0647,589" style="stroke:#000000;stroke-width:1;"/><polygon fill="#FFFFFF" points="853.4032,246,984.243,246,996.243,258,984.243,270,853.4032,270,841.4032,258,853.4032,246" style="stroke:#000000;stroke-width:1;"/><text fill="#000000" font-family="Helvetica" font-size="11" lengthAdjust="spacing" textLength="130.8398" x="853.4032" y="260.9702">Komma als Trennzeichen?</text><text fill="#000000" font-family="Helvetica" font-size="11" lengthAdjust="spacing" textLength="8.5615" x="832.8417" y="255.4702">ja</text><text fill="#000000" font-family="Helvetica" font-size="11" lengthAdjust="spacing" textLength="20.7969" x="996.243" y="255.4702">nein</text><path d="M858.9185,280 L858.9185,297.5 L838.9185,301.5 L858.9185,305.5 L858.9185,323 A0,0 0 0 0 858.9185,323 L1011.4189,323 A0,0 0 0 0 1011.4189,323 L1011.4189,290 L1001.4189,280 L858.9185,280 A0,0 0 0 0 858.9185,280" fill="#FFFFFF" style="stroke:#000000;stroke-width:1;"/><path d="M1001.4189,280 L1001.4189,290 L1011.4189,290 L1001.4189,280" fill="#FFFFFF" style="stroke:#000000;stroke-width:1;"/><text fill="#000000" font-family="Helvetica" font-size="11" lengthAdjust="spacing" textLength="63.583" x="864.9185" y="293.4702">Datenformat:</text><text fill="#000000" font-family="Helvetica" font-size="11" lengthAdjust="spacing" textLength="130.8184" x="864.9185" y="304.4702">Time,SOC BMS,Voltage,...</text><text fill="#000000" font-family="Helvetica" font-size="11" lengthAdjust="spacing" textLength="131.5005" x="864.9185" y="315.4702">12:34:56.789,45.3,395.5,...</text><rect fill="#FFFFFF" height="31" rx="4" ry="4" style="stroke:#000000;stroke-width:1;" width="188.0991" x="650.8193" y="286"/><text fill="#000000" font-family="Helvetica" font-size="11" lengthAdjust="spacing" textLength="37.8931" x="660.8193" y="304.4702">Format:</text><text fill="#000000" font-family="Helvetica" font-size="11" font-weight="bold" lengthAdjust="spacing" textLength="127.1499" x="701.7686" y="304.4702">Car Scanner Breitformat</text><rect fill="#FFFFFF" height="42" rx="4" ry="4" style="stroke:#000000;stroke-width:1;" width="116.6152" x="686.5613" y="344"/><text fill="#000000" font-family="Helvetica" font-size="11" lengthAdjust="spacing" textLength="96.6152" x="696.5613" y="362.4702">Zeitspalte erkennen</text><text fill="#000000" font-family="Helvetica" font-size="11" lengthAdjust="spacing" textLength="92.8716" x="696.5613" y="373.4702">(HH:MM:SS.mmm)</text><rect fill="#FFFFFF" height="42" rx="4" ry="4" style="stroke:#000000;stroke-width:1;" width="128.2329" x="680.7524" y="406"/><text fill="#000000" font-family="Helvetica" font-size="11" lengthAdjust="spacing" textLength="108.2329" x="690.7524" y="424.4702">In Sekunden seit Start</text><text fill="#000000" font-family="Helvetica" font-size="11" lengthAdjust="spacing" textLength="60.5322" x="690.7524" y="435.4702">konvertieren</text><rect fill="#FFFFFF" height="42" rx="4" ry="4" style="stroke:#000000;stroke-width:1;" width="144.1313" x="672.8032" y="479"/><text fill="#000000" font-family="Helvetica" font-size="11" lengthAdjust="spacing" textLength="124.1313" x="682.8032" y="497.4702">Spalten direkt verwenden</text><text fill="#000000" font-family="Helvetica" font-size="11" lengthAdjust="spacing" textLength="97.1899" x="682.8032" y="508.4702">(bereits Breitformat)</text><rect fill="#FFFFFF" height="42" rx="4" ry="4" style="stroke:#000000;stroke-width:1;" width="122.7168" x="1027.0399" y="280"/><text fill="#000000" font-family="Helvetica" font-size="11" lengthAdjust="spacing" textLength="102.7168" x="1037.0399" y="298.4702">Unbekanntes Format</text><text fill="#000000" font-family="Helvetica" font-size="11" lengthAdjust="spacing" textLength="87.4307" x="1037.0399" y="309.4702">&#8594; Fehlermeldung</text><ellipse cx="1088.3983" cy="354" fill="none" rx="11" ry="11" style="stroke:#000000;stroke-width:1;"/><ellipse cx="1088.3983" cy="354" fill="#FFFFFF" rx="6" ry="6" style="stroke:#000000;stroke-width:1;"/><polygon fill="#FFFFFF" points="609.9439,619,621.9439,631,609.9439,643,597.9439,631,609.9439,619" style="stroke:#000000;stroke-width:1;"/><rect fill="#FFFFFF" height="42" rx="4" ry="4" style="stroke:#000000;stroke-width:1;" width="210.1958" x="504.846" y="663"/><text fill="#000000" font-family="Helvetica" font-size="11" lengthAdjust="spacing" textLength="190.1958" x="514.846" y="681.4702">Einheiten aus Spaltennamen entfernen</text><text fill="#000000" font-family="Helvetica" font-size="11" lengthAdjust="spacing" textLength="142.6133" x="514.846" y="692.4702">"(V)" , "(A)" , "(%)" &#8594; entfernt</text><rect fill="#FFFFFF" height="42" rx="4" ry="4" style="stroke:#000000;stroke-width:1;" width="176.8359" x="521.5259" y="725"/><text fill="#000000" font-family="Helvetica" font-size="11" lengthAdjust="spacing" textLength="118.019" x="531.5259" y="743.4702">PID-Mapping anwenden</text><text fill="#000000" font-family="Helvetica" font-size="11" lengthAdjust="spacing" textLength="156.8359" x="531.5259" y="754.4702">(DE + EN Varianten abgleichen)</text><rect fill="#FFFFFF" height="42" rx="4" ry="4" style="stroke:#000000;stroke-width:1;" width="207.0752" x="506.4063" y="787"/><text fill="#000000" font-family="Helvetica" font-size="11" lengthAdjust="spacing" textLength="160.2197" x="516.4063" y="805.4702">Spalten-Zuordnung zur&#252;ckgeben</text><text fill="#000000" font-family="Helvetica" font-size="11" lengthAdjust="spacing" textLength="187.0752" x="516.4063" y="816.4702">(soc, voltage, current, temperature, ...)</text><ellipse cx="609.9439" cy="860" fill="none" rx="11" ry="11" style="stroke:#000000;stroke-width:1;"/><ellipse cx="609.9439" cy="860" fill="#FFFFFF" rx="6" ry="6" style="stroke:#000000;stroke-width:1;"/><line style="stroke:#000000;stroke-width:1;" x1="609.9439" x2="609.9439" y1="90" y2="110"/><polygon fill="#000000" points="605.9439,100,609.9439,110,613.9439,100,609.9439,104" style="stroke:#000000;stroke-width:1;"/><line style="stroke:#000000;stroke-width:1;" x1="609.9439" x2="609.9439" y1="141" y2="161"/><polygon fill="#000000" points="605.9439,151,609.9439,161,613.9439,151,609.9439,155" style="stroke:#000000;stroke-width:1;"/><line style="stroke:#000000;stroke-width:1;" x1="96.5234" x2="96.5234" y1="317" y2="344"/><polygon fill="#000000" points="92.5234,334,96.5234,344,100.5234,334,96.5234,338" style="stroke:#000000;stroke-width:1;"/><line style="stroke:#000000;stroke-width:1;" x1="96.5234" x2="96.5234" y1="386" y2="406"/><polygon fill="#000000" points="92.5234,396,96.5234,406,100.5234,396,96.5234,400" style="stroke:#000000;stroke-width:1;"/><line style="stroke:#000000;stroke-width:1;" x1="96.5234" x2="96.5234" y1="437" y2="468"/><polygon fill="#000000" points="92.5234,458,96.5234,468,100.5234,458,96.5234,462" style="stroke:#000000;stroke-width:1;"/><line style="stroke:#000000;stroke-width:1;" x1="96.5234" x2="96.5234" y1="510" y2="541"/><polygon fill="#000000" points="92.5234,531,96.5234,541,100.5234,531,96.5234,535" style="stroke:#000000;stroke-width:1;"/><line style="stroke:#000000;stroke-width:1;" x1="184.2236" x2="96.5234" y1="258" y2="258"/><line style="stroke:#000000;stroke-width:1;" x1="96.5234" x2="96.5234" y1="258" y2="286"/><polygon fill="#000000" points="92.5234,276,96.5234,286,100.5234,276,96.5234,280" style="stroke:#000000;stroke-width:1;"/><line style="stroke:#000000;stroke-width:1;" x1="417.9058" x2="505.606" y1="258" y2="258"/><line style="stroke:#000000;stroke-width:1;" x1="505.606" x2="505.606" y1="258" y2="280"/><polygon fill="#000000" points="501.606,270,505.606,280,509.606,270,505.606,274" style="stroke:#000000;stroke-width:1;"/><line style="stroke:#000000;stroke-width:1;" x1="96.5234" x2="96.5234" y1="583" y2="601"/><line style="stroke:#000000;stroke-width:1;" x1="96.5234" x2="289.0647" y1="601" y2="601"/><polygon fill="#000000" points="279.0647,597,289.0647,601,279.0647,605,283.0647,601" style="stroke:#000000;stroke-width:1;"/><line style="stroke:#000000;stroke-width:1;" x1="505.606" x2="505.606" y1="322" y2="601"/><line style="stroke:#000000;stroke-width:1;" x1="505.606" x2="313.0647" y1="601" y2="601"/><polygon fill="#000000" points="323.0647,597,313.0647,601,323.0647,605,319.0647,601" style="stroke:#000000;stroke-width:1;"/><line style="stroke:#000000;stroke-width:1;" x1="744.8689" x2="744.8689" y1="317" y2="344"/><polygon fill="#000000" points="740.8689,334,744.8689,344,748.8689,334,744.8689,338" style="stroke:#000000;stroke-width:1;"/><line style="stroke:#000000;stroke-width:1;" x1="744.8689" x2="744.8689" y1="386" y2="406"/><polygon fill="#000000" points="740.8689,396,744.8689,406,748.8689,396,744.8689,400" style="stroke:#000000;stroke-width:1;"/><line style="stroke:#000000;stroke-width:1;" x1="744.8689" x2="744.8689" y1="448" y2="479"/><polygon fill="#000000" points="740.8689,469,744.8689,479,748.8689,469,744.8689,473" style="stroke:#000000;stroke-width:1;"/><line style="stroke:#000000;stroke-width:1;" x1="1088.3983" x2="1088.3983" y1="322" y2="343"/><polygon fill="#000000" points="1084.3983,333,1088.3983,343,1092.3983,333,1088.3983,337" style="stroke:#000000;stroke-width:1;"/><line style="stroke:#000000;stroke-width:1;" x1="841.4032" x2="744.8689" y1="258" y2="258"/><line style="stroke:#000000;stroke-width:1;" x1="744.8689" x2="744.8689" y1="258" y2="286"/><polygon fill="#000000" points="740.8689,276,744.8689,286,748.8689,276,744.8689,280" style="stroke:#000000;stroke-width:1;"/><line style="stroke:#000000;stroke-width:1;" x1="996.243" x2="1088.3983" y1="258" y2="258"/><line style="stroke:#000000;stroke-width:1;" x1="1088.3983" x2="1088.3983" y1="258" y2="280"/><polygon fill="#000000" points="1084.3983,270,1088.3983,280,1092.3983,270,1088.3983,274" style="stroke:#000000;stroke-width:1;"/><line style="stroke:#000000;stroke-width:1;" x1="744.8689" x2="744.8689" y1="521" y2="631"/><line style="stroke:#000000;stroke-width:1;" x1="744.8689" x2="621.9439" y1="631" y2="631"/><polygon fill="#000000" points="631.9439,627,621.9439,631,631.9439,635,627.9439,631" style="stroke:#000000;stroke-width:1;"/><line style="stroke:#000000;stroke-width:1;" x1="525.794" x2="301.0647" y1="224" y2="224"/><line style="stroke:#000000;stroke-width:1;" x1="301.0647" x2="301.0647" y1="224" y2="246"/><polygon fill="#000000" points="297.0647,236,301.0647,246,305.0647,236,301.0647,240" style="stroke:#000000;stroke-width:1;"/><line style="stroke:#000000;stroke-width:1;" x1="694.0938" x2="918.8231" y1="224" y2="224"/><line style="stroke:#000000;stroke-width:1;" x1="918.8231" x2="918.8231" y1="224" y2="246"/><polygon fill="#000000" points="914.8231,236,918.8231,246,922.8231,236,918.8231,240" style="stroke:#000000;stroke-width:1;"/><line style="stroke:#000000;stroke-width:1;" x1="301.0647" x2="301.0647" y1="613" y2="631"/><line style="stroke:#000000;stroke-width:1;" x1="301.0647" x2="597.9439" y1="631" y2="631"/><polygon fill="#000000" points="587.9439,627,597.9439,631,587.9439,635,591.9439,631" style="stroke:#000000;stroke-width:1;"/><line style="stroke:#000000;stroke-width:1;" x1="609.9439" x2="609.9439" y1="192" y2="212"/><polygon fill="#000000" points="605.9439,202,609.9439,212,613.9439,202,609.9439,206" style="stroke:#000000;stroke-width:1;"/><line style="stroke:#000000;stroke-width:1;" x1="609.9439" x2="609.9439" y1="643" y2="663"/><polygon fill="#000000" points="605.9439,653,609.9439,663,613.9439,653,609.9439,657" style="stroke:#000000;stroke-width:1;"/><line style="stroke:#000000;stroke-width:1;" x1="609.9439" x2="609.9439" y1="705" y2="725"/><polygon fill="#000000" points="605.9439,715,609.9439,725,613.9439,715,609.9439,719" style="stroke:#000000;stroke-width:1;"/><line style="stroke:#000000;stroke-width:1;" x1="609.9439" x2="609.9439" y1="767" y2="787"/><polygon fill="#000000" points="605.9439,777,609.9439,787,613.9439,777,609.9439,781" style="stroke:#000000;stroke-width:1;"/><line style="stroke:#000000;stroke-width:1;" x1="609.9439" x2="609.9439" y1="829" y2="849"/><polygon fill="#000000" points="605.9439,839,609.9439,849,613.9439,839,609.9439,843" style="stroke:#000000;stroke-width:1;"/><?plantuml-src dLHRRkCs5FtNAcvT5B0pijkyfXbbC8NZ1v9sd0ogn2scxWTjNSaSKPS2IIMOBA0Bw1gwXdxbpplfIdefUMnr6g10zM79vE4zlESSyWktnWAXL49IO7D9fJ2YWALOvPdH5IKZhRI1BwVrqq8ac8fAkQacTosumYMgUtHo9Px7nF8HuV2mDMdN8j4FaZ98XRBOclcnuJM41iw2m4cd45ultupYUN-gJI4ScXo9AifUVxryiw1XvJIFIhjQ8qm-pJ6zXNWbYEjirzaWi4uO5mIHBpRcIX8sVwOf8PtpuCHOX_0UfK82GK9zj19DFITJwCPOo9pru3bbuPOdw14baz9tFM0X2ReVH2y0VcfuAPH3YY2UZ6wknt48xwx68So7R-yc8TnTNzt6_rhddwZPR0G71xEVNy3DnVW8tWhAqdhuuE1yXoJDspKoMxlT483lYXfir1hkd1mTVtCqE7dPEU_ySZOQNCpYN-52E1PJOhy5jAMezMFSyQlJmIc_vvqz9r9IymRx_RwJzzhrRyKI5Jk5NaJ-e0Lrzzk6ltxx7IuCIjVyx-qhHjzZmbQpEF0WJG8eCoI4HhuMR9Xb1ZFsMREc2jqZRnr-GkCML1hjRNDbHRbhBPbhyx3vmpZRdswUbFAfwAQfLAgte7JpP43OZxHQ6-tvaAmsYLUlgO0SI-WIIcfviyj0dnC4tBA1d170Jcr3jY3Vwf0JujimTIejUFGz6c6MlCqT0oKo3JxdyTdvGHU5-E-OVHQNaJ2V4j_M-lz6vbOM6COt8-2iX7EjdCWm70m6BSZXKNHy4fs-77nxzYeyEHqSXtLc_e5w9Z7UArlx2yrPhjDoUHdDPb4S3ugYQEVZYjYSd2y5RjtoIeZz8LvGheabTTiZkhUeENUGI8Evywe_e5_B36oNPtucYC-QVKTBp5bEnmQspPtYMg4fK2MSg3spTRfi-rh_ygqYQLsR3gAosrWJyQL937GfchhxJdVUwq08dUvm-_wAtvvj2tB-Xk93qf-9ilJtfg1TN-C9l839DSo5aO9ggcMccj3q_BejQ_zznH6lRyV7ocoU-9R7PLt1wbK8zrkFOLKPrjI5uB0eERMkCZpAflfYTPj_0m00?></g></svg>