<?plantuml 1.2026.1?><svg xmlns="http://www.w3.org/2000/svg" xmlns:xlink="http://www.w3.org/1999/xlink" contentStyleType="text/css" data-diagram-type="DESCRIPTION" height="553px" preserveAspectRatio="none" style="width:1177px;height:553px;background:#FFFFFF;" version="1.1" viewBox="0 0 1177 553" width="1177px" zoomAndPan="magnify"><title>&lt;b&gt;Datenpersistenz und Export&lt;/b&gt;
Speicherung und Ausgabeformate</title><defs/><g><g class="title" data-source-line="8"><text fill="#000000" font-family="Helvetica" font-size="22" font-weight="bold" lengthAdjust="spacing" textLength="292.1553" x="438.0549" y="31.9404">Datenpersistenz und Export</text><text fill="#000000" font-family="Helvetica" font-size="22" font-weight="bold" lengthAdjust="spacing" textLength="359.3799" x="404.4426" y="53.9404">Speicherung und Ausgabeformate</text></g><!--cluster db--><g class="cluster" data-qualified-name="db" data-source-line="14" id="ent0003"><rect fill="#DBEAFE" height="156" rx="4" ry="4" style="stroke:#000000;stroke-width:1;" width="402" x="501" y="163"/><text fill="#000000" font-family="Helvetica" font-size="11" font-weight="bold" lengthAdjust="spacing" textLength="95.3477" x="654.3262" y="173.4702">SQLite-Datenbank</text><text fill="#000000" font-family="Helvetica" font-size="11" font-weight="bold" lengthAdjust="spacing" textLength="135.7114" x="634.1443" y="184.4702">(data/battery_analysis.db)</text></g><!--cluster files--><g class="cluster" data-qualified-name="files" data-source-line="21" id="ent0006"><rect fill="#D1FAE5" height="334.5" rx="4" ry="4" style="stroke:#000000;stroke-width:1;" width="398" x="12" y="190.5"/><text fill="#000000" font-family="Helvetica" font-size="11" font-weight="bold" lengthAdjust="spacing" textLength="64.813" x="178.5935" y="200.9702">Dateisystem</text><text fill="#000000" font-family="Helvetica" font-size="11" font-weight="bold" lengthAdjust="spacing" textLength="125.9253" x="148.0374" y="211.9702">(exports/tests/{test_id}/)</text></g><!--cluster pdf--><g class="cluster" data-qualified-name="pdf" data-source-line="28" id="ent0010"><rect fill="#FFF3CD" height="156" rx="4" ry="4" style="stroke:#000000;stroke-width:1;" width="249" x="450" y="391"/><text fill="#000000" font-family="Helvetica" font-size="11" font-weight="bold" lengthAdjust="spacing" textLength="63.5615" x="542.7192" y="401.4702">PDF-Bericht</text><text fill="#000000" font-family="Helvetica" font-size="11" font-weight="bold" lengthAdjust="spacing" textLength="86.7808" x="531.1096" y="412.4702">(FPDF-generiert)</text></g><!--cluster csv_exp--><g class="cluster" data-qualified-name="csv_exp" data-source-line="32" id="ent0012"><rect fill="#F3E8FD" height="156" rx="4" ry="4" style="stroke:#000000;stroke-width:1;" width="215" x="739" y="391"/><text fill="#000000" font-family="Helvetica" font-size="11" font-weight="bold" lengthAdjust="spacing" textLength="61.1177" x="815.9412" y="401.4702">CSV-Export</text><text fill="#000000" font-family="Helvetica" font-size="11" font-weight="bold" lengthAdjust="spacing" textLength="110.6016" x="791.1992" y="412.4702">(Benutzer-Download)</text></g><!--entity db_veh--><g class="entity" data-qualified-name="db.db_veh" data-source-line="15" id="ent0004"><rect fill="#EFF6FF" height="50" rx="4" ry="4" style="stroke:#000000;stroke-width:1;" width="158.7783" x="524.61" y="228.5"/><text fill="#000000" font-family="Helvetica" font-size="11" font-weight="bold" lengthAdjust="spacing" textLength="43.4199" x="534.61" y="239.9702">vehicles</text><text fill="#000000" font-family="Helvetica" font-size="11" lengthAdjust="spacing" textLength="36.0776" x="581.0861" y="239.9702">Tabelle</text><text fill="#000000" font-family="Helvetica" font-size="11" lengthAdjust="spacing" textLength="128.9814" x="534.61" y="250.9702">Name, Marke, Modell, VIN</text><text fill="#000000" font-family="Helvetica" font-size="11" lengthAdjust="spacing" textLength="138.7783" x="534.61" y="261.9702">Nominale Kapazit&#228;t (Wh/Ah)</text><text fill="#000000" font-family="Helvetica" font-size="11" lengthAdjust="spacing" textLength="63.5938" x="534.61" y="272.9702">Fahrzeugbild</text></g><!--entity db_test--><g class="entity" data-qualified-name="db.db_test" data-source-line="17" id="ent0005"><rect fill="#EFF6FF" height="83" rx="4" ry="4" style="stroke:#000000;stroke-width:1;" width="140.4253" x="718.79" y="212"/><text fill="#000000" font-family="Helvetica" font-size="11" font-weight="bold" lengthAdjust="spacing" textLength="25.6792" x="728.79" y="223.4702">tests</text><text fill="#000000" font-family="Helvetica" font-size="11" lengthAdjust="spacing" textLength="36.0776" x="757.5254" y="223.4702">Tabelle</text><text fill="#000000" font-family="Helvetica" font-size="11" lengthAdjust="spacing" textLength="112.4976" x="728.79" y="234.4702">SOH (alle 6 Methoden)</text><text fill="#000000" font-family="Helvetica" font-size="11" lengthAdjust="spacing" textLength="113.416" x="728.79" y="245.4702">R_i (aktuell + Baseline)</text><text fill="#000000" font-family="Helvetica" font-size="11" lengthAdjust="spacing" textLength="120.4253" x="728.79" y="256.4702">SOC-Fenster, Divergenz</text><text fill="#000000" font-family="Helvetica" font-size="11" lengthAdjust="spacing" textLength="92.2915" x="728.79" y="267.4702">ICA-Peaks (JSON)</text><text fill="#000000" font-family="Helvetica" font-size="11" lengthAdjust="spacing" textLength="103.9092" x="728.79" y="278.4702">Analyse-Text (JSON)</text><text fill="#000000" font-family="Helvetica" font-size="11" lengthAdjust="spacing" textLength="79.4868" x="728.79" y="289.4702">Methoden-Flags</text></g><!--entity f_raw--><g class="entity" data-qualified-name="files.f_raw" data-source-line="22" id="ent0007"><rect fill="#F0FDF4" height="28" rx="4" ry="4" style="stroke:#000000;stroke-width:1;" width="122.7007" x="35.65" y="239.5"/><text fill="#000000" font-family="Helvetica" font-size="11" lengthAdjust="spacing" textLength="64.8076" x="45.65" y="250.9702">data_raw.csv</text><text fill="#000000" font-family="Helvetica" font-size="11" lengthAdjust="spacing" textLength="102.7007" x="45.65" y="261.9702">(Original-Messdaten)</text></g><!--entity f_interp--><g class="entity" data-qualified-name="files.f_interp" data-source-line="23" id="ent0008"><rect fill="#F0FDF4" height="28" rx="4" ry="4" style="stroke:#000000;stroke-width:1;" width="172.856" x="193.57" y="239.5"/><text fill="#000000" font-family="Helvetica" font-size="11" lengthAdjust="spacing" textLength="104.5698" x="203.57" y="250.9702">data_interpolated.csv</text><text fill="#000000" font-family="Helvetica" font-size="11" lengthAdjust="spacing" textLength="152.856" x="203.57" y="261.9702">(Bereinigte, interpolierte Daten)</text></g><!--entity f_charts--><g class="entity" data-qualified-name="files.f_charts" data-source-line="24" id="ent0009"><rect fill="#F0FDF4" height="39" rx="4" ry="4" style="stroke:#000000;stroke-width:1;" width="169.7891" x="36.11" y="462"/><ellipse cx="51.61" cy="468.5" fill="#000000" rx="2.5" ry="2.5"/><text fill="#000000" font-family="Helvetica" font-size="11" lengthAdjust="spacing" textLength="21.4092" x="58.11" y="473.4702">.png</text><text fill="#000000" font-family="Helvetica" font-size="11" lengthAdjust="spacing" textLength="149.7891" x="46.11" y="484.4702">(Diagramme: SOC, Spannung,</text><text fill="#000000" font-family="Helvetica" font-size="11" lengthAdjust="spacing" textLength="149.1445" x="46.11" y="495.4702">Strom, Temperatur, ICA, DVA)</text></g><!--entity pdf_detail--><g class="entity" data-qualified-name="pdf.pdf_detail" data-source-line="29" id="ent0011"><rect fill="#FEF3C7" height="83" rx="4" ry="4" style="stroke:#000000;stroke-width:1;" width="181.5679" x="474.22" y="440"/><text fill="#000000" font-family="Helvetica" font-size="11" lengthAdjust="spacing" textLength="145.6963" x="484.22" y="451.4702">&#8226; Titelseite mit Fahrzeugdaten</text><text fill="#000000" font-family="Helvetica" font-size="11" lengthAdjust="spacing" textLength="160.354" x="484.22" y="462.4702">&#8226; SOH-&#220;bersicht (alle Methoden)</text><text fill="#000000" font-family="Helvetica" font-size="11" lengthAdjust="spacing" textLength="159.1724" x="484.22" y="473.4702">&#8226; Messbedingungen (4 Gruppen)</text><text fill="#000000" font-family="Helvetica" font-size="11" lengthAdjust="spacing" textLength="109.0171" x="484.22" y="484.4702">&#8226; Methoden-Divergenz</text><text fill="#000000" font-family="Helvetica" font-size="11" lengthAdjust="spacing" textLength="85.1533" x="484.22" y="495.4702">&#8226; Alle Diagramme</text><text fill="#000000" font-family="Helvetica" font-size="11" lengthAdjust="spacing" textLength="148.1455" x="484.22" y="506.4702">&#8226; Regelbasierte Analyse-Texte</text><text fill="#000000" font-family="Helvetica" font-size="11" lengthAdjust="spacing" textLength="161.5679" x="484.22" y="517.4702">&#8226; Erweiterte Analyse (ICA-Peaks)</text></g><!--entity csv_detail--><g class="entity" data-qualified-name="csv_exp.csv_detail" data-source-line="33" id="ent0013"><rect fill="#EDE9FE" height="83" rx="4" ry="4" style="stroke:#000000;stroke-width:1;" width="147.1929" x="763.4" y="440"/><text fill="#000000" font-family="Helvetica" font-size="11" lengthAdjust="spacing" textLength="94.1445" x="773.4" y="451.4702">W&#228;hlbare Formate:</text><text fill="#000000" font-family="Helvetica" font-size="11" lengthAdjust="spacing" textLength="109.6133" x="773.4" y="462.4702">&#8226; Alle Daten (komplett)</text><text fill="#000000" font-family="Helvetica" font-size="11" lengthAdjust="spacing" textLength="99.854" x="773.4" y="473.4702">&#8226; Spannung &amp; Strom</text><text fill="#000000" font-family="Helvetica" font-size="11" lengthAdjust="spacing" textLength="82.1079" x="773.4" y="484.4702">&#8226; SOC &amp; Energie</text><text fill="#000000" font-family="Helvetica" font-size="11" lengthAdjust="spacing" textLength="84.541" x="773.4" y="495.4702">&#8226; Nur Temperatur</text><text fill="#000000" font-family="Helvetica" font-size="11" lengthAdjust="spacing" textLength="3.0562" x="773.4" y="506.4702">&#160;</text><text fill="#000000" font-family="Helvetica" font-size="11" lengthAdjust="spacing" textLength="127.1929" x="773.4" y="517.4702">Rohdaten oder interpoliert</text></g><!--entity input--><g class="entity" data-qualified-name="input" data-source-line="11" id="ent0002"><rect fill="#2C3E50" height="31" rx="4" ry="4" style="stroke:#000000;stroke-width:1;" width="112.9199" x="591.54" y="77"/><text fill="#FFFFFF" font-family="Helvetica" font-size="11" font-weight="bold" lengthAdjust="spacing" textLength="92.9199" x="601.54" y="95.4702">Analyse-Ergebnis</text></g><g class="entity" data-qualified-name="GMN20" data-source-line="45" id="ent0021"><path d="M981.73,464 L981.73,499 A4,4 0 0 0 985.73,503 L1166.2652,503 A4,4 0 0 0 1170.2652,499 L1170.2652,470 L1160.2652,460 L985.73,460 A4,4 0 0 0 981.73,464" fill="#FFFFFF" style="stroke:#000000;stroke-width:1;"/><path d="M1160.2652,460 L1160.2652,468 A2,2 0 0 0 1162.2652,470 L1170.2652,470 L1160.2652,460" fill="#FFFFFF" style="stroke:#000000;stroke-width:1;"/><text fill="#000000" font-family="Helvetica" font-size="11" lengthAdjust="spacing" textLength="139.4229" x="987.73" y="473.4702">Pro und Easy teilen dieselbe</text><text fill="#000000" font-family="Helvetica" font-size="11" lengthAdjust="spacing" textLength="129.0083" x="987.73" y="484.4702">Datenbank. Tests sind voll</text><text fill="#000000" font-family="Helvetica" font-size="11" lengthAdjust="spacing" textLength="167.5352" x="987.73" y="495.4702">kompatibel zwischen beiden Modi.</text></g><!--link input to db--><g class="link" data-entity-1="ent0002" data-entity-2="ent0003" data-link-type="dependency" data-source-line="37" id="lnk14"><path d="M704.9,99.83 C764.28,107.62 851.91,122.86 875,147 C879.06,151.2425 882.4236,156.0383 885.2007,161.187 C885.3743,161.5087 885.5456,161.8319 885.7146,162.1564 C885.7991,162.3187 883.1494,157.1402 883.2328,157.3031" fill="none" id="input-to-db" style="stroke:#000000;stroke-width:1;"/><polygon fill="#000000" points="885.9664,162.6442,885.4267,152.8101,883.6884,158.1932,878.3052,156.4549,885.9664,162.6442" style="stroke:#000000;stroke-width:1;"/></g><!--link input to files--><g class="link" data-entity-1="ent0002" data-entity-2="ent0006" data-link-type="dependency" data-source-line="38" id="lnk15"><path d="M594.41,108.4 C567.52,117.27 535.18,130.11 509,147 C481.38,164.815 455.0275,190.65 435.3863,212.295 C425.5656,223.1175 417.4228,232.8925 411.6383,240.0938 C411.2767,240.5438 410.9244,240.9839 410.5815,241.4135 C410.41,241.6282 413.9772,237.1457 413.8104,237.3553" fill="none" id="input-to-files" style="stroke:#000000;stroke-width:1;"/><polygon fill="#000000" points="410.0741,242.05,418.8083,237.4988,413.1877,238.1377,412.5487,232.5171,410.0741,242.05" style="stroke:#000000;stroke-width:1;"/></g><!--link db to pdf--><g class="link" data-entity-1="ent0003" data-entity-2="ent0010" data-link-type="dependency" data-source-line="39" id="lnk16"><path d="M885.4331,319.3568 C885.3728,319.4841 885.3123,319.6112 885.2514,319.7381 C885.0077,320.2457 884.7584,320.7502 884.5034,321.2514 C883.9933,322.2538 883.4602,323.2427 882.903,324.2159 C880.6744,328.1089 878.0613,331.7513 875,335 C854.56,356.69 769.93,355.97 747,375 C726.895,391.69 713.015,417.5075 704.1025,439.425 C702.9884,442.1647 701.952,444.8434 700.9907,447.4358 C700.5101,448.732 700.0482,450.0066 699.6048,451.2564 C699.494,451.5688 699.3843,451.8797 699.2758,452.1891 C699.2215,452.3437 701.1446,446.8331 701.0909,446.9869" fill="none" id="db-to-pdf" style="stroke:#000000;stroke-width:1;"/><polygon fill="#000000" points="699.1138,452.6518,705.8561,445.4725,700.7614,447.9311,698.3029,442.8364,699.1138,452.6518" style="stroke:#000000;stroke-width:1;"/><text fill="#000000" font-family="Helvetica" font-size="11" lengthAdjust="spacing" textLength="45.2461" x="861.78" y="352.4702">Daten f&#252;r</text><text fill="#000000" font-family="Helvetica" font-size="11" lengthAdjust="spacing" textLength="34.2354" x="867.2854" y="363.4702">Bericht</text></g><!--link files to pdf--><g class="link" data-entity-1="ent0006" data-entity-2="ent0010" data-link-type="dependency" data-source-line="40" id="lnk17"><path d="M410.1703,261.8444 C410.2552,261.9194 410.3407,261.9948 410.4269,262.0708 C410.5991,262.2226 410.7737,262.3764 410.9507,262.5321 C411.6585,263.155 412.4039,263.8085 413.1852,264.4906 C419.4353,269.9475 427.9831,277.235 437.9963,285.315 C458.0225,301.475 483.91,320.805 509,335 C541.97,353.66 551.2,358 588,367 C606.21,371.46 658.2,362.3 672,375 C676.3138,378.9688 679.8536,383.5581 682.7447,388.5553 C683.1061,389.18 683.4573,389.811 683.7987,390.448 C683.884,390.6072 681.1767,385.456 681.2608,385.616" fill="none" id="files-to-pdf" style="stroke:#000000;stroke-width:1;"/><polygon fill="#000000" points="684.0528,390.9268,683.4054,381.0992,681.7262,386.5011,676.3243,384.8219,684.0528,390.9268" style="stroke:#000000;stroke-width:1;"/><text fill="#000000" font-family="Helvetica" font-size="11" lengthAdjust="spacing" textLength="56.8477" x="589" y="352.4702">Diagramme</text><text fill="#000000" font-family="Helvetica" font-size="11" lengthAdjust="spacing" textLength="45.2622" x="594.7927" y="363.4702">einbetten</text></g><!--link db to csv_exp--><g class="link" data-entity-1="ent0003" data-entity-2="ent0012" data-link-type="dependency" data-source-line="41" id="lnk18"><path d="M903.0703,282.2981 C903.1599,282.614 903.25,282.9319 903.3405,283.2518 C903.7029,284.5315 904.0732,285.843 904.4506,287.1841 C905.2054,289.8663 905.9886,292.6669 906.7937,295.5675 C913.235,318.7725 921.08,348.38 927,375 C927.6363,377.8613 928.2661,380.7698 928.888,383.7089 C929.199,385.1785 929.5079,386.6557 929.8147,388.1385 C929.968,388.8799 930.1209,389.6227 930.2731,390.3666 C930.3112,390.5526 929.1493,384.8599 929.1872,385.046" fill="none" id="db-to-csv_exp" style="stroke:#000000;stroke-width:1;"/><polygon fill="#000000" points="930.3872,390.9248,932.5065,381.3066,929.3872,386.0258,924.6681,382.9065,930.3872,390.9248" style="stroke:#000000;stroke-width:1;"/><text fill="#000000" font-family="Helvetica" font-size="11" lengthAdjust="spacing" textLength="29.353" x="938.5896" y="352.4702">Daten</text><text fill="#000000" font-family="Helvetica" font-size="11" lengthAdjust="spacing" textLength="55.0322" x="925.75" y="363.4702">exportieren</text></g><!--link files to csv_exp--><g class="link" data-entity-1="ent0006" data-entity-2="ent0012" data-link-type="dependency" data-source-line="42" id="lnk19"><path d="M410.1056,263.4053 C410.2729,263.5821 410.4426,263.761 410.6146,263.942 C410.9587,264.3041 411.3122,264.6746 411.6748,265.0531 C417.4778,271.1094 425.6419,279.2225 435.4763,287.9075 C455.145,305.2775 481.495,324.935 509,335 C538.47,345.79 618.92,338.66 650,343 C698.27,349.74 708.7,360.5 757,367 C775.74,369.52 912.78,362.53 927,375 C931.4075,378.865 935.018,383.3763 937.9608,388.3162 C938.3287,388.9337 938.6861,389.5579 939.0333,390.1883 C939.1202,390.346 936.3552,385.2247 936.4407,385.3831" fill="none" id="files-to-csv_exp" style="stroke:#000000;stroke-width:1;"/><polygon fill="#000000" points="939.2919,390.6624,938.5347,380.8427,936.9159,386.263,931.4956,384.6442,939.2919,390.6624" style="stroke:#000000;stroke-width:1;"/></g><!--link db to GMN20--><g class="link" data-entity-1="ent0003" data-entity-2="ent0021" data-link-type="association" data-source-line="45" id="lnk22"><path d="M903.144,260.8478 C903.4834,261.1172 903.832,261.3944 904.1895,261.6793 C904.9045,262.2491 905.6552,262.8495 906.4392,263.4794 C912.7116,268.5181 921.1219,275.44 930.5363,283.6275 C949.365,300.0025 972.21,321.44 990,343 C1021.54,381.22 1050.36,431.88 1065.29,459.81" fill="none" id="db-GMN20" style="stroke:#000000;stroke-width:1;stroke-dasharray:7,7;"/></g><?plantuml-src RLNRRjj647tdLqnbe9LLKOhh94tTm80iaOsR-bBBS5u424jnH2wqt2LsbrAi840_94z5FgDl_fD-IMTvKKaZUf24cU6PcNDcXj_P53E4N30kFRFXCcUQPH2nrIRHgf3nL0cbuIWiFws86DUi43PKqbupGdY7OekMhzYtO-PyZt1oqdAQbCLgnsK2QoOCjZntLLujKSCRpxFS2eItqVcCMPGvQiCD_Ta3HK7mCLVQlXr7vmivpv6lKjG5OJhVf309Yt2jT4PFUjuFS2dpmdeQLvR9X41xWy54Cl5eq0zqWf7aPZ3e0JF0NIGS_JGz3Lwz-DNYHtksItc5ChTAimIxEFC__o2tNzOOCRaP31Qo7pFBnX6p5lNZafMPk1d5qN6P8uxWQ7OHJC80Fdb0dnNJiSFQOifN0gaMkAS6XC25T2GFuOhfZVjHCLc7y71vJHwLSO96UCzojkVswQk5_eTqF4cF5p9agTvZaKHSn7NI9S73KH26hqdGJbwBndQIpc_UGP_HNtWDLsXJIYi9z6x9oRon1KN1Zt3130ekyTWzCFL3bAIF7iACRv5ObVk5l9nE_5ja6mFzt-StrnJPy7vFr1wCJGu_52mnJRskh4F1dvq28QUIp2EboRegEFfvvIW5m78ypBZiRFp9_Inv_7bS2R0c64CQd8IJu5L70oVSKhFTQ6Ms17EZUU8uzg_GcDX9N0Eu65gE5-4iVFdySIw9XLm92ezhd0lKo2LFB6dOk3bgYp1hWrQkR-0EHhbC26V6MKARak4P4ED3cETCIXhx8IbWjSg6S8yPRGgp1Ub0v9CO3vC6VfKoukG0Np9QxP7fidax2tqgcPRAbco6pa22aecAhk3oU5rUXzFfhCFWlt_z3VUq4RJQz0qPjz3COadWGhe86Z3_wKlaTfgIrBFMcZGNupYFCAPBGHsYXFvB-4qNUTuAgAUcDN3EFd5W1wegsnqcA29cAjRRGrW717hd2cvveN-OtaFBonWjuu8w3wZpdns77UQcymU_ehGaxW9bOVUe_PdQIQ5ON07HK2nfGWdbD7WJTldxyFGrfK8rGbZThxDsKuv1w6zKbWkqjkQXcGBu7iefQ2YUaY4WqH9UztXTwDQ0B4YBEvMMgW3ng3kZUIYqwJYO1R-4GRs7GksywbJwTCobVqxx-inGBfb7jwunk8avWrxLm_hf7ogW7hAULstayyZ_9QJjYQXXbBqsOiDZWqfn9VTKluliWjR1dYSLQHmfQrK6QkqA1xZLgdgjCFC8T4e4bHXpfFiM8RaFrtr4_D550SCfUAk48ATJWrbEfnFsEsxeJIGXGaw3wUur7tb8iIwfzny0?></g></svg>