<?plantuml 1.2026.1?><svg xmlns="http://www.w3.org/2000/svg" xmlns:xlink="http://www.w3.org/1999/xlink" contentStyleType="text/css" data-diagram-type="ACTIVITY" height="1109px" preserveAspectRatio="none" style="width:1249px;height:1109px;background:#FFFFFF;" version="1.1" viewBox="0 0 1249 1109" width="1249px" zoomAndPan="magnify"><title>&lt;b&gt;Forschungsmethodik - &#220;bersicht&lt;/b&gt;
Masterarbeit: SOH-Bestimmung von Traktionsbatterien</title><defs/><g><g class="title" data-source-line="17"><text fill="#000000" font-family="Helvetica" font-size="22" font-weight="bold" lengthAdjust="spacing" textLength="344.7061" x="450.9209" y="31.9404">Forschungsmethodik - &#220;bersicht</text><text fill="#000000" font-family="Helvetica" font-size="22" font-weight="bold" lengthAdjust="spacing" textLength="575.7705" x="335.3887" y="53.9404">Masterarbeit: SOH-Bestimmung von Traktionsbatterien</text></g><rect fill="#FFFFFF" height="12" style="stroke:#FFFFFF;stroke-width:1;" width="1226.5479" x="10" y="71.2598"/><ellipse cx="122.3926" cy="98.2598" fill="#FFFFFF" rx="10" ry="10" style="stroke:#000000;stroke-width:1;"/><rect fill="#F0F4F8" height="44" rx="5" ry="5" style="stroke:#2C3E50;stroke-width:1;" width="194.709" x="25.0381" y="128.2598"/><text fill="#2C3E50" font-family="Helvetica" font-size="12" lengthAdjust="spacing" textLength="142.084" x="35.0381" y="147.5">Problemstellung definieren</text><text fill="#2C3E50" font-family="Helvetica" font-size="12" lengthAdjust="spacing" textLength="174.709" x="35.0381" y="159.5">(SOH-Bestimmung im Fahrzeug)</text><rect fill="#F0F4F8" height="44" rx="5" ry="5" style="stroke:#2C3E50;stroke-width:1;" width="210.0723" x="17.3564" y="192.2598"/><text fill="#2C3E50" font-family="Helvetica" font-size="12" lengthAdjust="spacing" textLength="97.3828" x="27.3564" y="211.5">Literaturrecherche</text><text fill="#2C3E50" font-family="Helvetica" font-size="12" lengthAdjust="spacing" textLength="190.0723" x="27.3564" y="223.5">(IEEE, ScienceDirect, SpringerLink)</text><rect fill="#F0F4F8" height="44" rx="5" ry="5" style="stroke:#2C3E50;stroke-width:1;" width="212.7852" x="16" y="256.2598"/><text fill="#2C3E50" font-family="Helvetica" font-size="12" lengthAdjust="spacing" textLength="192.7852" x="26" y="275.5">Theoretische Grundlagen erarbeiten</text><text fill="#2C3E50" font-family="Helvetica" font-size="12" lengthAdjust="spacing" textLength="192.7559" x="26" y="287.5">(Batteriealterung, SOH-Definitionen)</text><rect fill="#F0F4F8" height="44" rx="5" ry="5" style="stroke:#2C3E50;stroke-width:1;" width="190.7598" x="27.0127" y="320.2598"/><text fill="#2C3E50" font-family="Helvetica" font-size="12" lengthAdjust="spacing" textLength="162.0938" x="37.0127" y="339.5">Stand der Technik analysieren</text><text fill="#2C3E50" font-family="Helvetica" font-size="12" lengthAdjust="spacing" textLength="170.7598" x="37.0127" y="351.5">(Bestehende Diagnosesysteme)</text><line style="stroke:#000000;stroke-width:1;" x1="10" x2="10" y1="71.2598" y2="1102.2598"/><rect fill="#F0F4F8" height="44" rx="5" ry="5" style="stroke:#2C3E50;stroke-width:1;" width="221.7207" x="251.9717" y="384.2598"/><text fill="#2C3E50" font-family="Helvetica" font-size="12" lengthAdjust="spacing" textLength="156.0879" x="261.9717" y="403.5">Diagnosesysteme ausw&#228;hlen</text><text fill="#2C3E50" font-family="Helvetica" font-size="12" lengthAdjust="spacing" textLength="201.7207" x="261.9717" y="415.5">(AVL HV-Check, OBD2 MX+, AUTEL)</text><rect fill="#F0F4F8" height="44" rx="5" ry="5" style="stroke:#2C3E50;stroke-width:1;" width="196.0859" x="264.7891" y="448.2598"/><text fill="#2C3E50" font-family="Helvetica" font-size="12" lengthAdjust="spacing" textLength="133.3887" x="274.7891" y="467.5">Messprotokoll entwickeln</text><text fill="#2C3E50" font-family="Helvetica" font-size="12" lengthAdjust="spacing" textLength="176.0859" x="274.7891" y="479.5">(Standardisierte Testprozeduren)</text><rect fill="#F0F4F8" height="44" rx="5" ry="5" style="stroke:#2C3E50;stroke-width:1;" width="248.0938" x="238.7852" y="512.2598"/><text fill="#2C3E50" font-family="Helvetica" font-size="12" lengthAdjust="spacing" textLength="210.1289" x="248.7852" y="531.5">SOH-Berechnungsmethoden definieren</text><text fill="#2C3E50" font-family="Helvetica" font-size="12" lengthAdjust="spacing" textLength="228.0938" x="248.7852" y="543.5">(Kapazit&#228;t, Energie, Widerstand, ICA/DVA)</text><line style="stroke:#000000;stroke-width:1;" x1="232.7852" x2="232.7852" y1="71.2598" y2="1102.2598"/><rect fill="#F0F4F8" height="44" rx="5" ry="5" style="stroke:#2C3E50;stroke-width:1;" width="199.373" x="503.2393" y="576.2598"/><text fill="#2C3E50" font-family="Helvetica" font-size="12" lengthAdjust="spacing" textLength="166.7637" x="513.2393" y="595.5">Versuchsfahrzeuge vorbereiten</text><text fill="#2C3E50" font-family="Helvetica" font-size="12" lengthAdjust="spacing" textLength="179.373" x="513.2393" y="607.5">(VW ID.4, BMW i3s, Skoda Elroq)</text><rect fill="#F0F4F8" height="44" rx="5" ry="5" style="stroke:#2C3E50;stroke-width:1;" width="206.7617" x="499.5449" y="640.2598"/><text fill="#2C3E50" font-family="Helvetica" font-size="12" lengthAdjust="spacing" textLength="129.416" x="509.5449" y="659.5">Messungen durchf&#252;hren</text><text fill="#2C3E50" font-family="Helvetica" font-size="12" lengthAdjust="spacing" textLength="186.7617" x="509.5449" y="671.5">(Snapshot, Kontinuierlich, Pulstest)</text><rect fill="#F0F4F8" height="44" rx="5" ry="5" style="stroke:#2C3E50;stroke-width:1;" width="212.0938" x="496.8789" y="704.2598"/><text fill="#2C3E50" font-family="Helvetica" font-size="12" lengthAdjust="spacing" textLength="164.7305" x="506.8789" y="723.5">Software-Werkzeug entwickeln</text><text fill="#2C3E50" font-family="Helvetica" font-size="12" lengthAdjust="spacing" textLength="192.0938" x="506.8789" y="735.5">(Python-Applikation f&#252;r Auswertung)</text><line style="stroke:#000000;stroke-width:1;" x1="490.8789" x2="490.8789" y1="71.2598" y2="1102.2598"/><rect fill="#F0F4F8" height="32" rx="5" ry="5" style="stroke:#2C3E50;stroke-width:1;" width="230.1406" x="726.9678" y="768.2598"/><text fill="#2C3E50" font-family="Helvetica" font-size="12" lengthAdjust="spacing" textLength="210.1406" x="736.9678" y="787.5">Messdaten aufbereiten und analysieren</text><rect fill="#F0F4F8" height="32" rx="5" ry="5" style="stroke:#2C3E50;stroke-width:1;" width="246.1309" x="718.9727" y="820.2598"/><text fill="#2C3E50" font-family="Helvetica" font-size="12" lengthAdjust="spacing" textLength="226.1309" x="728.9727" y="839.5">SOH-Methoden vergleichen und validieren</text><rect fill="#F0F4F8" height="32" rx="5" ry="5" style="stroke:#2C3E50;stroke-width:1;" width="174.084" x="754.9961" y="872.2598"/><text fill="#2C3E50" font-family="Helvetica" font-size="12" lengthAdjust="spacing" textLength="154.084" x="764.9961" y="891.5">Reproduzierbarkeit bewerten</text><line style="stroke:#000000;stroke-width:1;" x1="712.9727" x2="712.9727" y1="71.2598" y2="1102.2598"/><rect fill="#F0F4F8" height="32" rx="5" ry="5" style="stroke:#2C3E50;stroke-width:1;" width="202.7773" x="1002.1035" y="924.2598"/><text fill="#2C3E50" font-family="Helvetica" font-size="12" lengthAdjust="spacing" textLength="182.7773" x="1012.1035" y="943.5">Standardisierte Anleitung erstellen</text><rect fill="#F0F4F8" height="32" rx="5" ry="5" style="stroke:#2C3E50;stroke-width:1;" width="221.4688" x="992.7578" y="976.2598"/><text fill="#2C3E50" font-family="Helvetica" font-size="12" lengthAdjust="spacing" textLength="201.4688" x="1002.7578" y="995.5">Ergebnisse diskutieren und einordnen</text><rect fill="#F0F4F8" height="32" rx="5" ry="5" style="stroke:#2C3E50;stroke-width:1;" width="256.7773" x="975.1035" y="1028.2598"/><text fill="#2C3E50" font-family="Helvetica" font-size="12" lengthAdjust="spacing" textLength="236.7773" x="985.1035" y="1047.5">Zusammenfassung und Ausblick formulieren</text><ellipse cx="1103.4922" cy="1091.2598" fill="none" rx="11" ry="11" style="stroke:#000000;stroke-width:1;"/><ellipse cx="1103.4922" cy="1091.2598" fill="#FFFFFF" rx="6" ry="6" style="stroke:#000000;stroke-width:1;"/><line style="stroke:#000000;stroke-width:1;" x1="969.1035" x2="969.1035" y1="71.2598" y2="1102.2598"/><line style="stroke:#000000;stroke-width:1;" x1="1235.8809" x2="1235.8809" y1="71.2598" y2="1102.2598"/><line style="stroke:#2C3E50;stroke-width:1;" x1="122.3926" x2="122.3926" y1="108.2598" y2="128.2598"/><polygon fill="#2C3E50" points="118.3926,118.2598,122.3926,128.2598,126.3926,118.2598,122.3926,122.2598" style="stroke:#2C3E50;stroke-width:1;"/><line style="stroke:#2C3E50;stroke-width:1;" x1="122.3926" x2="122.3926" y1="172.2598" y2="192.2598"/><polygon fill="#2C3E50" points="118.3926,182.2598,122.3926,192.2598,126.3926,182.2598,122.3926,186.2598" style="stroke:#2C3E50;stroke-width:1;"/><line style="stroke:#2C3E50;stroke-width:1;" x1="122.3926" x2="122.3926" y1="236.2598" y2="256.2598"/><polygon fill="#2C3E50" points="118.3926,246.2598,122.3926,256.2598,126.3926,246.2598,122.3926,250.2598" style="stroke:#2C3E50;stroke-width:1;"/><line style="stroke:#2C3E50;stroke-width:1;" x1="122.3926" x2="122.3926" y1="300.2598" y2="320.2598"/><polygon fill="#2C3E50" points="118.3926,310.2598,122.3926,320.2598,126.3926,310.2598,122.3926,314.2598" style="stroke:#2C3E50;stroke-width:1;"/><line style="stroke:#2C3E50;stroke-width:1;" x1="362.832" x2="362.832" y1="428.2598" y2="448.2598"/><polygon fill="#2C3E50" points="358.832,438.2598,362.832,448.2598,366.832,438.2598,362.832,442.2598" style="stroke:#2C3E50;stroke-width:1;"/><line style="stroke:#2C3E50;stroke-width:1;" x1="362.832" x2="362.832" y1="492.2598" y2="512.2598"/><polygon fill="#2C3E50" points="358.832,502.2598,362.832,512.2598,366.832,502.2598,362.832,506.2598" style="stroke:#2C3E50;stroke-width:1;"/><line style="stroke:#2C3E50;stroke-width:1;" x1="602.9258" x2="602.9258" y1="620.2598" y2="640.2598"/><polygon fill="#2C3E50" points="598.9258,630.2598,602.9258,640.2598,606.9258,630.2598,602.9258,634.2598" style="stroke:#2C3E50;stroke-width:1;"/><line style="stroke:#2C3E50;stroke-width:1;" x1="602.9258" x2="602.9258" y1="684.2598" y2="704.2598"/><polygon fill="#2C3E50" points="598.9258,694.2598,602.9258,704.2598,606.9258,694.2598,602.9258,698.2598" style="stroke:#2C3E50;stroke-width:1;"/><line style="stroke:#2C3E50;stroke-width:1;" x1="842.0381" x2="842.0381" y1="800.2598" y2="820.2598"/><polygon fill="#2C3E50" points="838.0381,810.2598,842.0381,820.2598,846.0381,810.2598,842.0381,814.2598" style="stroke:#2C3E50;stroke-width:1;"/><line style="stroke:#2C3E50;stroke-width:1;" x1="842.0381" x2="842.0381" y1="852.2598" y2="872.2598"/><polygon fill="#2C3E50" points="838.0381,862.2598,842.0381,872.2598,846.0381,862.2598,842.0381,866.2598" style="stroke:#2C3E50;stroke-width:1;"/><line style="stroke:#2C3E50;stroke-width:1;" x1="1103.4922" x2="1103.4922" y1="956.2598" y2="976.2598"/><polygon fill="#2C3E50" points="1099.4922,966.2598,1103.4922,976.2598,1107.4922,966.2598,1103.4922,970.2598" style="stroke:#2C3E50;stroke-width:1;"/><line style="stroke:#2C3E50;stroke-width:1;" x1="1103.4922" x2="1103.4922" y1="1008.2598" y2="1028.2598"/><polygon fill="#2C3E50" points="1099.4922,1018.2598,1103.4922,1028.2598,1107.4922,1018.2598,1103.4922,1022.2598" style="stroke:#2C3E50;stroke-width:1;"/><line style="stroke:#2C3E50;stroke-width:1;" x1="1103.4922" x2="1103.4922" y1="1060.2598" y2="1080.2598"/><polygon fill="#2C3E50" points="1099.4922,1070.2598,1103.4922,1080.2598,1107.4922,1070.2598,1103.4922,1074.2598" style="stroke:#2C3E50;stroke-width:1;"/><line style="stroke:#2C3E50;stroke-width:1;" x1="122.3926" x2="122.3926" y1="364.2598" y2="369.2598"/><line style="stroke:#2C3E50;stroke-width:1;" x1="122.3926" x2="362.832" y1="369.2598" y2="369.2598"/><line style="stroke:#2C3E50;stroke-width:1;" x1="362.832" x2="362.832" y1="369.2598" y2="384.2598"/><polygon fill="#2C3E50" points="358.832,374.2598,362.832,384.2598,366.832,374.2598,362.832,378.2598" style="stroke:#2C3E50;stroke-width:1;"/><line style="stroke:#2C3E50;stroke-width:1;" x1="362.832" x2="362.832" y1="556.2598" y2="561.2598"/><line style="stroke:#2C3E50;stroke-width:1;" x1="362.832" x2="602.9258" y1="561.2598" y2="561.2598"/><line style="stroke:#2C3E50;stroke-width:1;" x1="602.9258" x2="602.9258" y1="561.2598" y2="576.2598"/><polygon fill="#2C3E50" points="598.9258,566.2598,602.9258,576.2598,606.9258,566.2598,602.9258,570.2598" style="stroke:#2C3E50;stroke-width:1;"/><line style="stroke:#2C3E50;stroke-width:1;" x1="602.9258" x2="602.9258" y1="748.2598" y2="753.2598"/><line style="stroke:#2C3E50;stroke-width:1;" x1="602.9258" x2="842.0381" y1="753.2598" y2="753.2598"/><line style="stroke:#2C3E50;stroke-width:1;" x1="842.0381" x2="842.0381" y1="753.2598" y2="768.2598"/><polygon fill="#2C3E50" points="838.0381,758.2598,842.0381,768.2598,846.0381,758.2598,842.0381,762.2598" style="stroke:#2C3E50;stroke-width:1;"/><line style="stroke:#2C3E50;stroke-width:1;" x1="842.0381" x2="842.0381" y1="904.2598" y2="909.2598"/><line style="stroke:#2C3E50;stroke-width:1;" x1="842.0381" x2="1103.4922" y1="909.2598" y2="909.2598"/><line style="stroke:#2C3E50;stroke-width:1;" x1="1103.4922" x2="1103.4922" y1="909.2598" y2="924.2598"/><polygon fill="#2C3E50" points="1099.4922,914.2598,1103.4922,924.2598,1107.4922,914.2598,1103.4922,918.2598" style="stroke:#2C3E50;stroke-width:1;"/><text fill="#000000" font-family="Helvetica" font-size="12" lengthAdjust="spacing" textLength="97.3828" x="72.7012" y="80.5">Literaturrecherche</text><text fill="#000000" font-family="Helvetica" font-size="12" lengthAdjust="spacing" textLength="48.6914" x="337.4863" y="80.5">Methodik</text><text fill="#000000" font-family="Helvetica" font-size="12" lengthAdjust="spacing" textLength="155.4141" x="524.2188" y="80.5">Experimentelle Durchf&#252;hrung</text><text fill="#000000" font-family="Helvetica" font-size="12" lengthAdjust="spacing" textLength="63.3691" x="809.3535" y="80.5">Auswertung</text><text fill="#000000" font-family="Helvetica" font-size="12" lengthAdjust="spacing" textLength="47.3613" x="1078.8115" y="80.5">Ergebnis</text><?plantuml-src RLJRRjD047ttLmpY1KG2fHU4IeMKAwtQqAejAKAyZEr9lF9wryok4nh2d_3Op-0jFyQiuq3QOicoTkTsBfCyyHaL1AL6PIANArCYOm4n9lcKRMNIdjMMuUcmVhOoKffWfVtG6lyHfSCnwHbvbU3_SwxKWk3rxbRGPPZQkJ9JcA1sj1MvNCzbGmolTwAj22PUpPI_XHyHoDDzX79dk3zykuvPJecR-ztUtk1WfxuFO1xVTfZj_F5rNs5XJThzZnfxlVwzbErnRm_UxE_iHp-Zo2kl2OxYzqFBBiagCtK5-SocAeSsh7x5n4ubcJzw5R__QaReF35oJCeVmjNvSRjBpgkYa3gOMGFNZBbNrhWOlMGgCb6qF5EXo5VCb6J4yYuZvv5zT7Z1DjPKI5UjGmynH1b5JEQhUVQWlofWY1alg9e-VnSTFkug9IU3mQ05LuaCJgYl9EJbMBAuI7ocJ1ughpEoBAiWV0a-iAYcSKe6DipguTs606hvoFXMJRTVumiCoOHMLnvDAgWPhWM54T7GeBvr6me1FcLaKWe-J8rrv6xbgY2fZfQZHkfbTFWW35Yv-UekqtMRplWCZiVjNaP9teBpRdyNHfzVjA3pwNfm5d2CoBcIhRUvrHh8-BbASjArYW4YSge2A4y2r7b9NL1QSKEYrZd8QFxvBthSC-CKIrmelxeJGGUo-5D5BRXHGjs50IquwNLUzSUTcjVWUodQ5O93V1NgbTWpMVtEWf32TIn5LPAvIMCdoUw8yhpHVdm39_sN-oteZcv0xJdHFhSfma2p_RQXAwq2nh-jrojZi7IP5OodyZDIfXBuMlQt1HUL5c6ThmdRYPyZK_k6E0y0xYjsSIi2c7QdBBNACPWDCe6X8vQ8X3Au9ldlk5mZIb7WYt6J3HMGrTfUY4RhqKRWcSYeIU0rgJFKAjraNfAub5OBESV8kJI4cCB041M9UKgnKMxPBE6MmnqZJGCk2EO41qA_JO4ZaCoyylMWUYuf8_yEfaxxKZainBa9rXBNSM4QYuevJ2mNbMuGEc_Bw0y0?></g></svg>