<?plantuml 1.2026.1?><svg xmlns="http://www.w3.org/2000/svg" xmlns:xlink="http://www.w3.org/1999/xlink" contentStyleType="text/css" data-diagram-type="DESCRIPTION" height="551px" preserveAspectRatio="none" style="width:1440px;height:551px;background:#FFFFFF;" version="1.1" viewBox="0 0 1440 551" width="1440px" zoomAndPan="magnify"><title>&lt;b&gt;Klassifikation der SOH-Bestimmungsmethoden&lt;/b&gt;
&#220;bersicht aller Verfahren mit Einordnung der eigenen Arbeit</title><defs/><g><g class="title" data-source-line="8"><text fill="#000000" font-family="Helvetica" font-size="22" font-weight="bold" lengthAdjust="spacing" textLength="495.0859" x="468.3906" y="31.9404">Klassifikation der SOH-Bestimmungsmethoden</text><text fill="#000000" font-family="Helvetica" font-size="22" font-weight="bold" lengthAdjust="spacing" textLength="629.5674" x="401.1498" y="53.9404">&#220;bersicht aller Verfahren mit Einordnung der eigenen Arbeit</text></g><!--cluster own--><g class="cluster" data-qualified-name="own" data-source-line="54" id="ent0031"><rect fill="#FDE8E8" height="127" rx="4" ry="4" style="stroke:#000000;stroke-width:1;" width="229" x="775.12" y="341"/><text fill="#000000" font-family="Helvetica" font-size="10" font-weight="bold" lengthAdjust="spacing" textLength="141.1475" x="819.0463" y="350.7002">In dieser Arbeit implementiert</text></g><!--entity own_detail--><g class="entity" data-qualified-name="own.own_detail" data-source-line="55" id="ent0032"><rect fill="#FEE2E2" height="66" rx="4" ry="4" style="stroke:#000000;stroke-width:1;" width="161.5576" x="799.34" y="378"/><text fill="#000000" font-family="Helvetica" font-size="10" lengthAdjust="spacing" textLength="139.917" x="809.34" y="388.7002">&#10003; Kapazit&#228;tsbasiert (Q/Q_nom)</text><text fill="#000000" font-family="Helvetica" font-size="10" lengthAdjust="spacing" textLength="119.5898" x="809.34" y="398.7002">&#10003; SOHe - Energie (&#8747;V&#215;I dt)</text><text fill="#000000" font-family="Helvetica" font-size="10" lengthAdjust="spacing" textLength="112.0703" x="809.34" y="408.7002">&#10003; SOHc - Coulomb (&#8747;I dt)</text><text fill="#000000" font-family="Helvetica" font-size="10" lengthAdjust="spacing" textLength="141.5576" x="809.34" y="418.7002">&#10003; SOH_R - Widerstand (HPPC)</text><text fill="#000000" font-family="Helvetica" font-size="10" lengthAdjust="spacing" textLength="116.5771" x="809.34" y="428.7002">&#10003; ICA/DVA - Peakanalyse</text><text fill="#000000" font-family="Helvetica" font-size="10" lengthAdjust="spacing" textLength="113.2471" x="809.34" y="438.7002">&#10003; AVL-Referenzvergleich</text></g><!--entity root--><g class="entity" data-qualified-name="root" data-source-line="11" id="ent0002"><rect fill="#2C3E50" height="30" rx="4" ry="4" style="stroke:#000000;stroke-width:1;" width="105.5615" x="550.34" y="77"/><text fill="#FFFFFF" font-family="Helvetica" font-size="10" font-weight="bold" lengthAdjust="spacing" textLength="85.5615" x="560.34" y="94.7002">SOH-Bestimmung</text></g><!--entity direct--><g class="entity" data-qualified-name="direct" data-source-line="14" id="ent0003"><rect fill="#DBEAFE" height="40" rx="4" ry="4" style="stroke:#000000;stroke-width:1;" width="100.0244" x="233.11" y="167"/><text fill="#000000" font-family="Helvetica" font-size="10" font-weight="bold" lengthAdjust="spacing" textLength="80.0244" x="243.11" y="184.7002">Direkte Messung</text><text fill="#000000" font-family="Helvetica" font-size="10" lengthAdjust="spacing" textLength="62.251" x="243.11" y="194.7002">(Laborbasiert)</text></g><!--entity model--><g class="entity" data-qualified-name="model" data-source-line="15" id="ent0004"><rect fill="#D1FAE5" height="40" rx="4" ry="4" style="stroke:#000000;stroke-width:1;" width="133.9111" x="536.17" y="167"/><text fill="#000000" font-family="Helvetica" font-size="10" font-weight="bold" lengthAdjust="spacing" textLength="64.458" x="546.17" y="184.7002">Modellbasiert</text><text fill="#000000" font-family="Helvetica" font-size="10" lengthAdjust="spacing" textLength="113.9111" x="546.17" y="194.7002">(Physikalisch / Empirisch)</text></g><!--entity data--><g class="entity" data-qualified-name="data" data-source-line="16" id="ent0005"><rect fill="#FFF3CD" height="40" rx="4" ry="4" style="stroke:#000000;stroke-width:1;" width="92.793" x="1016.72" y="167"/><text fill="#000000" font-family="Helvetica" font-size="10" font-weight="bold" lengthAdjust="spacing" textLength="72.793" x="1026.72" y="184.7002">Datengetrieben</text><text fill="#000000" font-family="Helvetica" font-size="10" lengthAdjust="spacing" textLength="64.4727" x="1026.72" y="194.7002">(Signalbasiert)</text></g><!--entity d1--><g class="entity" data-qualified-name="d1" data-source-line="23" id="ent0009"><rect fill="#EFF6FF" height="50" rx="4" ry="4" style="stroke:#000000;stroke-width:1;" width="102.2412" x="12" y="267"/><text fill="#000000" font-family="Helvetica" font-size="10" lengthAdjust="spacing" textLength="57.8125" x="22" y="284.7002">Vollst&#228;ndiger</text><text fill="#000000" font-family="Helvetica" font-size="10" lengthAdjust="spacing" textLength="62.8125" x="22" y="294.7002">Kapazit&#228;tstest</text><text fill="#000000" font-family="Helvetica" font-size="10" lengthAdjust="spacing" textLength="82.2412" x="22" y="304.7002">(CC-CV 0&#8594;100%)</text></g><!--entity d2--><g class="entity" data-qualified-name="d2" data-source-line="24" id="ent0010"><rect fill="#EFF6FF" height="50" rx="4" ry="4" style="stroke:#000000;stroke-width:1;" width="125.6152" x="149.31" y="267"/><text fill="#000000" font-family="Helvetica" font-size="10" lengthAdjust="spacing" textLength="78.9209" x="159.31" y="284.7002">Elektrochemische</text><text fill="#000000" font-family="Helvetica" font-size="10" lengthAdjust="spacing" textLength="105.6152" x="159.31" y="294.7002">Impedanzspektroskopie</text><text fill="#000000" font-family="Helvetica" font-size="10" lengthAdjust="spacing" textLength="22.7783" x="159.31" y="304.7002">(EIS)</text></g><!--entity d3--><g class="entity" data-qualified-name="d3" data-source-line="25" id="ent0011"><rect fill="#EFF6FF" height="40" rx="4" ry="4" style="stroke:#000000;stroke-width:1;" width="88.9111" x="309.67" y="272"/><text fill="#000000" font-family="Helvetica" font-size="10" lengthAdjust="spacing" textLength="68.9111" x="319.67" y="289.7002">Kalorimetrische</text><text fill="#000000" font-family="Helvetica" font-size="10" lengthAdjust="spacing" textLength="40.5762" x="319.67" y="299.7002">Messung</text></g><!--entity m1--><g class="entity" data-qualified-name="m1" data-source-line="32" id="ent0015"><rect fill="#F0FDF4" height="50" rx="4" ry="4" style="stroke:#000000;stroke-width:1;" width="94.4775" x="433.88" y="267"/><text fill="#000000" font-family="Helvetica" font-size="10" lengthAdjust="spacing" textLength="50.0293" x="443.88" y="284.7002">&#196;quivalent-</text><text fill="#000000" font-family="Helvetica" font-size="10" lengthAdjust="spacing" textLength="74.4775" x="443.88" y="294.7002">schaltbild-Modell</text><text fill="#000000" font-family="Helvetica" font-size="10" lengthAdjust="spacing" textLength="28.8818" x="443.88" y="304.7002">(ECM)</text></g><!--entity m2--><g class="entity" data-qualified-name="m2" data-source-line="33" id="ent0016"><rect fill="#F0FDF4" height="40" rx="4" ry="4" style="stroke:#000000;stroke-width:1;" width="79.458" x="563.39" y="272"/><text fill="#000000" font-family="Helvetica" font-size="10" lengthAdjust="spacing" textLength="59.458" x="573.39" y="289.7002">Kalman-Filter</text><text fill="#000000" font-family="Helvetica" font-size="10" lengthAdjust="spacing" textLength="51.665" x="573.39" y="299.7002">(EKF, UKF)</text></g><!--entity m3--><g class="entity" data-qualified-name="m3" data-source-line="34" id="ent0017"><rect fill="#F0FDF4" height="40" rx="4" ry="4" style="stroke:#000000;stroke-width:1;" width="91.7041" x="678.27" y="272"/><text fill="#000000" font-family="Helvetica" font-size="10" lengthAdjust="spacing" textLength="46.1279" x="688.27" y="289.7002">Arrhenius-</text><text fill="#000000" font-family="Helvetica" font-size="10" lengthAdjust="spacing" textLength="71.7041" x="688.27" y="299.7002">Alterungsmodell</text></g><!--entity dd1--><g class="entity" data-qualified-name="dd1" data-source-line="41" id="ent0021"><rect fill="#FEF3C7" height="40" rx="4" ry="4" style="stroke:#000000;stroke-width:1;" width="103.3789" x="805.43" y="272"/><text fill="#000000" font-family="Helvetica" font-size="10" lengthAdjust="spacing" textLength="83.3789" x="815.43" y="289.7002">Coulomb-Counting</text><text fill="#000000" font-family="Helvetica" font-size="10" lengthAdjust="spacing" textLength="23.2959" x="815.43" y="299.7002">(&#8747;I dt)</text></g><!--entity dd2--><g class="entity" data-qualified-name="dd2" data-source-line="42" id="ent0022"><rect fill="#FEF3C7" height="40" rx="4" ry="4" style="stroke:#000000;stroke-width:1;" width="105.0537" x="943.59" y="272"/><text fill="#000000" font-family="Helvetica" font-size="10" lengthAdjust="spacing" textLength="85.0537" x="953.59" y="289.7002">Energie-Integration</text><text fill="#000000" font-family="Helvetica" font-size="10" lengthAdjust="spacing" textLength="35.8057" x="953.59" y="299.7002">(&#8747;V&#215;I dt)</text></g><!--entity dd3--><g class="entity" data-qualified-name="dd3" data-source-line="43" id="ent0023"><rect fill="#FEF3C7" height="40" rx="4" ry="4" style="stroke:#000000;stroke-width:1;" width="93.3838" x="1083.43" y="272"/><text fill="#000000" font-family="Helvetica" font-size="10" lengthAdjust="spacing" textLength="73.3838" x="1093.43" y="289.7002">Innenwiderstand</text><text fill="#000000" font-family="Helvetica" font-size="10" lengthAdjust="spacing" textLength="66.6699" x="1093.43" y="299.7002">(HPPC, &#916;V/&#916;I)</text></g><!--entity dd4--><g class="entity" data-qualified-name="dd4" data-source-line="44" id="ent0024"><rect fill="#FEF3C7" height="40" rx="4" ry="4" style="stroke:#000000;stroke-width:1;" width="88.916" x="1211.66" y="272"/><text fill="#000000" font-family="Helvetica" font-size="10" lengthAdjust="spacing" textLength="45.5664" x="1221.66" y="289.7002">ICA / DVA</text><text fill="#000000" font-family="Helvetica" font-size="10" lengthAdjust="spacing" textLength="68.916" x="1221.66" y="299.7002">(dQ/dV, dV/dQ)</text></g><!--entity dd5--><g class="entity" data-qualified-name="dd5" data-source-line="45" id="ent0025"><rect fill="#FEF3C7" height="40" rx="4" ry="4" style="stroke:#000000;stroke-width:1;" width="99.4971" x="1335.37" y="272"/><text fill="#000000" font-family="Helvetica" font-size="10" lengthAdjust="spacing" textLength="79.4971" x="1345.37" y="289.7002">Machine Learning</text><text fill="#000000" font-family="Helvetica" font-size="10" lengthAdjust="spacing" textLength="67.2168" x="1345.37" y="299.7002">(NN, GPR, RF)</text></g><g class="entity" data-qualified-name="GMN36" data-source-line="63" id="ent0037"><path d="M904.18,508 L904.18,540 A4,4 0 0 0 908.18,544 L1084.056,544 A4,4 0 0 0 1088.056,540 L1088.056,514 L1078.056,504 L908.18,504 A4,4 0 0 0 904.18,508" fill="#FFFFFF" style="stroke:#000000;stroke-width:1;"/><path d="M1078.056,504 L1078.056,512 A2,2 0 0 0 1080.056,514 L1088.056,514 L1078.056,504" fill="#FFFFFF" style="stroke:#000000;stroke-width:1;"/><text fill="#000000" font-family="Helvetica" font-size="10" lengthAdjust="spacing" textLength="149.5215" x="910.18" y="516.7002">Alle markierten Methoden werden</text><text fill="#000000" font-family="Helvetica" font-size="10" font-weight="bold" lengthAdjust="spacing" textLength="35.0195" x="910.18" y="526.7002">parallel</text><text fill="#000000" font-family="Helvetica" font-size="10" lengthAdjust="spacing" textLength="125.0781" x="947.9779" y="526.7002">aus denselben OBD2-Daten</text><text fill="#000000" font-family="Helvetica" font-size="10" lengthAdjust="spacing" textLength="115.0781" x="910.18" y="536.7002">berechnet und verglichen.</text></g><!--link root to direct--><g class="link" data-entity-1="ent0002" data-entity-2="ent0003" data-link-type="dependency" data-source-line="18" id="lnk6"><path d="M553.47,107.43 C493.61,124.83 399.3216,152.2256 339.1716,169.7056" fill="none" id="root-to-direct" style="stroke:#000000;stroke-width:1;"/><polygon fill="#000000" points="333.41,171.38,343.1687,172.7095,338.2114,169.9847,340.9362,165.0274,333.41,171.38" style="stroke:#000000;stroke-width:1;"/></g><!--link root to model--><g class="link" data-entity-1="ent0002" data-entity-2="ent0004" data-link-type="dependency" data-source-line="19" id="lnk7"><path d="M603.12,107.12 C603.12,122.98 603.12,142.8 603.12,160.55" fill="none" id="root-to-model" style="stroke:#000000;stroke-width:1;"/><polygon fill="#000000" points="603.12,166.55,607.12,157.55,603.12,161.55,599.12,157.55,603.12,166.55" style="stroke:#000000;stroke-width:1;"/></g><!--link root to data--><g class="link" data-entity-1="ent0002" data-entity-2="ent0005" data-link-type="dependency" data-source-line="20" id="lnk8"><path d="M656.34,103.76 C747.03,122.1 924.199,157.9111 1010.369,175.3311" fill="none" id="root-to-data" style="stroke:#000000;stroke-width:1;"/><polygon fill="#000000" points="1016.25,176.52,1008.2211,170.816,1011.3491,175.5292,1006.6359,178.6573,1016.25,176.52" style="stroke:#000000;stroke-width:1;"/></g><!--link direct to d1--><g class="link" data-entity-1="ent0003" data-entity-2="ent0009" data-link-type="dependency" data-source-line="27" id="lnk12"><path d="M241.48,207.49 C205.48,224.35 158.7237,246.2355 120.0937,264.3255" fill="none" id="direct-to-d1" style="stroke:#000000;stroke-width:1;"/><polygon fill="#000000" points="114.66,266.87,124.5069,266.6757,119.1881,264.7495,121.1142,259.4307,114.66,266.87" style="stroke:#000000;stroke-width:1;"/></g><!--link direct to d2--><g class="link" data-entity-1="ent0003" data-entity-2="ent0010" data-link-type="dependency" data-source-line="28" id="lnk13"><path d="M269.77,207.37 C258.2,224.16 244.8059,243.5804 232.3259,261.6804" fill="none" id="direct-to-d2" style="stroke:#000000;stroke-width:1;"/><polygon fill="#000000" points="228.92,266.62,237.3219,261.4811,231.7582,262.5036,230.7357,256.94,228.92,266.62" style="stroke:#000000;stroke-width:1;"/></g><!--link direct to d3--><g class="link" data-entity-1="ent0003" data-entity-2="ent0011" data-link-type="dependency" data-source-line="29" id="lnk14"><path d="M296.48,207.37 C309.17,225.79 324.7428,248.3912 337.4228,266.7712" fill="none" id="direct-to-d3" style="stroke:#000000;stroke-width:1;"/><polygon fill="#000000" points="340.83,271.71,339.0118,262.0304,337.9907,267.5944,332.4268,266.5733,340.83,271.71" style="stroke:#000000;stroke-width:1;"/></g><!--link model to m1--><g class="link" data-entity-1="ent0004" data-entity-2="ent0015" data-link-type="dependency" data-source-line="36" id="lnk18"><path d="M580.17,207.37 C560.29,224.16 536.0256,244.6506 514.5756,262.7506" fill="none" id="model-to-m1" style="stroke:#000000;stroke-width:1;"/><polygon fill="#000000" points="509.99,266.62,519.448,263.8729,513.8113,263.3955,514.2888,257.7588,509.99,266.62" style="stroke:#000000;stroke-width:1;"/></g><!--link model to m2--><g class="link" data-entity-1="ent0004" data-entity-2="ent0016" data-link-type="dependency" data-source-line="37" id="lnk19"><path d="M603.12,207.37 C603.12,225.79 603.12,247.33 603.12,265.71" fill="none" id="model-to-m2" style="stroke:#000000;stroke-width:1;"/><polygon fill="#000000" points="603.12,271.71,607.12,262.71,603.12,266.71,599.12,262.71,603.12,271.71" style="stroke:#000000;stroke-width:1;"/></g><!--link model to m3--><g class="link" data-entity-1="ent0004" data-entity-2="ent0017" data-link-type="dependency" data-source-line="38" id="lnk20"><path d="M625.88,207.37 C647.51,225.79 675.2905,249.4417 696.8905,267.8217" fill="none" id="model-to-m3" style="stroke:#000000;stroke-width:1;"/><polygon fill="#000000" points="701.46,271.71,697.1979,262.8311,697.652,268.4697,692.0134,268.9238,701.46,271.71" style="stroke:#000000;stroke-width:1;"/></g><!--link data to dd1--><g class="link" data-entity-1="ent0005" data-entity-2="ent0021" data-link-type="dependency" data-source-line="47" id="lnk26"><path d="M1024.37,207.37 C987.66,225.73 938.1763,250.4661 901.4063,268.8561" fill="none" id="data-to-dd1" style="stroke:#000000;stroke-width:1;"/><polygon fill="#000000" points="896.04,271.54,905.8787,271.0917,900.5119,269.3034,902.3002,263.9367,896.04,271.54" style="stroke:#000000;stroke-width:1;"/></g><!--link data to dd2--><g class="link" data-entity-1="ent0005" data-entity-2="ent0022" data-link-type="dependency" data-source-line="48" id="lnk27"><path d="M1050.52,207.37 C1038.54,225.79 1023.9024,248.301 1011.9424,266.681" fill="none" id="data-to-dd2" style="stroke:#000000;stroke-width:1;"/><polygon fill="#000000" points="1008.67,271.71,1016.9313,266.3481,1011.397,267.5191,1010.226,261.9848,1008.67,271.71" style="stroke:#000000;stroke-width:1;"/></g><!--link data to dd3--><g class="link" data-entity-1="ent0005" data-entity-2="ent0023" data-link-type="dependency" data-source-line="49" id="lnk28"><path d="M1075.72,207.37 C1087.7,225.79 1102.3495,248.2997 1114.2995,266.6797" fill="none" id="data-to-dd3" style="stroke:#000000;stroke-width:1;"/><polygon fill="#000000" points="1117.57,271.71,1116.0178,261.9842,1114.8446,267.5181,1109.3107,266.3449,1117.57,271.71" style="stroke:#000000;stroke-width:1;"/></g><!--link data to dd4--><g class="link" data-entity-1="ent0005" data-entity-2="ent0024" data-link-type="dependency" data-source-line="50" id="lnk29"><path d="M1099.42,207.37 C1133.82,225.73 1179.9069,250.3245 1214.3569,268.7145" fill="none" id="data-to-dd4" style="stroke:#000000;stroke-width:1;"/><polygon fill="#000000" points="1219.65,271.54,1213.5941,263.773,1215.2391,269.1854,1209.8267,270.8304,1219.65,271.54" style="stroke:#000000;stroke-width:1;"/></g><!--link data to dd5--><g class="link" data-entity-1="ent0005" data-entity-2="ent0025" data-link-type="dependency" data-source-line="51" id="lnk30"><path d="M1109.85,201.81 C1161.13,217.12 1245.8,242.86 1318.12,267 C1323.63,268.84 1323.7073,268.8266 1329.4173,270.8266" fill="none" id="data-to-dd5" style="stroke:#000000;stroke-width:1;"/><polygon fill="#000000" points="1335.08,272.81,1327.9083,266.0597,1330.3611,271.1571,1325.2637,273.61,1335.08,272.81" style="stroke:#000000;stroke-width:1;"/></g><!--link dd1 to own--><!--link dd2 to own--><!--link dd3 to own--><!--link own to GMN36--><g class="link" data-entity-1="ent0031" data-entity-2="ent0037" data-link-type="association" data-source-line="63" id="lnk38"><path d="M996.12,468.2254 C996.12,468.5371 996.12,468.8488 996.12,469.1604 C996.12,471.6534 996.12,474.1419 996.12,476.6058 C996.12,486.4613 996.12,495.9225 996.12,503.7" fill="none" id="own-GMN36" style="stroke:#000000;stroke-width:1;stroke-dasharray:7,7;"/></g><?plantuml-src RLNDRkCs4BxhAQO9YcQDgFvBsg1T171igJ6SP1sdTGzr4L3Is29CaLwIJhfPxAqeUcuNw6MFlVKnSj-7o9DqI2c6xLY08Miut_nzmvalR8u5ma8mBWCpvtB1D2iWOUbyfjLIPbqbb8Rzs3zh6XbEsLBOM4bxnSZ2EOexj3nbktLk-0D2ix5sQ7AMgNikPp1bmk3QoQZqgoLgE0a2owr0U9sS3WGpXa_vd5ck95dNSFFcF3n3OtbHBENC56XpbQ5yNKzE9_BnKuBQy3Itm8GWxJ7gASirIYYuXOXBfJD9E6yA-Gmb7NLqWjm6mLSKXxA1njGoEQC8zcgrJNUrsXum0vhKOB_LRKV7ZUyj_cQ_ky-vHMVXHtA6K51j8MKMPqfpD9icUrpZt29SeZ7UvaGUNB14wOGPZjg-yZuoxa2mtpkBEd6qQU6ICXQYKlVuOVxEK9K4DsaETOYA1TVkVschSFfagXbtekEjO2X8EKDBOIOelQqRFfDCR0R3BFCTqUxsWi2d7nALCZojujoKUNzRQcJ1rQTNfbNIjb6OiHB2sCT_PKQqw8aSi0Lxu2ImnX8155Yt6tR7q7Zwuwzce_5b5LaJzgCu_eOwTSrM9AZ2MgNKwQuAE97zOe4PamzcuK_CN2quYG-Y_arbgBNBq83HNU25gqzffoAjXBHNaA2YQvLkyuMazKBITWNnN8PKRSnsLUNnzxTBViS4IXjE9CN0X4suoCAo1rm6tSkAPIf5t8XxyT5M1WMJOSo5TLKzY0Rn8VmqY2jCQnUcetMEaYyDkUmudBzftc69QgzGGTbRA-QRsuBMji1dJMt7mappEtSpNsRTLKkXYYIajxGqC2Zkfp__wqFst8-EzZYYTlnsWtQQ7pEEOL_IpTD-PfJ8yUC_w-3MBd1VqYouvpGO38ao0fuFXzr3-FnnNF_yiV-CRU_4TZjqwthZ3g6owtesFeHiNC-kdq57kq2NBCsvHBX0fcMPvDNL8Vmm71t2A7w67g-WWR-5g-vnBROfQ6qBsjk2est1iIFZdCzoGJyB98PxfUURCw9FavUc64tCSb82BnQ2TWXHu-UFZzH1z-DUT1ATmFi0w4cPpc3lwTFVi7QLgx421zVrwrkfYbSJwJHep2A4K148wvoj559Ig1e3LksmEhqTqV7FA_h0irST4prr8eSKXiZcZARREuFbKMTy4OvmYhGY7kx8kK3Q7iy9tMPe6HUEWQWLjO8Fn05rdY_VBpdFQE_yIcMahy0rrMvvUwSya8fMGAAiLGMegPS1T6XfqVBGSrSZkXgNrNQ3UzJq8erQpMrCKXEr6h0bTGXAWu9cDxmvwxL2Fyz9Z_OWfhb42xHPmMT6YQ7yEa3wTiw3_m40?></g></svg>