<?plantuml 1.2026.1?><svg xmlns="http://www.w3.org/2000/svg" xmlns:xlink="http://www.w3.org/1999/xlink" contentStyleType="text/css" data-diagram-type="ACTIVITY" height="1274px" preserveAspectRatio="none" style="width:860px;height:1274px;background:#FFFFFF;" version="1.1" viewBox="0 0 860 1274" width="860px" zoomAndPan="magnify"><title>&lt;b&gt;Reproduzierbarkeitsbewertung&lt;/b&gt;
Bewertung der Messwiederholbarkeit</title><defs/><g><g class="title" data-source-line="8"><text fill="#000000" font-family="Helvetica" font-size="22" font-weight="bold" lengthAdjust="spacing" textLength="323.9521" x="266.8362" y="31.9404">Reproduzierbarkeitsbewertung</text><text fill="#000000" font-family="Helvetica" font-size="22" font-weight="bold" lengthAdjust="spacing" textLength="389.9951" x="233.8147" y="53.9404">Bewertung der Messwiederholbarkeit</text></g><ellipse cx="310.3076" cy="80" fill="#FFFFFF" rx="10" ry="10" style="stroke:#000000;stroke-width:1;"/><rect fill="#FFFFFF" height="42" rx="4" ry="4" style="stroke:#000000;stroke-width:1;" width="194.2437" x="213.1858" y="110"/><text fill="#000000" font-family="Helvetica" font-size="11" lengthAdjust="spacing" textLength="174.2437" x="223.1858" y="128.4702">Mehrere Tests am selben Fahrzeug</text><text fill="#000000" font-family="Helvetica" font-size="11" lengthAdjust="spacing" textLength="163.8667" x="223.1858" y="139.4702">mit gleicher Methode durchf&#252;hren</text><rect fill="#FFFFFF" height="42" rx="4" ry="4" style="stroke:#000000;stroke-width:1;" width="150.2114" x="235.2019" y="172"/><text fill="#000000" font-family="Helvetica" font-size="11" lengthAdjust="spacing" textLength="130.2114" x="245.2019" y="190.4702">SOH-Ergebnisse sammeln</text><text fill="#000000" font-family="Helvetica" font-size="11" lengthAdjust="spacing" textLength="114.9468" x="245.2019" y="201.4702">(pro Methode und Test)</text><rect fill="#FFFFFF" height="271" rx="4" ry="4" style="stroke:#000000;stroke-width:1;" width="198.3989" x="211.1081" y="224"/><path d="M338.4987,224 L338.4987,228 L328.4987,238 L211.1081,238" fill="none" style="stroke:#000000;stroke-width:1;"/><text fill="#000000" font-family="Helvetica" font-size="11" lengthAdjust="spacing" textLength="117.3906" x="214.1081" y="233.4702">Statistische Auswertung</text><rect fill="#FFFFFF" height="42" rx="4" ry="4" style="stroke:#000000;stroke-width:1;" width="122.1045" x="249.2553" y="255"/><text fill="#000000" font-family="Helvetica" font-size="11" lengthAdjust="spacing" textLength="102.1045" x="259.2553" y="273.4702">Mittelwert berechnen</text><text fill="#000000" font-family="Helvetica" font-size="11" font-weight="bold" lengthAdjust="spacing" textLength="77.3276" x="259.2553" y="284.4702">x&#772; = &#931; SOH_i / n</text><rect fill="#FFFFFF" height="42" rx="4" ry="4" style="stroke:#000000;stroke-width:1;" width="178.3989" x="221.1081" y="317"/><text fill="#000000" font-family="Helvetica" font-size="11" lengthAdjust="spacing" textLength="158.3989" x="231.1081" y="335.4702">Standardabweichung berechnen</text><text fill="#000000" font-family="Helvetica" font-size="11" font-weight="bold" lengthAdjust="spacing" textLength="137.7578" x="231.1081" y="346.4702">&#963; = &#8730;(&#931;(SOH_i &#8722; x&#772;)&#178; / (n&#8722;1))</text><rect fill="#FFFFFF" height="42" rx="4" ry="4" style="stroke:#000000;stroke-width:1;" width="173.4844" x="223.5654" y="379"/><text fill="#000000" font-family="Helvetica" font-size="11" lengthAdjust="spacing" textLength="153.4844" x="233.5654" y="397.4702">Variationskoeffizient berechnen</text><text fill="#000000" font-family="Helvetica" font-size="11" font-weight="bold" lengthAdjust="spacing" textLength="90.5029" x="233.5654" y="408.4702">CV = &#963; / x&#772; &#215; 100%</text><rect fill="#FFFFFF" height="42" rx="4" ry="4" style="stroke:#000000;stroke-width:1;" width="154.4976" x="233.0588" y="441"/><text fill="#000000" font-family="Helvetica" font-size="11" lengthAdjust="spacing" textLength="112.5298" x="243.0588" y="459.4702">Spannweite berechnen</text><text fill="#000000" font-family="Helvetica" font-size="11" font-weight="bold" lengthAdjust="spacing" textLength="134.4976" x="243.0588" y="470.4702">R = SOH_max &#8722; SOH_min</text><rect fill="#FFFFFF" height="277" rx="4" ry="4" style="stroke:#000000;stroke-width:1;" width="848.6245" x="6" y="505"/><path d="M68.5884,505 L68.5884,509 L58.5884,519 L6,519" fill="none" style="stroke:#000000;stroke-width:1;"/><text fill="#000000" font-family="Helvetica" font-size="11" lengthAdjust="spacing" textLength="52.5884" x="9" y="514.4702">Bewertung</text><polygon fill="#FFFFFF" points="285.3911,536,335.2241,536,347.2241,548,335.2241,560,285.3911,560,273.3911,548,285.3911,536" style="stroke:#000000;stroke-width:1;"/><text fill="#000000" font-family="Helvetica" font-size="11" lengthAdjust="spacing" textLength="49.833" x="285.3911" y="550.9702">CV &lt; 2%?</text><text fill="#000000" font-family="Helvetica" font-size="11" lengthAdjust="spacing" textLength="8.5615" x="264.8296" y="545.4702">ja</text><text fill="#000000" font-family="Helvetica" font-size="11" lengthAdjust="spacing" textLength="20.7969" x="347.2241" y="545.4702">nein</text><rect fill="#A7F3D0" height="42" rx="4" ry="4" style="stroke:#000000;stroke-width:1;" width="209.5513" x="18" y="570"/><text fill="#000000" font-family="Helvetica" font-size="11" lengthAdjust="spacing" textLength="95.9922" x="28" y="588.4702">Reproduzierbarkeit:</text><text fill="#000000" font-family="Helvetica" font-size="11" font-weight="bold" lengthAdjust="spacing" textLength="44.6123" x="127.0483" y="588.4702">Sehr gut</text><text fill="#000000" font-family="Helvetica" font-size="11" lengthAdjust="spacing" textLength="189.5513" x="28" y="599.4702">Methode liefert konsistente Ergebnisse</text><polygon fill="#FFFFFF" points="472.923,570,522.756,570,534.756,582,522.756,594,472.923,594,460.923,582,472.923,570" style="stroke:#000000;stroke-width:1;"/><text fill="#000000" font-family="Helvetica" font-size="11" lengthAdjust="spacing" textLength="49.833" x="472.923" y="584.9702">CV &lt; 5%?</text><text fill="#000000" font-family="Helvetica" font-size="11" lengthAdjust="spacing" textLength="8.5615" x="452.3615" y="579.4702">ja</text><text fill="#000000" font-family="Helvetica" font-size="11" lengthAdjust="spacing" textLength="20.7969" x="534.756" y="579.4702">nein</text><rect fill="#FEF3C7" height="42" rx="4" ry="4" style="stroke:#000000;stroke-width:1;" width="180.2144" x="257.5513" y="604"/><text fill="#000000" font-family="Helvetica" font-size="11" lengthAdjust="spacing" textLength="95.9922" x="267.5513" y="622.4702">Reproduzierbarkeit:</text><text fill="#000000" font-family="Helvetica" font-size="11" font-weight="bold" lengthAdjust="spacing" textLength="58.0723" x="366.5996" y="622.4702">Akzeptabel</text><text fill="#000000" font-family="Helvetica" font-size="11" lengthAdjust="spacing" textLength="160.2144" x="267.5513" y="633.4702">Geringe Schwankungen, nutzbar</text><polygon fill="#FFFFFF" points="620.0453,604,675.996,604,687.996,616,675.996,628,620.0453,628,608.0453,616,620.0453,604" style="stroke:#000000;stroke-width:1;"/><text fill="#000000" font-family="Helvetica" font-size="11" lengthAdjust="spacing" textLength="55.9507" x="620.0453" y="618.9702">CV &lt; 10%?</text><text fill="#000000" font-family="Helvetica" font-size="11" lengthAdjust="spacing" textLength="8.5615" x="599.4838" y="613.4702">ja</text><text fill="#000000" font-family="Helvetica" font-size="11" lengthAdjust="spacing" textLength="20.7969" x="687.996" y="613.4702">nein</text><rect fill="#FDE68A" height="42" rx="4" ry="4" style="stroke:#000000;stroke-width:1;" width="163.0806" x="467.7656" y="638"/><text fill="#000000" font-family="Helvetica" font-size="11" lengthAdjust="spacing" textLength="95.9922" x="477.7656" y="656.4702">Reproduzierbarkeit:</text><text fill="#000000" font-family="Helvetica" font-size="11" font-weight="bold" lengthAdjust="spacing" textLength="31.7754" x="576.814" y="656.4702">M&#228;&#223;ig</text><text fill="#000000" font-family="Helvetica" font-size="11" lengthAdjust="spacing" textLength="143.0806" x="477.7656" y="667.4702">Eingeschr&#228;nkte Aussagekraft</text><rect fill="#FEE2E2" height="42" rx="4" ry="4" style="stroke:#000000;stroke-width:1;" width="191.7783" x="650.8462" y="638"/><text fill="#000000" font-family="Helvetica" font-size="11" lengthAdjust="spacing" textLength="95.9922" x="660.8462" y="656.4702">Reproduzierbarkeit:</text><text fill="#000000" font-family="Helvetica" font-size="11" font-weight="bold" lengthAdjust="spacing" textLength="72.73" x="759.8945" y="656.4702">Unzureichend</text><text fill="#000000" font-family="Helvetica" font-size="11" lengthAdjust="spacing" textLength="127.1768" x="660.8462" y="667.4702">Methode nicht zuverl&#228;ssig</text><polygon fill="#FFFFFF" points="648.0206,686,660.0206,698,648.0206,710,636.0206,698,648.0206,686" style="stroke:#000000;stroke-width:1;"/><polygon fill="#FFFFFF" points="497.8395,716,509.8395,728,497.8395,740,485.8395,728,497.8395,716" style="stroke:#000000;stroke-width:1;"/><polygon fill="#FFFFFF" points="310.3076,746,322.3076,758,310.3076,770,298.3076,758,310.3076,746" style="stroke:#000000;stroke-width:1;"/><rect fill="#FFFFFF" height="266" rx="4" ry="4" style="stroke:#000000;stroke-width:1;" width="479.7202" x="72.4334" y="792"/><path d="M220.0086,792 L220.0086,796 L210.0086,806 L72.4334,806" fill="none" style="stroke:#000000;stroke-width:1;"/><text fill="#000000" font-family="Helvetica" font-size="11" lengthAdjust="spacing" textLength="137.5752" x="75.4334" y="801.4702">Einflussfaktoren analysieren</text><rect fill="#FFFFFF" height="75" rx="4" ry="4" style="stroke:#000000;stroke-width:1;" width="190.7686" x="214.9233" y="823"/><text fill="#000000" font-family="Helvetica" font-size="11" lengthAdjust="spacing" textLength="142.5005" x="224.9233" y="841.4702">Rahmenbedingungen pr&#252;fen:</text><text fill="#000000" font-family="Helvetica" font-size="11" lengthAdjust="spacing" textLength="170.7686" x="224.9233" y="852.4702">&#8226; Temperatur bei den Tests gleich?</text><text fill="#000000" font-family="Helvetica" font-size="11" lengthAdjust="spacing" textLength="140.7979" x="224.9233" y="863.4702">&#8226; SOC-Bereich vergleichbar?</text><text fill="#000000" font-family="Helvetica" font-size="11" lengthAdjust="spacing" textLength="121.8809" x="224.9233" y="874.4702">&#8226; Ladeleistung identisch?</text><text fill="#000000" font-family="Helvetica" font-size="11" lengthAdjust="spacing" textLength="149.9717" x="224.9233" y="885.4702">&#8226; Zeitlicher Abstand der Tests?</text><polygon fill="#FFFFFF" points="228.6616,918,391.9536,918,403.9536,930,391.9536,942,228.6616,942,216.6616,930,228.6616,918" style="stroke:#000000;stroke-width:1;"/><text fill="#000000" font-family="Helvetica" font-size="11" lengthAdjust="spacing" textLength="163.292" x="228.6616" y="932.9702">Rahmenbedingungen einheitlich?</text><text fill="#000000" font-family="Helvetica" font-size="11" lengthAdjust="spacing" textLength="8.5615" x="208.1001" y="927.4702">ja</text><text fill="#000000" font-family="Helvetica" font-size="11" lengthAdjust="spacing" textLength="20.7969" x="403.9536" y="927.4702">nein</text><rect fill="#FFFFFF" height="42" rx="4" ry="4" style="stroke:#000000;stroke-width:1;" width="205.8882" x="92.4334" y="952"/><text fill="#000000" font-family="Helvetica" font-size="11" lengthAdjust="spacing" textLength="162.0566" x="102.4334" y="970.4702">Abweichung ist methodenbedingt</text><text fill="#000000" font-family="Helvetica" font-size="11" lengthAdjust="spacing" textLength="185.8882" x="102.4334" y="981.4702">&#8594; Genauigkeit der Methode bewerten</text><rect fill="#FFFFFF" height="64" rx="4" ry="4" style="stroke:#000000;stroke-width:1;" width="213.832" x="318.3216" y="952"/><text fill="#000000" font-family="Helvetica" font-size="11" lengthAdjust="spacing" textLength="135.7437" x="328.3216" y="970.4702">Abweichung teilweise durch</text><text fill="#000000" font-family="Helvetica" font-size="11" lengthAdjust="spacing" textLength="151.6582" x="328.3216" y="981.4702">Rahmenbedingungen erkl&#228;rbar</text><text fill="#000000" font-family="Helvetica" font-size="11" lengthAdjust="spacing" textLength="129.5991" x="328.3216" y="992.4702">&#8594; Normierung erforderlich</text><text fill="#000000" font-family="Helvetica" font-size="11" lengthAdjust="spacing" textLength="187.7197" x="334.4339" y="1003.4702">(z.B. gleiche Temperaturbedingungen)</text><polygon fill="#FFFFFF" points="310.3076,1022,322.3076,1034,310.3076,1046,298.3076,1034,310.3076,1022" style="stroke:#000000;stroke-width:1;"/><rect fill="#FFFFFF" height="158" rx="4" ry="4" style="stroke:#000000;stroke-width:1;" width="189.7998" x="215.4077" y="1068"/><path d="M371.5283,1068 L371.5283,1072 L361.5283,1082 L215.4077,1082" fill="none" style="stroke:#000000;stroke-width:1;"/><text fill="#000000" font-family="Helvetica" font-size="11" lengthAdjust="spacing" textLength="146.1206" x="218.4077" y="1077.4702">Vergleich zwischen Systemen</text><rect fill="#FFFFFF" height="53" rx="4" ry="4" style="stroke:#000000;stroke-width:1;" width="169.7998" x="225.4077" y="1099"/><text fill="#000000" font-family="Helvetica" font-size="11" lengthAdjust="spacing" textLength="128.9868" x="235.4077" y="1117.4702">SOH-Werte verschiedener</text><text fill="#000000" font-family="Helvetica" font-size="11" lengthAdjust="spacing" textLength="149.7998" x="235.4077" y="1128.4702">Diagnosesysteme vergleichen:</text><text fill="#000000" font-family="Helvetica" font-size="11" lengthAdjust="spacing" textLength="126.5376" x="235.4077" y="1139.4702">AVL vs. OBD2 vs. AUTEL</text><rect fill="#FFFFFF" height="42" rx="4" ry="4" style="stroke:#000000;stroke-width:1;" width="167.9897" x="226.3127" y="1172"/><text fill="#000000" font-family="Helvetica" font-size="11" lengthAdjust="spacing" textLength="147.9897" x="236.3127" y="1190.4702">Abweichungen dokumentieren</text><text fill="#000000" font-family="Helvetica" font-size="11" lengthAdjust="spacing" textLength="74.6045" x="236.3127" y="1201.4702">und diskutieren</text><ellipse cx="310.3076" cy="1257" fill="none" rx="11" ry="11" style="stroke:#000000;stroke-width:1;"/><ellipse cx="310.3076" cy="1257" fill="#FFFFFF" rx="6" ry="6" style="stroke:#000000;stroke-width:1;"/><line style="stroke:#000000;stroke-width:1;" x1="310.3076" x2="310.3076" y1="90" y2="110"/><polygon fill="#000000" points="306.3076,100,310.3076,110,314.3076,100,310.3076,104" style="stroke:#000000;stroke-width:1;"/><line style="stroke:#000000;stroke-width:1;" x1="310.3076" x2="310.3076" y1="152" y2="172"/><polygon fill="#000000" points="306.3076,162,310.3076,172,314.3076,162,310.3076,166" style="stroke:#000000;stroke-width:1;"/><line style="stroke:#000000;stroke-width:1;" x1="310.3076" x2="310.3076" y1="297" y2="317"/><polygon fill="#000000" points="306.3076,307,310.3076,317,314.3076,307,310.3076,311" style="stroke:#000000;stroke-width:1;"/><line style="stroke:#000000;stroke-width:1;" x1="310.3076" x2="310.3076" y1="359" y2="379"/><polygon fill="#000000" points="306.3076,369,310.3076,379,314.3076,369,310.3076,373" style="stroke:#000000;stroke-width:1;"/><line style="stroke:#000000;stroke-width:1;" x1="310.3076" x2="310.3076" y1="421" y2="441"/><polygon fill="#000000" points="306.3076,431,310.3076,441,314.3076,431,310.3076,435" style="stroke:#000000;stroke-width:1;"/><line style="stroke:#000000;stroke-width:1;" x1="310.3076" x2="310.3076" y1="214" y2="255"/><polygon fill="#000000" points="306.3076,245,310.3076,255,314.3076,245,310.3076,249" style="stroke:#000000;stroke-width:1;"/><line style="stroke:#000000;stroke-width:1;" x1="608.0453" x2="549.3059" y1="616" y2="616"/><line style="stroke:#000000;stroke-width:1;" x1="549.3059" x2="549.3059" y1="616" y2="638"/><polygon fill="#000000" points="545.3059,628,549.3059,638,553.3059,628,549.3059,632" style="stroke:#000000;stroke-width:1;"/><line style="stroke:#000000;stroke-width:1;" x1="687.996" x2="746.7354" y1="616" y2="616"/><line style="stroke:#000000;stroke-width:1;" x1="746.7354" x2="746.7354" y1="616" y2="638"/><polygon fill="#000000" points="742.7354,628,746.7354,638,750.7354,628,746.7354,632" style="stroke:#000000;stroke-width:1;"/><line style="stroke:#000000;stroke-width:1;" x1="549.3059" x2="549.3059" y1="680" y2="698"/><line style="stroke:#000000;stroke-width:1;" x1="549.3059" x2="636.0206" y1="698" y2="698"/><polygon fill="#000000" points="626.0206,694,636.0206,698,626.0206,702,630.0206,698" style="stroke:#000000;stroke-width:1;"/><line style="stroke:#000000;stroke-width:1;" x1="746.7354" x2="746.7354" y1="680" y2="698"/><line style="stroke:#000000;stroke-width:1;" x1="746.7354" x2="660.0206" y1="698" y2="698"/><polygon fill="#000000" points="670.0206,694,660.0206,698,670.0206,702,666.0206,698" style="stroke:#000000;stroke-width:1;"/><line style="stroke:#000000;stroke-width:1;" x1="460.923" x2="347.6584" y1="582" y2="582"/><line style="stroke:#000000;stroke-width:1;" x1="347.6584" x2="347.6584" y1="582" y2="604"/><polygon fill="#000000" points="343.6584,594,347.6584,604,351.6584,594,347.6584,598" style="stroke:#000000;stroke-width:1;"/><line style="stroke:#000000;stroke-width:1;" x1="534.756" x2="648.0206" y1="582" y2="582"/><line style="stroke:#000000;stroke-width:1;" x1="648.0206" x2="648.0206" y1="582" y2="604"/><polygon fill="#000000" points="644.0206,594,648.0206,604,652.0206,594,648.0206,598" style="stroke:#000000;stroke-width:1;"/><line style="stroke:#000000;stroke-width:1;" x1="347.6584" x2="347.6584" y1="646" y2="728"/><line style="stroke:#000000;stroke-width:1;" x1="347.6584" x2="485.8395" y1="728" y2="728"/><polygon fill="#000000" points="475.8395,724,485.8395,728,475.8395,732,479.8395,728" style="stroke:#000000;stroke-width:1;"/><line style="stroke:#000000;stroke-width:1;" x1="648.0206" x2="648.0206" y1="710" y2="728"/><line style="stroke:#000000;stroke-width:1;" x1="648.0206" x2="509.8395" y1="728" y2="728"/><polygon fill="#000000" points="519.8395,724,509.8395,728,519.8395,732,515.8395,728" style="stroke:#000000;stroke-width:1;"/><line style="stroke:#000000;stroke-width:1;" x1="273.3911" x2="122.7756" y1="548" y2="548"/><line style="stroke:#000000;stroke-width:1;" x1="122.7756" x2="122.7756" y1="548" y2="570"/><polygon fill="#000000" points="118.7756,560,122.7756,570,126.7756,560,122.7756,564" style="stroke:#000000;stroke-width:1;"/><line style="stroke:#000000;stroke-width:1;" x1="347.2241" x2="497.8395" y1="548" y2="548"/><line style="stroke:#000000;stroke-width:1;" x1="497.8395" x2="497.8395" y1="548" y2="570"/><polygon fill="#000000" points="493.8395,560,497.8395,570,501.8395,560,497.8395,564" style="stroke:#000000;stroke-width:1;"/><line style="stroke:#000000;stroke-width:1;" x1="122.7756" x2="122.7756" y1="612" y2="758"/><line style="stroke:#000000;stroke-width:1;" x1="122.7756" x2="298.3076" y1="758" y2="758"/><polygon fill="#000000" points="288.3076,754,298.3076,758,288.3076,762,292.3076,758" style="stroke:#000000;stroke-width:1;"/><line style="stroke:#000000;stroke-width:1;" x1="497.8395" x2="497.8395" y1="740" y2="758"/><line style="stroke:#000000;stroke-width:1;" x1="497.8395" x2="322.3076" y1="758" y2="758"/><polygon fill="#000000" points="332.3076,754,322.3076,758,332.3076,762,328.3076,758" style="stroke:#000000;stroke-width:1;"/><line style="stroke:#000000;stroke-width:1;" x1="310.3076" x2="310.3076" y1="483" y2="536"/><polygon fill="#000000" points="306.3076,526,310.3076,536,314.3076,526,310.3076,530" style="stroke:#000000;stroke-width:1;"/><line style="stroke:#000000;stroke-width:1;" x1="216.6616" x2="195.3775" y1="930" y2="930"/><line style="stroke:#000000;stroke-width:1;" x1="195.3775" x2="195.3775" y1="930" y2="952"/><polygon fill="#000000" points="191.3775,942,195.3775,952,199.3775,942,195.3775,946" style="stroke:#000000;stroke-width:1;"/><line style="stroke:#000000;stroke-width:1;" x1="403.9536" x2="425.2376" y1="930" y2="930"/><line style="stroke:#000000;stroke-width:1;" x1="425.2376" x2="425.2376" y1="930" y2="952"/><polygon fill="#000000" points="421.2376,942,425.2376,952,429.2376,942,425.2376,946" style="stroke:#000000;stroke-width:1;"/><line style="stroke:#000000;stroke-width:1;" x1="195.3775" x2="195.3775" y1="994" y2="1034"/><line style="stroke:#000000;stroke-width:1;" x1="195.3775" x2="298.3076" y1="1034" y2="1034"/><polygon fill="#000000" points="288.3076,1030,298.3076,1034,288.3076,1038,292.3076,1034" style="stroke:#000000;stroke-width:1;"/><line style="stroke:#000000;stroke-width:1;" x1="425.2376" x2="425.2376" y1="1016" y2="1034"/><line style="stroke:#000000;stroke-width:1;" x1="425.2376" x2="322.3076" y1="1034" y2="1034"/><polygon fill="#000000" points="332.3076,1030,322.3076,1034,332.3076,1038,328.3076,1034" style="stroke:#000000;stroke-width:1;"/><line style="stroke:#000000;stroke-width:1;" x1="310.3076" x2="310.3076" y1="898" y2="918"/><polygon fill="#000000" points="306.3076,908,310.3076,918,314.3076,908,310.3076,912" style="stroke:#000000;stroke-width:1;"/><line style="stroke:#000000;stroke-width:1;" x1="310.3076" x2="310.3076" y1="770" y2="823"/><polygon fill="#000000" points="306.3076,813,310.3076,823,314.3076,813,310.3076,817" style="stroke:#000000;stroke-width:1;"/><line style="stroke:#000000;stroke-width:1;" x1="310.3076" x2="310.3076" y1="1152" y2="1172"/><polygon fill="#000000" points="306.3076,1162,310.3076,1172,314.3076,1162,310.3076,1166" style="stroke:#000000;stroke-width:1;"/><line style="stroke:#000000;stroke-width:1;" x1="310.3076" x2="310.3076" y1="1046" y2="1099"/><polygon fill="#000000" points="306.3076,1089,310.3076,1099,314.3076,1089,310.3076,1093" style="stroke:#000000;stroke-width:1;"/><line style="stroke:#000000;stroke-width:1;" x1="310.3076" x2="310.3076" y1="1214" y2="1246"/><polygon fill="#000000" points="306.3076,1236,310.3076,1246,314.3076,1236,310.3076,1240" style="stroke:#000000;stroke-width:1;"/><?plantuml-src TLNDRjj64BxhAQO90aX2OriEsWII6qEsfUHWnu2Lk411e5YAGt9BSYZiBgs4HO42BOgSSodGIu76Jz1pJjMrID_1JzBPNSgIRPaGfENkpdpVVFEZBqoA1S8i5v9QEfCq4qeK48ffbgYoekYmp4i53yVkMRiHOIogt8nBCgy4UtY9-GKQEHMRxqnaZT3hhHtgL4JbN582iSWrhfsSULn5gE1PgsMaoH7smkTdE5DbLDKILIXKXjBe4EUeJ4N9tdRuFA23vIj3ApX1hUSIUPcMUMFHQcaZ5F_qJp1Lg11UepOQB27CGoGOYrJLM2K15T90agESfiwPISi88QhKD8qNdzYO1kncSlhoyKWb69BK6a6Bei2S0ceprsiZZiVXTDY2O-I8P4dmO6A4aPe_Z033IZVa7y2Fbfyq1dEx1I7pdAQ4xBRRVVllh_0DVFu8ZFozX6tWFKV428g4YaGujvIj23Vi_lk5pQxU_z7-_B7jJQ_UVm3srlddR_RI9dxjTJhUsRbGKbYIEYinZYLhJhTu79wpFtQwRNt0udVexUmyQgZC116pC7ZJv8mjB7GXtZfmjvQU_qytbBbEfDD2nj1ck3tOVRJV0QvOWlOFejC2VXuEduwV7EtqxnP77xhT2ISPaifqkm4jav5BZAsg6KV7wdDW2AiC3bh8rSXoe2IFS8t-rLrqns0y6ZyvV7eFWs5Muyo847FBuGKghdY4oJIT2yeuGAGlWIfJiyd0kRmDVuD2RsSp1y_ZQFJri-4zF4uMbui_PM99Z2m5hZcrkAJCkChJ8i5CYTWChbrkuj64EzeTxTu3yuRgIhcMeMXTTE8j0tLrWIfVN6ejapKaYcJSMgtyzwsAOD9npaHZaPcIUmy4YVoTPdGatp1d8YsGGemuF2SipDJYKupK3-Zgvx-u0OiPAc4gnLKfUK9Gq_k-n_VzhSdfuUC3T240a_Ld761pV2mYv2tjXena7wvxcyFlM8JSZujXg6q_kZdaKFO7lexlicI5qyRmJcxxmrKtCoWKNix6tZ3iRn_W1PAeP69JqCmzhxaVZdPCtSxbkbk3agUCrCre2sW3GvLnqcoQFU2hKXKilBL65PUAGItxW03QzTR1rd9ghac-vew7uCOCdo_LXdhkHYB1v1ttPx5Ci1srtzg8R6BuWXtj_1yHq94K2PKQjR--oflB_V3y62xq5fmU7EswnV3Dwz6ndLCh5HWhAhEgiFcq5HMG7TcHr5dbD_o4qgQSjVu7?></g></svg>