<?plantuml 1.2026.1?><svg xmlns="http://www.w3.org/2000/svg" xmlns:xlink="http://www.w3.org/1999/xlink" contentStyleType="text/css" data-diagram-type="DESCRIPTION" height="805px" preserveAspectRatio="none" style="width:694px;height:805px;background:#FFFFFF;" version="1.1" viewBox="0 0 694 805" width="694px" zoomAndPan="magnify"><title>&lt;b&gt;Versuchsaufbau mit drei Diagnosesystemen&lt;/b&gt;
Vergleichende SOH-Messung am selben Fahrzeug</title><defs/><g><g class="title" data-source-line="8"><text fill="#000000" font-family="Helvetica" font-size="22" font-weight="bold" lengthAdjust="spacing" textLength="463.375" x="111.2163" y="31.9404">Versuchsaufbau mit drei Diagnosesystemen</text><text fill="#000000" font-family="Helvetica" font-size="22" font-weight="bold" lengthAdjust="spacing" textLength="524.4658" x="80.6709" y="53.9404">Vergleichende SOH-Messung am selben Fahrzeug</text></g><!--cluster avl--><g class="cluster" data-qualified-name="avl" data-source-line="14" id="ent0003"><rect fill="#DBEAFE" height="159" rx="4" ry="4" style="stroke:#000000;stroke-width:1;" width="232" x="12" y="113.0298"/><text fill="#000000" font-family="Helvetica" font-size="11" font-weight="bold" lengthAdjust="spacing" textLength="132.043" x="61.9785" y="123.5">System 1: AVL HV-Check</text><text fill="#000000" font-family="Helvetica" font-size="11" font-weight="bold" lengthAdjust="spacing" textLength="133.2246" x="61.3877" y="134.5">(Off-Board, professionell)</text></g><!--cluster obd--><g class="cluster" data-qualified-name="obd" data-source-line="18" id="ent0005"><rect fill="#D1FAE5" height="159" rx="4" ry="4" style="stroke:#000000;stroke-width:1;" width="241" x="399" y="344.0298"/><text fill="#000000" font-family="Helvetica" font-size="11" font-weight="bold" lengthAdjust="spacing" textLength="131.1191" x="453.9404" y="354.5">System 2: OBD Link MX+</text><text fill="#000000" font-family="Helvetica" font-size="11" font-weight="bold" lengthAdjust="spacing" textLength="118.5562" x="460.2219" y="365.5">(On-Board, Consumer)</text></g><!--cluster autel--><g class="cluster" data-qualified-name="autel" data-source-line="22" id="ent0007"><rect fill="#FFF3CD" height="159" rx="4" ry="4" style="stroke:#000000;stroke-width:1;" width="211" x="284" y="113.0298"/><text fill="#000000" font-family="Helvetica" font-size="11" font-weight="bold" lengthAdjust="spacing" textLength="169.3291" x="304.8354" y="123.5">System 3: AUTEL MaxiSYS Ultra</text><text fill="#000000" font-family="Helvetica" font-size="11" font-weight="bold" lengthAdjust="spacing" textLength="167.4761" x="305.762" y="134.5">(Off-Board, herstellerspezifisch)</text></g><!--cluster compare--><g class="cluster" data-qualified-name="compare" data-source-line="32" id="ent0013"><rect fill="#F3E8FD" height="126" rx="4" ry="4" style="stroke:#000000;stroke-width:1;" width="317" x="48" y="552.0298"/><text fill="#000000" font-family="Helvetica" font-size="11" font-weight="bold" lengthAdjust="spacing" textLength="123.4761" x="144.762" y="562.5">Vergleich &amp; Validierung</text></g><!--entity avl_d--><g class="entity" data-qualified-name="avl.avl_d" data-source-line="15" id="ent0004"><rect fill="#EFF6FF" height="61" rx="4" ry="4" style="stroke:#000000;stroke-width:1;" width="164.8906" x="35.55" y="187.0298"/><text fill="#000000" font-family="Helvetica" font-size="11" lengthAdjust="spacing" textLength="144.8906" x="45.55" y="198.5">Direkte HV-Batterie-Diagnose</text><text fill="#000000" font-family="Helvetica" font-size="11" lengthAdjust="spacing" textLength="106.9707" x="45.55" y="209.5">&#8594; SOH-Referenzwert</text><text fill="#000000" font-family="Helvetica" font-size="11" lengthAdjust="spacing" textLength="92.3398" x="45.55" y="220.5">&#8594; Zellspannungen</text><text fill="#000000" font-family="Helvetica" font-size="11" lengthAdjust="spacing" textLength="113.7222" x="45.55" y="231.5">&#8594; Isolationswiderstand</text><text fill="#000000" font-family="Helvetica" font-size="11" lengthAdjust="spacing" textLength="73.9546" x="45.55" y="242.5">&#8594; PDF-Bericht</text></g><!--entity obd_d--><g class="entity" data-qualified-name="obd.obd_d" data-source-line="19" id="ent0006"><rect fill="#F0FDF4" height="61" rx="4" ry="4" style="stroke:#000000;stroke-width:1;" width="174.0698" x="422.97" y="418.0298"/><text fill="#000000" font-family="Helvetica" font-size="11" lengthAdjust="spacing" textLength="154.0698" x="432.97" y="429.5">OBD2-Port &#8594; Bluetooth &#8594; App</text><text fill="#000000" font-family="Helvetica" font-size="11" lengthAdjust="spacing" textLength="132.0645" x="432.97" y="440.5">&#8594; Kontinuierliche Zeitreihe</text><text fill="#000000" font-family="Helvetica" font-size="11" lengthAdjust="spacing" textLength="102.0669" x="432.97" y="451.5">&#8594; SOC, U, I, T, E, Q</text><text fill="#000000" font-family="Helvetica" font-size="11" lengthAdjust="spacing" textLength="132.043" x="432.97" y="462.5">&#8594; CSV-Datei (Langformat)</text><text fill="#000000" font-family="Helvetica" font-size="11" lengthAdjust="spacing" textLength="151.6421" x="432.97" y="473.5">&#8594; Basis f&#252;r alle Berechnungen</text></g><!--entity autel_d--><g class="entity" data-qualified-name="autel.autel_d" data-source-line="23" id="ent0008"><rect fill="#FEF3C7" height="61" rx="4" ry="4" style="stroke:#000000;stroke-width:1;" width="143.4814" x="308.26" y="187.0298"/><text fill="#000000" font-family="Helvetica" font-size="11" lengthAdjust="spacing" textLength="98.4414" x="318.26" y="198.5">Propriet&#228;rer Zugang</text><text fill="#000000" font-family="Helvetica" font-size="11" lengthAdjust="spacing" textLength="114.3076" x="318.26" y="209.5">&#8594; Herstellerspez. SOH</text><text fill="#000000" font-family="Helvetica" font-size="11" lengthAdjust="spacing" textLength="107.5776" x="318.26" y="220.5">&#8594; Fehlercodes (DTC)</text><text fill="#000000" font-family="Helvetica" font-size="11" lengthAdjust="spacing" textLength="123.4814" x="318.26" y="231.5">&#8594; Erweiterte BMS-Daten</text><text fill="#000000" font-family="Helvetica" font-size="11" lengthAdjust="spacing" textLength="93.5483" x="318.26" y="242.5">&#8594; Diagnosebericht</text></g><!--entity compare_d--><g class="entity" data-qualified-name="compare.compare_d" data-source-line="33" id="ent0014"><rect fill="#EDE9FE" height="50" rx="4" ry="4" style="stroke:#000000;stroke-width:1;" width="250.0654" x="71.97" y="604.0298"/><text fill="#000000" font-family="Helvetica" font-size="11" lengthAdjust="spacing" textLength="230.0654" x="81.97" y="615.5">&#8226; SOH-Werte aller 3 Systeme gegen&#252;berstellen</text><text fill="#000000" font-family="Helvetica" font-size="11" lengthAdjust="spacing" textLength="148.1509" x="81.97" y="626.5">&#8226; Reproduzierbarkeit bewerten</text><text fill="#000000" font-family="Helvetica" font-size="11" lengthAdjust="spacing" textLength="138.3862" x="81.97" y="637.5">&#8226; Abweichungen analysieren</text><text fill="#000000" font-family="Helvetica" font-size="11" lengthAdjust="spacing" textLength="180.5547" x="81.97" y="648.5">&#8226; Kosten-Nutzen-Verh&#228;ltnis bewerten</text></g><!--entity car--><g class="entity" data-qualified-name="car" data-source-line="11" id="ent0002"><rect fill="#E8F4FD" height="42" rx="4" ry="4" style="stroke:#000000;stroke-width:1;" width="109.8423" x="577.08" y="196.5298"/><text fill="#000000" font-family="Helvetica" font-size="11" font-weight="bold" lengthAdjust="spacing" textLength="89.8423" x="587.08" y="215">VW ID.4 (77 kWh)</text><text fill="#000000" font-family="Helvetica" font-size="11" lengthAdjust="spacing" textLength="88.6606" x="587.08" y="226">Versuchsfahrzeug</text></g><g class="entity" data-qualified-name="GMN18" data-source-line="41" id="ent0019"><path d="M228.48,737.0298 L228.48,794.0298 A4,4 0 0 0 232.48,798.0298 L481.5181,798.0298 A4,4 0 0 0 485.5181,794.0298 L485.5181,743.0298 L475.5181,733.0298 L232.48,733.0298 A4,4 0 0 0 228.48,737.0298" fill="#FFFFFF" style="stroke:#000000;stroke-width:1;"/><path d="M475.5181,733.0298 L475.5181,741.0298 A2,2 0 0 0 477.5181,743.0298 L485.5181,743.0298 L475.5181,733.0298" fill="#FFFFFF" style="stroke:#000000;stroke-width:1;"/><text fill="#000000" font-family="Helvetica" font-size="11" font-weight="bold" lengthAdjust="spacing" textLength="93.5107" x="234.48" y="746.5">Forschungsfrage:</text><text fill="#000000" font-family="Helvetica" font-size="11" lengthAdjust="spacing" textLength="194.4014" x="234.48" y="757.5">Wie reproduzierbar sind die SOH-Werte</text><text fill="#000000" font-family="Helvetica" font-size="11" lengthAdjust="spacing" textLength="229.2759" x="234.48" y="768.5">verschiedener Diagnosesysteme im Vergleich?</text><text fill="#000000" font-family="Helvetica" font-size="11" lengthAdjust="spacing" textLength="182.832" x="234.48" y="779.5">Kann die OBD2-basierte Methode die</text><text fill="#000000" font-family="Helvetica" font-size="11" lengthAdjust="spacing" textLength="236.0381" x="234.48" y="790.5">professionellen Ger&#228;te erg&#228;nzen oder ersetzen?</text></g><!--reverse link avl to car--><g class="link" data-entity-1="ent0003" data-entity-2="ent0002" data-link-type="dependency" data-source-line="27" id="lnk10"><path d="M245.8094,174.512 C246.6792,171.7184 246.5361,172.5195 247.5713,169.6173 C255.8525,146.3998 269.62,120.6198 292,106.8598 C331.95,82.3098 459.03,90.5898 503,106.8598 C551.15,124.6898 593.44,169.4098 615.59,196.2298" fill="none" id="avl-backto-car" style="stroke:#000000;stroke-width:1;"/><polygon fill="#000000" points="244.0793,180.2572,250.5045,172.7928,245.521,175.4695,242.8443,170.4861,244.0793,180.2572" style="stroke:#000000;stroke-width:1;"/><text fill="#000000" font-family="Helvetica" font-size="11" lengthAdjust="spacing" textLength="69.0776" x="372.5" y="85.5">HV-Anschluss</text></g><!--link car to obd--><g class="link" data-entity-1="ent0002" data-entity-2="ent0005" data-link-type="dependency" data-source-line="28" id="lnk11"><path d="M632,238.8498 C632,252.6423 632,272.2842 632,294.0612 C632,304.9497 632,316.372 632,327.8638 C632,330.7368 632,333.6141 632,336.4885 C632,337.9257 632,339.3621 632,340.797 C632,341.5144 632,342.2314 632,342.9479 C632,343.3061 632,337.6642 632,338.0222" fill="none" id="car-to-obd" style="stroke:#000000;stroke-width:1;"/><polygon fill="#000000" points="632,344.0222,636,335.0222,632,339.0222,628,335.0222,632,344.0222" style="stroke:#000000;stroke-width:1;"/><text fill="#000000" font-family="Helvetica" font-size="11" lengthAdjust="spacing" textLength="53.7915" x="633.0081" y="305.5">OBD2-Port</text><text fill="#000000" font-family="Helvetica" font-size="11" lengthAdjust="spacing" textLength="53.8076" x="633" y="316.5">(Bluetooth)</text></g><!--link car to autel--><g class="link" data-entity-1="ent0002" data-entity-2="ent0007" data-link-type="dependency" data-source-line="29" id="lnk12"><path d="M576.66,217.5298 C557.565,217.5298 536.7825,217.5298 520.0387,217.5298 C511.6669,217.5298 504.3047,217.5298 498.668,217.5298 C497.9634,217.5298 497.2857,217.5298 496.6365,217.5298 C496.3118,217.5298 495.9943,217.5298 495.684,217.5298 C495.5289,217.5298 501.3756,217.5298 501.2241,217.5298" fill="none" id="car-to-autel" style="stroke:#000000;stroke-width:1;"/><polygon fill="#000000" points="495.2241,217.5298,504.2241,221.5298,500.2241,217.5298,504.2241,213.5298,495.2241,217.5298" style="stroke:#000000;stroke-width:1;"/><text fill="#000000" font-family="Helvetica" font-size="11" lengthAdjust="spacing" textLength="53.7915" x="505.72" y="200">OBD2-Port</text><text fill="#000000" font-family="Helvetica" font-size="11" lengthAdjust="spacing" textLength="35.46" x="514.8858" y="211">(Kabel)</text></g><!--link avl to compare--><g class="link" data-entity-1="ent0003" data-entity-2="ent0013" data-link-type="dependency" data-source-line="36" id="lnk15"><path d="M244.0894,265.8338 C244.226,266.5406 244.3644,267.2539 244.5046,267.9733 C245.6268,273.729 246.8681,279.8844 248.2331,286.3832 C250.9632,299.3808 254.1884,313.752 257.9462,329.046 C272.9775,390.2223 296.53,466.1648 331,528.0298 C333.3,532.1598 335.9,531.7998 338,536.0298 C340.25,540.5573 342.2338,545.3373 343.9827,550.2422 C344.092,550.5488 344.2004,550.8559 344.3079,551.1634 C344.3617,551.3171 342.4529,545.8009 342.5062,545.9549" fill="none" id="avl-to-compare" style="stroke:#000000;stroke-width:1;"/><polygon fill="#000000" points="344.4685,551.625,345.305,541.8117,342.8332,546.8999,337.745,544.4281,344.4685,551.625" style="stroke:#000000;stroke-width:1;"/></g><!--link obd to compare--><g class="link" data-entity-1="ent0005" data-entity-2="ent0013" data-link-type="dependency" data-source-line="37" id="lnk16"><path d="M622.7906,503.1672 C622.7411,503.2802 622.6914,503.393 622.6414,503.5057 C622.5414,503.7311 622.4403,503.9559 622.3382,504.1803 C621.5213,505.9752 620.6364,507.7366 619.678,509.4496 C617.7611,512.8757 615.55,516.1085 613,519.0298 C572.98,564.8848 510.34,592.0073 457.0413,607.7285 C430.3919,615.5892 406.0778,620.5995 388.0942,623.6759 C379.1024,625.2141 371.6932,626.2688 366.3661,626.9546 C366.0331,626.9975 371.661,626.2866 371.3444,626.3266" fill="none" id="obd-to-compare" style="stroke:#000000;stroke-width:1;"/><polygon fill="#000000" points="365.3918,627.0789,374.8223,629.9189,370.3523,626.452,373.8192,621.982,365.3918,627.0789" style="stroke:#000000;stroke-width:1;"/></g><!--link autel to compare--><g class="link" data-entity-1="ent0007" data-entity-2="ent0013" data-link-type="dependency" data-source-line="38" id="lnk17"><path d="M476.6671,272.1878 C476.6196,272.3027 476.572,272.4175 476.5241,272.5322 C475.7575,274.3672 474.9349,276.1781 474.0521,277.9513 C472.2864,281.4978 470.28,284.8935 468,288.0298 C448.94,314.2498 424.71,300.8698 407,328.0298 C370.665,383.7598 357.985,457.3048 354.4762,517.6273 C354.0377,525.1676 353.7424,532.5013 353.5621,539.5678 C353.4719,543.101 353.4106,546.5675 353.3744,549.9595 C353.3699,550.3835 353.419,544.8066 353.4152,545.2283" fill="none" id="autel-to-compare" style="stroke:#000000;stroke-width:1;"/><polygon fill="#000000" points="353.362,551.2281,357.4417,542.2639,353.4063,546.2283,349.442,542.1929,353.362,551.2281" style="stroke:#000000;stroke-width:1;"/></g><!--link compare to GMN18--><g class="link" data-entity-1="ent0013" data-entity-2="ent0019" data-link-type="association" data-source-line="41" id="lnk20"><path d="M357,678.354 C357,678.5234 357,678.693 357,678.8628 C357,679.2023 357,679.5425 357,679.8834 C357,681.2467 357,682.6203 357,684.0018 C357,689.5274 357,695.1777 357,700.7953 C357,712.0304 357,723.1348 357,732.8498" fill="none" id="compare-GMN18" style="stroke:#000000;stroke-width:1;stroke-dasharray:7,7;"/></g><?plantuml-src TLLHRjj64FtdAQOAqDYicCQnMwT6u40IoTgm5RkMBRT1W6993iM5Lhl2xj9gL1JeLm_G8nG-HlvqavoaiqlHbOIKFuHcXpFllNcp-ifME4EO2yPbOAPSpfbcCyXOFfreLSjYe8JIy2prpqP6WIMhXKsLjEyOLJX3yO2Mv-pBEIE-H3Wus3Wq5IlKWii9b4mOt3YvQVfgYHfU1u7bLY2yoKx7g4sTLuRLPSPgc74BXKOECMSJgGoQZyOI6Vdcs-pqWwJiYK2ULoWBXD7LMJH4OshgvvgZo512oYgzn7eI1CzXZ1NFgH6NaAEqg0EDkMMIYa0d3CVtS1w_E8AzusEOtbVxOUXRU43bkam7c86SaLp9w_GeZLtPsqeZGj5097sWGMcsguzy40vEe3U-XBDnDAWmdxeUUrTb6VKLqqKNvbgLn84hYKBi-sxiGS2pk9_qqWH-3u0Uwbz09-OQfnPTgJwpn8PZrEhqGNx-ws-lo0sMg54k5wXj4trFbSsSIKb2eMnYvqO9PgchMV22A1FieZcvZjEeJxNpohPeVYs8VPf-JsRv8_WYoLSdSDMFuPBBAGn__gOXALkE0sfJpr0tz5H6vUA3j9TyjqMF2hoAhfMsu63qHOrMALlvNxtvl45tGRxZikQeXRC1SUEM_58z2J3embqNphjmsuMa2pyryS5e7CNCah7sBWbxgVICsVtchCyCDr2kFcbWWbWHUSohHgmMi5CWVPd6wT7_AN18OxwxJIvXo7xZerz6S2UiPhlJhfpKD0vwpN79IsxoQZtqck9-9my7yPOkrrhDQTHszQXfUTxN4shT83_RglR2ZRyvIB6YOAuADB0NtmxMJ1Ez8Bd85qHoEFA2hEtGsYZR7Bn3v8adXEdO4N_kHYc9lJDEuBOY4bZQwDHxzWGwPCsU94wYDgRJ9D2582d1JVraOyYaozE8zzUfcaygNynhiPDzmJAa1Mb0pEXMuKR9dNrkhmVu6iPCy89iGcCCmsQ9_LT8V0vfbRSr_lpdFtvvxhqupWOQ3g4PBS84oGghJrahjnEDFhX1MjwYNbANZEafIGiPkhLh4thPmg7nJW8ccVXekDlDvlI2xWwKqRlQBkb5sAlLex2IlDXMsOJjTp1EVaWJDmWdTwliEY5m2k_66YLteu5Kn39JrgePgF8f3X26gTB6GpQbPXCy2KCAttC4lSKM39S5NO7udsoKzu3kOuu5kdj-vmu7FeEd2Rsbx0kwadm9F-QCEN48rn1jHSvr9vIqTJ-IZ3-YNZrI5XLQFKfI3YXNqq-3JiUt0VqrWECN_0i0?></g></svg>