<?plantuml 1.2026.1?><svg xmlns="http://www.w3.org/2000/svg" xmlns:xlink="http://www.w3.org/1999/xlink" contentStyleType="text/css" data-diagram-type="DESCRIPTION" height="294px" preserveAspectRatio="none" style="width:1808px;height:294px;background:#FFFFFF;" version="1.1" viewBox="0 0 1808 294" width="1808px" zoomAndPan="magnify"><title>&lt;b&gt;Einflussfaktoren auf die SOH-Messung&lt;/b&gt;
Ishikawa-Diagramm (Ursache-Wirkungs-Analyse)</title><defs/><g><g class="title" data-source-line="8"><text fill="#000000" font-family="Helvetica" font-size="22" font-weight="bold" lengthAdjust="spacing" textLength="405.8398" x="696.7951" y="31.9404">Einflussfaktoren auf die SOH-Messung</text><text fill="#000000" font-family="Helvetica" font-size="22" font-weight="bold" lengthAdjust="spacing" textLength="513.4873" x="642.9713" y="53.9404">Ishikawa-Diagramm (Ursache-Wirkungs-Analyse)</text></g><!--cluster cat1--><g class="cluster" data-qualified-name="cat1" data-source-line="14" id="ent0003"><rect fill="#DBEAFE" height="123" rx="4" ry="4" style="stroke:#000000;stroke-width:1;" width="234" x="156.43" y="165.61"/><text fill="#000000" font-family="Helvetica" font-size="11" font-weight="bold" lengthAdjust="spacing" textLength="60.5161" x="243.1719" y="176.0802">Temperatur</text></g><!--cluster cat2--><g class="cluster" data-qualified-name="cat2" data-source-line="19" id="ent0005"><rect fill="#D1FAE5" height="123" rx="4" ry="4" style="stroke:#000000;stroke-width:1;" width="237" x="430.43" y="165.61"/><text fill="#000000" font-family="Helvetica" font-size="11" font-weight="bold" lengthAdjust="spacing" textLength="67.853" x="515.0035" y="176.0802">SOC-Bereich</text></g><!--cluster cat3--><g class="cluster" data-qualified-name="cat3" data-source-line="24" id="ent0007"><rect fill="#FFF3CD" height="123" rx="4" ry="4" style="stroke:#000000;stroke-width:1;" width="241" x="707.43" y="165.61"/><text fill="#000000" font-family="Helvetica" font-size="11" font-weight="bold" lengthAdjust="spacing" textLength="94.7192" x="780.5704" y="176.0802">Ladebedingungen</text></g><!--cluster cat4--><g class="cluster" data-qualified-name="cat4" data-source-line="29" id="ent0009"><rect fill="#FDE8E8" height="123" rx="4" ry="4" style="stroke:#000000;stroke-width:1;" width="248" x="988.43" y="165.61"/><text fill="#000000" font-family="Helvetica" font-size="11" font-weight="bold" lengthAdjust="spacing" textLength="90.4492" x="1067.2054" y="176.0802">Fahrzeugzustand</text></g><!--cluster cat5--><g class="cluster" data-qualified-name="cat5" data-source-line="34" id="ent0011"><rect fill="#F3E8FD" height="123" rx="4" ry="4" style="stroke:#000000;stroke-width:1;" width="247" x="1276.43" y="165.61"/><text fill="#000000" font-family="Helvetica" font-size="11" font-weight="bold" lengthAdjust="spacing" textLength="66.0269" x="1366.9166" y="176.0802">Messtechnik</text></g><!--cluster cat6--><g class="cluster" data-qualified-name="cat6" data-source-line="39" id="ent0013"><rect fill="#E8F8E8" height="123" rx="4" ry="4" style="stroke:#000000;stroke-width:1;" width="239" x="1563.43" y="165.61"/><text fill="#000000" font-family="Helvetica" font-size="11" font-weight="bold" lengthAdjust="spacing" textLength="116.1284" x="1624.8658" y="176.0802">Berechnungsmethode</text></g><!--entity cat1d--><g class="entity" data-qualified-name="cat1.cat1d" data-source-line="15" id="ent0004"><rect fill="#EFF6FF" height="61" rx="4" ry="4" style="stroke:#000000;stroke-width:1;" width="166.9639" x="179.95" y="203.61"/><text fill="#000000" font-family="Helvetica" font-size="11" lengthAdjust="spacing" textLength="119.4102" x="189.95" y="215.0802">&#8226; Umgebungstemperatur</text><text fill="#000000" font-family="Helvetica" font-size="11" lengthAdjust="spacing" textLength="98.0063" x="189.95" y="226.0802">&#8226; Batterietemperatur</text><text fill="#000000" font-family="Helvetica" font-size="11" lengthAdjust="spacing" textLength="115.7471" x="189.95" y="237.0802">&#8226; Temperaturgradienten</text><text fill="#000000" font-family="Helvetica" font-size="11" lengthAdjust="spacing" textLength="146.9639" x="189.95" y="248.0802">&#8226; Aufheizung w&#228;hrend Ladung</text><text fill="#000000" font-family="Helvetica" font-size="11" lengthAdjust="spacing" textLength="113.2817" x="189.95" y="259.0802">&#8226; Jahreszeit / Witterung</text></g><!--entity cat2d--><g class="entity" data-qualified-name="cat2.cat2d" data-source-line="20" id="ent0006"><rect fill="#F0FDF4" height="61" rx="4" ry="4" style="stroke:#000000;stroke-width:1;" width="169.9985" x="454.43" y="203.61"/><text fill="#000000" font-family="Helvetica" font-size="11" lengthAdjust="spacing" textLength="113.271" x="464.43" y="215.0802">&#8226; Start-SOC (ideal: 0%)</text><text fill="#000000" font-family="Helvetica" font-size="11" lengthAdjust="spacing" textLength="121.8486" x="464.43" y="226.0802">&#8226; End-SOC (ideal: 100%)</text><text fill="#000000" font-family="Helvetica" font-size="11" lengthAdjust="spacing" textLength="110.854" x="464.43" y="237.0802">&#8226; Abgedecktes Fenster</text><text fill="#000000" font-family="Helvetica" font-size="11" lengthAdjust="spacing" textLength="149.9985" x="464.43" y="248.0802">&#8226; Extrapolation bei Teil-Ladung</text><text fill="#000000" font-family="Helvetica" font-size="11" lengthAdjust="spacing" textLength="114.4795" x="464.43" y="259.0802">&#8226; Display vs. BMS-SOC</text></g><!--entity cat3d--><g class="entity" data-qualified-name="cat3.cat3d" data-source-line="25" id="ent0008"><rect fill="#FEF3C7" height="61" rx="4" ry="4" style="stroke:#000000;stroke-width:1;" width="173.6294" x="731.62" y="203.61"/><text fill="#000000" font-family="Helvetica" font-size="11" lengthAdjust="spacing" textLength="95.5571" x="741.62" y="215.0802">&#8226; Ladeleistung (kW)</text><text fill="#000000" font-family="Helvetica" font-size="11" lengthAdjust="spacing" textLength="153.6294" x="741.62" y="226.0802">&#8226; C-Rate (Schnell vs. Langsam)</text><text fill="#000000" font-family="Helvetica" font-size="11" lengthAdjust="spacing" textLength="91.8887" x="741.62" y="237.0802">&#8226; DC vs. AC Laden</text><text fill="#000000" font-family="Helvetica" font-size="11" lengthAdjust="spacing" textLength="70.4634" x="741.62" y="248.0802">&#8226; CC-CV-Profil</text><text fill="#000000" font-family="Helvetica" font-size="11" lengthAdjust="spacing" textLength="118.8086" x="741.62" y="259.0802">&#8226; Ladestation-Variabilit&#228;t</text></g><!--entity cat4d--><g class="entity" data-qualified-name="cat4.cat4d" data-source-line="30" id="ent0010"><rect fill="#FEE2E2" height="61" rx="4" ry="4" style="stroke:#000000;stroke-width:1;" width="180.3755" x="1012.24" y="203.61"/><text fill="#000000" font-family="Helvetica" font-size="11" lengthAdjust="spacing" textLength="160.3755" x="1022.24" y="215.0802">&#8226; Tats&#228;chlicher Alterungszustand</text><text fill="#000000" font-family="Helvetica" font-size="11" lengthAdjust="spacing" textLength="80.2764" x="1022.24" y="226.0802">&#8226; Kilometerstand</text><text fill="#000000" font-family="Helvetica" font-size="11" lengthAdjust="spacing" textLength="116.3486" x="1022.24" y="237.0802">&#8226; Ruhezeit vor Messung</text><text fill="#000000" font-family="Helvetica" font-size="11" lengthAdjust="spacing" textLength="127.9556" x="1022.24" y="248.0802">&#8226; BMS-Kalibrierungsstatus</text><text fill="#000000" font-family="Helvetica" font-size="11" lengthAdjust="spacing" textLength="115.1348" x="1022.24" y="259.0802">&#8226; Zellbalancing-Zustand</text></g><!--entity cat5d--><g class="entity" data-qualified-name="cat5.cat5d" data-source-line="35" id="ent0012"><rect fill="#EDE9FE" height="61" rx="4" ry="4" style="stroke:#000000;stroke-width:1;" width="179.1724" x="1300.85" y="203.61"/><text fill="#000000" font-family="Helvetica" font-size="11" lengthAdjust="spacing" textLength="143.8647" x="1310.85" y="215.0802">&#8226; OBD2-Scanner-Genauigkeit</text><text fill="#000000" font-family="Helvetica" font-size="11" lengthAdjust="spacing" textLength="128.2563" x="1310.85" y="226.0802">&#8226; Abtastrate (~80 ms - 1 s)</text><text fill="#000000" font-family="Helvetica" font-size="11" lengthAdjust="spacing" textLength="159.1724" x="1310.85" y="237.0802">&#8226; Bluetooth-Verbindungsstabilit&#228;t</text><text fill="#000000" font-family="Helvetica" font-size="11" lengthAdjust="spacing" textLength="94.3325" x="1310.85" y="248.0802">&#8226; PID-Verf&#252;gbarkeit</text><text fill="#000000" font-family="Helvetica" font-size="11" lengthAdjust="spacing" textLength="119.4155" x="1310.85" y="259.0802">&#8226; Datenverluste / L&#252;cken</text></g><!--entity cat6d--><g class="entity" data-qualified-name="cat6.cat6d" data-source-line="40" id="ent0014"><rect fill="#D1FAE5" height="61" rx="4" ry="4" style="stroke:#000000;stroke-width:1;" width="171.7979" x="1587.53" y="203.61"/><text fill="#000000" font-family="Helvetica" font-size="11" lengthAdjust="spacing" textLength="107.7817" x="1597.53" y="215.0802">&#8226; Direkt vs. Integration</text><text fill="#000000" font-family="Helvetica" font-size="11" lengthAdjust="spacing" textLength="115.7578" x="1597.53" y="226.0802">&#8226; Interpolationsmethode</text><text fill="#000000" font-family="Helvetica" font-size="11" lengthAdjust="spacing" textLength="135.2764" x="1597.53" y="237.0802">&#8226; Savitzky-Golay-Parameter</text><text fill="#000000" font-family="Helvetica" font-size="11" lengthAdjust="spacing" textLength="151.7979" x="1597.53" y="248.0802">&#8226; Nominal-Kapazit&#228;t (Referenz)</text><text fill="#000000" font-family="Helvetica" font-size="11" lengthAdjust="spacing" textLength="127.3809" x="1597.53" y="259.0802">&#8226; Temperaturbedingungen</text></g><!--entity effect--><g class="entity" data-qualified-name="effect" data-source-line="11" id="ent0002"><rect fill="#2C3E50" height="53" rx="4" ry="4" style="stroke:#000000;stroke-width:1;" width="120.8638" x="12" y="207.61"/><text fill="#FFFFFF" font-family="Helvetica" font-size="11" font-weight="bold" lengthAdjust="spacing" textLength="100.8638" x="22" y="226.0802">SOH-Messergebnis</text><text fill="#FFFFFF" font-family="Helvetica" font-size="11" lengthAdjust="spacing" textLength="72.7622" x="22" y="237.0802">(Genauigkeit &amp;</text><text fill="#FFFFFF" font-family="Helvetica" font-size="11" lengthAdjust="spacing" textLength="92.936" x="22" y="248.0802">Reproduzierbakeit)</text></g><!--link cat1 to effect--><g class="link" data-entity-1="ent0003" data-entity-2="ent0002" data-link-type="dependency" data-source-line="44" id="lnk15"><path d="M376.6049,165.4181 C376.5497,165.2267 376.494,165.0353 376.4379,164.8441 C374.6425,158.7255 372.3873,152.7191 369.5636,147.0769 C363.9163,135.7925 355.995,125.965 344.93,119.61 C282.11,83.53 248.55,91.14 181.93,119.61 C140.45,137.34 110.5032,174.3444 91.9432,202.2444" fill="none" id="cat1-to-effect" style="stroke:#000000;stroke-width:1;"/><polygon fill="#000000" points="88.62,207.24,96.9353,201.9621,91.3894,203.077,90.2745,197.5311,88.62,207.24" style="stroke:#000000;stroke-width:1;"/></g><!--link cat2 to effect--><g class="link" data-entity-1="ent0005" data-entity-2="ent0002" data-link-type="dependency" data-source-line="45" id="lnk16"><path d="M654.2567,165.3891 C654.2032,165.1977 654.1492,165.0064 654.0948,164.8151 C652.3534,158.6963 650.1498,152.6905 647.3723,147.0502 C641.8175,135.7694 633.9675,125.95 622.93,119.61 C580.44,95.21 226.99,100.35 181.93,119.61 C140.45,137.34 110.5032,174.3444 91.9432,202.2444" fill="none" id="cat2-to-effect" style="stroke:#000000;stroke-width:1;"/><polygon fill="#000000" points="88.62,207.24,96.9353,201.9621,91.3894,203.077,90.2745,197.5311,88.62,207.24" style="stroke:#000000;stroke-width:1;"/></g><!--link cat3 to effect--><g class="link" data-entity-1="ent0007" data-entity-2="ent0002" data-link-type="dependency" data-source-line="46" id="lnk17"><path d="M935.2567,165.3891 C935.2032,165.1977 935.1492,165.0064 935.0948,164.8151 C933.3534,158.6963 931.1498,152.6905 928.3723,147.0502 C922.8175,135.7694 914.9675,125.95 903.93,119.61 C834.37,79.65 255.7,88.09 181.93,119.61 C140.45,137.34 110.5032,174.3444 91.9432,202.2444" fill="none" id="cat3-to-effect" style="stroke:#000000;stroke-width:1;"/><polygon fill="#000000" points="88.62,207.24,96.9353,201.9621,91.3894,203.077,90.2745,197.5311,88.62,207.24" style="stroke:#000000;stroke-width:1;"/></g><!--reverse link effect to cat4--><g class="link" data-entity-1="ent0002" data-entity-2="ent0009" data-link-type="dependency" data-source-line="47" id="lnk19"><path d="M91.9432,202.2444 C110.5032,174.3444 140.45,137.34 181.93,119.61 C233.48,97.58 1142.32,91.69 1190.93,119.61 C1201.995,125.965 1209.9163,135.7925 1215.5636,147.0769 C1218.3873,152.7191 1220.6425,158.7255 1222.4379,164.8441 C1222.494,165.0353 1222.5497,165.2267 1222.6049,165.4181" fill="none" id="effect-backto-cat4" style="stroke:#000000;stroke-width:1;"/><polygon fill="#000000" points="88.62,207.24,96.9353,201.9621,91.3894,203.077,90.2745,197.5311,88.62,207.24" style="stroke:#000000;stroke-width:1;"/></g><!--reverse link effect to cat5--><g class="link" data-entity-1="ent0002" data-entity-2="ent0011" data-link-type="dependency" data-source-line="48" id="lnk21"><path d="M91.9432,202.2444 C110.5032,174.3444 140.45,137.34 181.93,119.61 C248.19,91.29 1416.45,83.72 1478.93,119.61 C1489.9675,125.95 1497.8175,135.7694 1503.3723,147.0502 C1506.1498,152.6905 1508.3534,158.6963 1510.0948,164.8151 C1510.1492,165.0064 1510.2032,165.1977 1510.2567,165.3891" fill="none" id="effect-backto-cat5" style="stroke:#000000;stroke-width:1;"/><polygon fill="#000000" points="88.62,207.24,96.9353,201.9621,91.3894,203.077,90.2745,197.5311,88.62,207.24" style="stroke:#000000;stroke-width:1;"/></g><!--reverse link effect to cat6--><g class="link" data-entity-1="ent0002" data-entity-2="ent0013" data-link-type="dependency" data-source-line="49" id="lnk23"><path d="M91.9432,202.2444 C110.5032,174.3444 140.45,137.34 181.93,119.61 C262.44,85.2 1682.01,76 1757.93,119.61 C1768.9675,125.95 1776.8175,135.7694 1782.3723,147.0502 C1785.1498,152.6905 1787.3534,158.6963 1789.0948,164.8151 C1789.1492,165.0064 1789.2032,165.1977 1789.2567,165.3891" fill="none" id="effect-backto-cat6" style="stroke:#000000;stroke-width:1;"/><polygon fill="#000000" points="88.62,207.24,96.9353,201.9621,91.3894,203.077,90.2745,197.5311,88.62,207.24" style="stroke:#000000;stroke-width:1;"/></g><?plantuml-src RLNRRjj647tNLqnjj9K5iB4asrNLm834I-B6IGmfiO70BqjoI2wuN2gxIpjMqQBVKlWpykO_wPTqbgIkjXuCUCxgp9mvCwCVJ8O5ma8mBZiwvtB152iWP56UghAIiLkAKi5XK7-sNiIOi4gOe9Jc0oE6joZkqF28lVncpfS8_VuMg3CMb_TSff0meN4BcJLvbKG5eqx7S2CGNeVdFfU9gBHEM6vAXH9ObK3C4UOVtphlKUjAfgzVXUUtya9dF6VtpF4uIucoWEvdfLcKeNF3LKxlj3EHJ3neFEfqVWONfL5C02O9HgQZw0-JAMKzwFLMvAXI32NNlTwjxBv1oIgUviWD_7GhPxXGPLmjEQgGsU3H0J3Tqi7Xm1twfyU_6_ncnlSPDrZdP0RJKZr0VmoVi5YWOgPIk9jy0_HwDMN4J1yElQa_2NpuimFqYPYAuU2_V_w5pmMLQCMPzTTkfGMcp1XK7FVZ6thg4dLI6fGDCgcI3FcIoE3-wJ6ZRiTmoMBwly7_O1JJIwl_5TnmIq_OkiGO3lqWEAE9-Mj7ws1CPham8u6utsRNcQ927cKRgGEIsWyc_kapgNF3b74iLvV7oCGOZdyyQahpPRm3z8_Nq2HCCSOeDwWXG4bzQXlXVoF_5wLWXfSIGkJK6YwSRSKUrxGb3t2dVu7f-xbDiIwJv0R7WHUSxCaTZi7Dc4ffodVL4Z6665ES-55k50_hLHkwtZF5zYi2kJRMasv-qqfodHbbW-uyoYGAKPTtINaqAzeNdbi79svDqVhhkevxxLofCk6YYLXGcxe1pZLJd8LSSFFqQDQbMPK-rVRhdigJCLnZnYEnPsb0CxB4AbrMn2lZZSWJ8lByaJzw9l8JC_hfCSe4ZG5j_qGqSwLRYgRITroK1SsosehDgWphQRoZQzNUWdRsoQjtJF2Gvh_ciY8htO1Vg6KX4qn6P8NpfScoBhCMx0_ymPxWqp7uNok-A6XXTYNRp0R92fvlv9uIpT0V1Syz_JZr1iuyOf9EdRDrKrRJQfYckRJs_ZqwXaA30ttGhQzJKQ4fIvCvrtHsk8nRSIlVcbTN5vx5awVlQSZKXjmZMdc7YWugyR-2owVlKOvoNRFTOC__BV3tj9-DgRqcA-DTuNPrIROjeQXXtEW_8wfHy9BT7bUOcteyB-Zsq16ouzSKQ0DgjP8hqWQQipjkblc3yuRW1-VA_chWUfS_b0MdsqwcBzYoxWHqPvXGWN9vj7_tjfPmNMwykZgjz9BiYUegm9GGsIkfElKXTXHFC-EShtuuwfFrGd3uKl047879RkpqXTZPVkn_?></g></svg>