<?plantuml 1.2026.1?><svg xmlns="http://www.w3.org/2000/svg" xmlns:xlink="http://www.w3.org/1999/xlink" contentStyleType="text/css" data-diagram-type="DESCRIPTION" height="776px" preserveAspectRatio="none" style="width:1144px;height:776px;background:#FFFFFF;" version="1.1" viewBox="0 0 1144 776" width="1144px" zoomAndPan="magnify"><title>**EV Batterie SOH Analyse &#8212; Systemkontext**
//Systemgrenzen und externe Schnittstellen//</title><defs/><g><g class="title" data-source-line="28"><text fill="#000000" font-family="sans-serif" font-size="14" font-weight="bold" lengthAdjust="spacing" textLength="304.3428" x="412.851" y="23.5352">EV Batterie SOH Analyse &#8212; Systemkontext</text><text fill="#000000" font-family="sans-serif" font-size="14" font-style="italic" font-weight="bold" lengthAdjust="spacing" textLength="303.8506" x="413.0971" y="40.0234">Systemgrenzen und externe Schnittstellen</text></g><!--cluster system_boundary--><g class="cluster" data-qualified-name="system_boundary" data-source-line="38" id="ent0005"><rect fill="#FFF3E0" height="210.9" rx="2.5" ry="2.5" style="stroke:#FF6600;stroke-width:1;" width="222" x="447.94" y="251.8766"/><text fill="#000000" font-family="sans-serif" font-size="12" font-weight="bold" lengthAdjust="spacing" textLength="7.9102" x="554.9849" y="265.4781">&#160;&#160;</text></g><!--cluster fs--><g class="cluster" data-qualified-name="fs" data-source-line="46" id="ent0009"><path d="M524.44,538.7766 L601.9048,538.7766 A3.75,3.75 0 0 1 604.4048,541.2766 L611.4048,558.9094 L1076.44,558.9094 A2.5,2.5 0 0 1 1078.94,561.4094 L1078.94,633.5466 A2.5,2.5 0 0 1 1076.44,636.0466 L524.44,636.0466 A2.5,2.5 0 0 1 521.94,633.5466 L521.94,541.2766 A2.5,2.5 0 0 1 524.44,538.7766" fill="none" style="stroke:#000000;stroke-width:1.5;"/><line style="stroke:#000000;stroke-width:1.5;" x1="521.94" x2="611.4048" y1="558.9094" y2="558.9094"/><text fill="#000000" font-family="sans-serif" font-size="12" font-weight="bold" lengthAdjust="spacing" textLength="76.4648" x="525.94" y="552.3781">Dateisystem</text></g><!--entity system--><g class="entity" data-qualified-name="system_boundary.system" data-source-line="39" id="ent0006"><rect fill="#FF6600" height="161.9063" rx="2.5" ry="2.5" style="stroke:#CC5200;stroke-width:0.5;" width="189.4336" x="464.22" y="284.8766"/><rect fill="#FF6600" height="10" style="stroke:#CC5200;stroke-width:0.5;" width="15" x="633.6536" y="289.8766"/><rect fill="#FF6600" height="2" style="stroke:#CC5200;stroke-width:0.5;" width="4" x="631.6536" y="291.8766"/><rect fill="#FF6600" height="2" style="stroke:#CC5200;stroke-width:0.5;" width="4" x="631.6536" y="295.8766"/><text fill="#FFFFFF" font-family="sans-serif" font-size="14" lengthAdjust="spacing" textLength="62.3643" x="479.22" y="318.4117">&#171;system&#187;</text><rect fill="#FFFFFF" height="3.5" width="3.5" x="488.22" y="327.8531"/><text fill="#FFFFFF" font-family="sans-serif" font-size="14" lengthAdjust="spacing" textLength="105.9365" x="495.22" y="334.9">EV Batterie SOH</text><text fill="#FFFFFF" font-family="sans-serif" font-size="14" lengthAdjust="spacing" textLength="65.8711" x="479.22" y="351.3883">Analyse**</text><text fill="#FFFFFF" font-family="sans-serif" font-size="14" lengthAdjust="spacing" textLength="4.4297" x="479.22" y="367.8766">&#160;</text><text fill="#FFFFFF" font-family="sans-serif" font-size="14" lengthAdjust="spacing" textLength="77.7178" x="479.22" y="384.3648">Version 2.9</text><text fill="#FFFFFF" font-family="sans-serif" font-size="14" lengthAdjust="spacing" textLength="4.4297" x="479.22" y="400.8531">&#160;</text><text fill="#FFFFFF" font-family="sans-serif" font-size="14" lengthAdjust="spacing" textLength="149.4336" x="479.22" y="417.3414">Pro-Modus (Streamlit)</text><text fill="#FFFFFF" font-family="sans-serif" font-size="14" lengthAdjust="spacing" textLength="145.7422" x="479.22" y="433.8297">Easy-Modus (FastAPI)</text></g><!--entity pdf_out--><g class="entity" data-qualified-name="fs.pdf_out" data-source-line="47" id="ent0010"><path d="M538.07,574.2766 L538.07,617.5422 A2.5,2.5 0 0 0 540.57,620.0422 L631.3024,620.0422 A2.5,2.5 0 0 0 633.8024,617.5422 L633.8024,581.7766 L623.8024,571.7766 L540.57,571.7766 A2.5,2.5 0 0 0 538.07,574.2766" fill="#F1F1F1" style="stroke:#181818;stroke-width:0.5;"/><path d="M623.8024,571.7766 L623.8024,579.2766 A2.5,2.5 0 0 0 626.3024,581.7766 L633.8024,581.7766" fill="#F1F1F1" style="stroke:#181818;stroke-width:0.5;"/><text fill="#000000" font-family="sans-serif" font-size="12" lengthAdjust="spacing" textLength="75.7324" x="548.07" y="593.3781">PDF-Berichte</text><text fill="#000000" font-family="sans-serif" font-size="12" lengthAdjust="spacing" textLength="58.582" x="548.07" y="607.5109">(exports/)</text></g><!--entity png_out--><g class="entity" data-qualified-name="fs.png_out" data-source-line="48" id="ent0011"><path d="M669.07,574.2766 L669.07,617.5422 A2.5,2.5 0 0 0 671.57,620.0422 L784.3102,620.0422 A2.5,2.5 0 0 0 786.8102,617.5422 L786.8102,581.7766 L776.8102,571.7766 L671.57,571.7766 A2.5,2.5 0 0 0 669.07,574.2766" fill="#F1F1F1" style="stroke:#181818;stroke-width:0.5;"/><path d="M776.8102,571.7766 L776.8102,579.2766 A2.5,2.5 0 0 0 779.3102,581.7766 L786.8102,581.7766" fill="#F1F1F1" style="stroke:#181818;stroke-width:0.5;"/><text fill="#000000" font-family="sans-serif" font-size="12" lengthAdjust="spacing" textLength="97.7402" x="679.07" y="593.3781">Diagramm-PNGs</text><text fill="#000000" font-family="sans-serif" font-size="12" lengthAdjust="spacing" textLength="58.582" x="679.07" y="607.5109">(exports/)</text></g><!--entity csv_out--><g class="entity" data-qualified-name="fs.csv_out" data-source-line="49" id="ent0012"><path d="M821.72,574.2766 L821.72,617.5422 A2.5,2.5 0 0 0 824.22,620.0422 L913.6458,620.0422 A2.5,2.5 0 0 0 916.1458,617.5422 L916.1458,581.7766 L906.1458,571.7766 L824.22,571.7766 A2.5,2.5 0 0 0 821.72,574.2766" fill="#F1F1F1" style="stroke:#181818;stroke-width:0.5;"/><path d="M906.1458,571.7766 L906.1458,579.2766 A2.5,2.5 0 0 0 908.6458,581.7766 L916.1458,581.7766" fill="#F1F1F1" style="stroke:#181818;stroke-width:0.5;"/><text fill="#000000" font-family="sans-serif" font-size="12" lengthAdjust="spacing" textLength="74.4258" x="831.72" y="593.3781">CSV-Exporte</text><text fill="#000000" font-family="sans-serif" font-size="12" lengthAdjust="spacing" textLength="58.582" x="831.72" y="607.5109">(exports/)</text></g><!--entity img_store--><g class="entity" data-qualified-name="fs.img_store" data-source-line="50" id="ent0013"><path d="M951.02,574.2766 L951.02,617.5422 A2.5,2.5 0 0 0 953.52,620.0422 L1060.3423,620.0422 A2.5,2.5 0 0 0 1062.8423,617.5422 L1062.8423,581.7766 L1052.8423,571.7766 L953.52,571.7766 A2.5,2.5 0 0 0 951.02,574.2766" fill="#F1F1F1" style="stroke:#181818;stroke-width:0.5;"/><path d="M1052.8423,571.7766 L1052.8423,579.2766 A2.5,2.5 0 0 0 1055.3423,581.7766 L1062.8423,581.7766" fill="#F1F1F1" style="stroke:#181818;stroke-width:0.5;"/><text fill="#000000" font-family="sans-serif" font-size="12" lengthAdjust="spacing" textLength="87.5508" x="961.02" y="593.3781">Fahrzeugbilder</text><text fill="#000000" font-family="sans-serif" font-size="12" lengthAdjust="spacing" textLength="91.8223" x="961.02" y="607.5109">(data/uploads/)</text></g><!--entity user--><g class="entity" data-qualified-name="user" data-source-line="32" id="ent0002"><ellipse cx="310.9317" cy="67.9766" fill="#F1F1F1" rx="8" ry="8" style="stroke:#181818;stroke-width:0.5;"/><path d="M310.9317,75.9766 L310.9317,102.9766 M297.9317,83.9766 L323.9317,83.9766 M310.9317,102.9766 L297.9317,117.9766 M310.9317,102.9766 L323.9317,117.9766" fill="none" style="stroke:#181818;stroke-width:0.5;"/><text fill="#000000" font-family="sans-serif" font-size="12" lengthAdjust="spacing" textLength="51.4453" x="276.42" y="131.0781">Benutzer</text><text fill="#000000" font-family="sans-serif" font-size="12" lengthAdjust="spacing" textLength="69.0234" x="276.42" y="145.2109">(Ingenieur /</text><text fill="#000000" font-family="sans-serif" font-size="12" lengthAdjust="spacing" textLength="61.2949" x="276.42" y="159.3438">Techniker)</text></g><!--entity obd--><g class="entity" data-qualified-name="obd" data-source-line="33" id="ent0003"><polygon fill="#EEEEEE" points="380.61,91.5466,390.61,81.5466,535.2545,81.5466,535.2545,129.8122,525.2545,139.8122,380.61,139.8122,380.61,91.5466" style="stroke:#999999;stroke-width:0.5;"/><line style="stroke:#999999;stroke-width:0.5;" x1="525.2545" x2="535.2545" y1="91.5466" y2="81.5466"/><line style="stroke:#999999;stroke-width:0.5;" x1="380.61" x2="525.2545" y1="91.5466" y2="91.5466"/><line style="stroke:#999999;stroke-width:0.5;" x1="525.2545" x2="525.2545" y1="91.5466" y2="139.8122"/><text fill="#000000" font-family="sans-serif" font-size="12" lengthAdjust="spacing" textLength="85.4707" x="395.61" y="113.1481">OBD2-Scanner</text><text fill="#000000" font-family="sans-serif" font-size="12" lengthAdjust="spacing" textLength="114.6445" x="395.61" y="127.2809">(MX+ / CarScanner)</text></g><!--entity avl--><g class="entity" data-qualified-name="avl" data-source-line="34" id="ent0004"><polygon fill="#EEEEEE" points="607.48,91.5466,617.48,81.5466,714.3999,81.5466,714.3999,129.8122,704.3999,139.8122,607.48,139.8122,607.48,91.5466" style="stroke:#999999;stroke-width:0.5;"/><line style="stroke:#999999;stroke-width:0.5;" x1="704.3999" x2="714.3999" y1="91.5466" y2="81.5466"/><line style="stroke:#999999;stroke-width:0.5;" x1="607.48" x2="704.3999" y1="91.5466" y2="91.5466"/><line style="stroke:#999999;stroke-width:0.5;" x1="704.3999" x2="704.3999" y1="91.5466" y2="139.8122"/><text fill="#000000" font-family="sans-serif" font-size="12" lengthAdjust="spacing" textLength="66.9199" x="622.48" y="113.1481">AVL DiTEST</text><text fill="#000000" font-family="sans-serif" font-size="12" lengthAdjust="spacing" textLength="59.2031" x="622.48" y="127.2809">HV-Check</text></g><!--entity db--><g class="entity" data-qualified-name="db" data-source-line="44" id="ent0007"><path d="M6,570.2166 C6,560.2166 75.9355,560.2166 75.9355,560.2166 C75.9355,560.2166 145.8711,560.2166 145.8711,570.2166 L145.8711,621.615 C145.8711,631.615 75.9355,631.615 75.9355,631.615 C75.9355,631.615 6,631.615 6,621.615 L6,570.2166" fill="#FFF3E0" style="stroke:#FF6600;stroke-width:0.5;"/><path d="M6,570.2166 C6,580.2166 75.9355,580.2166 75.9355,580.2166 C75.9355,580.2166 145.8711,580.2166 145.8711,570.2166" fill="none" style="stroke:#FF6600;stroke-width:0.5;"/><text fill="#000000" font-family="sans-serif" font-size="12" lengthAdjust="spacing" textLength="36.8262" x="16" y="595.8181">SQLite</text><text fill="#000000" font-family="sans-serif" font-size="12" lengthAdjust="spacing" textLength="62.877" x="16" y="609.9509">Datenbank</text><text fill="#000000" font-family="sans-serif" font-size="12" lengthAdjust="spacing" textLength="119.8711" x="16" y="624.0838">(battery_analysis.db)</text></g><!--entity gemini--><g class="entity" data-qualified-name="gemini" data-source-line="45" id="ent0008"><polygon fill="#EEEEEE" points="182.04,576.7766,192.04,566.7766,307.833,566.7766,307.833,615.0422,297.833,625.0422,182.04,625.0422,182.04,576.7766" style="stroke:#999999;stroke-width:0.5;"/><line style="stroke:#999999;stroke-width:0.5;" x1="297.833" x2="307.833" y1="576.7766" y2="566.7766"/><line style="stroke:#999999;stroke-width:0.5;" x1="182.04" x2="297.833" y1="576.7766" y2="576.7766"/><line style="stroke:#999999;stroke-width:0.5;" x1="297.833" x2="297.833" y1="576.7766" y2="625.0422"/><text fill="#000000" font-family="sans-serif" font-size="12" lengthAdjust="spacing" textLength="85.793" x="197.04" y="598.3781">Google Gemini</text><text fill="#000000" font-family="sans-serif" font-size="12" lengthAdjust="spacing" textLength="18.3691" x="197.04" y="612.5109">API</text></g><!--entity browser--><g class="entity" data-qualified-name="browser" data-source-line="52" id="ent0014"><polygon fill="#EEEEEE" points="342.46,576.7766,352.46,566.7766,503.4034,566.7766,503.4034,615.0422,493.4034,625.0422,342.46,625.0422,342.46,576.7766" style="stroke:#999999;stroke-width:0.5;"/><line style="stroke:#999999;stroke-width:0.5;" x1="493.4034" x2="503.4034" y1="576.7766" y2="566.7766"/><line style="stroke:#999999;stroke-width:0.5;" x1="342.46" x2="493.4034" y1="576.7766" y2="576.7766"/><line style="stroke:#999999;stroke-width:0.5;" x1="493.4034" x2="493.4034" y1="576.7766" y2="625.0422"/><text fill="#000000" font-family="sans-serif" font-size="12" lengthAdjust="spacing" textLength="71.2969" x="357.46" y="598.3781">Webbrowser</text><text fill="#000000" font-family="sans-serif" font-size="12" lengthAdjust="spacing" textLength="120.9434" x="357.46" y="612.5109">(Chrome, Firefox, ...)</text></g><g class="entity" data-qualified-name="GMN25" data-source-line="83" id="ent0026"><path d="M749.22,63.2766 L749.22,158.0734 L1040.6595,158.0734 L1040.6595,73.2766 L1030.6595,63.2766 L749.22,63.2766" fill="#FEFFDD" style="stroke:#181818;stroke-width:0.5;"/><path d="M1030.6595,63.2766 L1030.6595,73.2766 L1040.6595,73.2766 L1030.6595,63.2766" fill="#FEFFDD" style="stroke:#181818;stroke-width:1;"/><text fill="#000000" font-family="sans-serif" font-size="12" font-weight="bold" lengthAdjust="spacing" textLength="129.0059" x="755.22" y="79.8781">Ports (Schnittstellen)</text><text fill="#000000" font-family="sans-serif" font-size="12" lengthAdjust="spacing" textLength="3.7969" x="884.2259" y="79.8781">:</text><text fill="#000000" font-family="sans-serif" font-size="12" lengthAdjust="spacing" textLength="246" x="755.22" y="94.0109">- HTTP/REST API (Port 8000, Easy-Modus)</text><text fill="#000000" font-family="sans-serif" font-size="12" lengthAdjust="spacing" textLength="270.4395" x="755.22" y="108.1438">- Streamlit WebSocket (Port 8501, Pro-Modus)</text><text fill="#000000" font-family="sans-serif" font-size="12" lengthAdjust="spacing" textLength="267.2578" x="755.22" y="122.2766">- Dateisystem (CSV-Import, PDF/PNG-Export)</text><text fill="#000000" font-family="sans-serif" font-size="12" lengthAdjust="spacing" textLength="160.4766" x="755.22" y="136.4094">- SQLite (lokale Datenbank)</text><text fill="#000000" font-family="sans-serif" font-size="12" lengthAdjust="spacing" textLength="222.7793" x="755.22" y="150.5422">- HTTPS (Google Gemini API, optional)</text></g><!--link user to system--><g class="link" data-entity-1="ent0002" data-entity-2="ent0006" data-link-type="dependency" data-source-line="57" id="lnk15"><path d="M313.55,162.0766 C316.96,186.3166 324.33,214.6466 339.94,235.8766 C370.84,277.9066 414.5023,306.048 458.3723,326.928" fill="none" id="user-to-system" style="stroke:#181818;stroke-width:1;"/><polygon fill="#181818" points="463.79,329.5066,457.3825,322.027,459.2753,327.3578,453.9445,329.2505,463.79,329.5066" style="stroke:#181818;stroke-width:1;"/><text fill="#000000" font-family="sans-serif" font-size="12" lengthAdjust="spacing" textLength="98.1973" x="340.94" y="211.4781">Bedienung ueber</text><text fill="#000000" font-family="sans-serif" font-size="12" lengthAdjust="spacing" textLength="71.2969" x="354.3902" y="225.6109">Webbrowser</text></g><!--link obd to system--><g class="link" data-entity-1="ent0003" data-entity-2="ent0006" data-link-type="dependency" data-source-line="58" id="lnk16"><path d="M451.62,140.1966 C447.21,165.9666 443.88,204.5566 454.94,235.8766 C460.97,252.9566 466.8708,264.5441 477.5608,279.6941" fill="none" id="obd-to-system" style="stroke:#181818;stroke-width:1;"/><polygon fill="#181818" points="481.02,284.5966,479.0995,274.9368,478.1373,280.5112,472.5629,279.5491,481.02,284.5966" style="stroke:#181818;stroke-width:1;"/><text fill="#000000" font-family="sans-serif" font-size="12" lengthAdjust="spacing" textLength="59.8125" x="506.688" y="204.4781">CSV-Datei</text><text fill="#000000" font-family="sans-serif" font-size="12" lengthAdjust="spacing" textLength="116.168" x="478.5103" y="218.6109">(Semikolon-Format,</text><text fill="#000000" font-family="sans-serif" font-size="12" lengthAdjust="spacing" textLength="161.3086" x="455.94" y="232.7438">SECONDS;PID;VALUE;UNITS)</text></g><!--link avl to system--><g class="link" data-entity-1="ent0004" data-entity-2="ent0006" data-link-type="dependency" data-source-line="59" id="lnk17"><path d="M653.29,140.2166 C646.17,165.6666 634.74,203.7566 621.94,235.8766 C615.57,251.8466 610.6393,263.1593 603.0593,279.0793" fill="none" id="avl-to-system" style="stroke:#181818;stroke-width:1;"/><polygon fill="#181818" points="600.48,284.4966,607.9605,278.0902,602.6294,279.9822,600.7375,274.6511,600.48,284.4966" style="stroke:#181818;stroke-width:1;"/><text fill="#000000" font-family="sans-serif" font-size="12" lengthAdjust="spacing" textLength="51.5215" x="681.5353" y="204.4781">AVL-PDF</text><text fill="#000000" font-family="sans-serif" font-size="12" lengthAdjust="spacing" textLength="132.4746" x="641.0587" y="218.6109">(SOH, Zellspannungen,</text><text fill="#000000" font-family="sans-serif" font-size="12" lengthAdjust="spacing" textLength="137.332" x="638.63" y="232.7438">Temperatur, km-Stand)</text></g><!--link system to db--><g class="link" data-entity-1="ent0006" data-entity-2="ent0007" data-link-type="dependency" data-source-line="62" id="lnk18"><path d="M464.02,371.5966 C372.95,380.5966 235.78,406.2266 141.94,478.7766 C115.33,499.3466 99.8929,528.2956 89.6029,554.3656" fill="none" id="system-to-db" style="stroke:#181818;stroke-width:1;"/><polygon fill="#181818" points="87.4,559.9466,94.4249,553.0436,89.2357,555.2957,86.9836,550.1065,87.4,559.9466" style="stroke:#181818;stroke-width:1;"/><text fill="#000000" font-family="sans-serif" font-size="12" lengthAdjust="spacing" textLength="102.9844" x="156.3257" y="491.3781">Fahrzeuge, Tests,</text><text fill="#000000" font-family="sans-serif" font-size="12" lengthAdjust="spacing" textLength="118.1133" x="148.7613" y="505.5109">SOH-Werte, Sensor-</text><text fill="#000000" font-family="sans-serif" font-size="12" lengthAdjust="spacing" textLength="129.7559" x="142.94" y="519.6438">daten speichern/lesen</text></g><!--link system to pdf_out--><g class="link" data-entity-1="ent0006" data-entity-2="ent0010" data-link-type="dependency" data-source-line="63" id="lnk19"><path d="M550.8,447.1566 C550.08,471.6266 551.08,498.4866 555.94,522.7766 C559.31,539.6766 564.1189,552.1497 570.7289,565.8897" fill="none" id="system-to-pdf_out" style="stroke:#181818;stroke-width:1;"/><polygon fill="#181818" points="573.33,571.2966,573.0329,561.4522,571.1624,566.7908,565.8237,564.9203,573.33,571.2966" style="stroke:#181818;stroke-width:1;"/><text fill="#000000" font-family="sans-serif" font-size="12" lengthAdjust="spacing" textLength="75.7324" x="574.6558" y="498.3781">PDF-Berichte</text><text fill="#000000" font-family="sans-serif" font-size="12" lengthAdjust="spacing" textLength="111.1641" x="556.94" y="512.5109">generieren (DE/EN)</text></g><!--link system to png_out--><g class="link" data-entity-1="ent0006" data-entity-2="ent0011" data-link-type="dependency" data-source-line="64" id="lnk20"><path d="M647.13,446.9666 C656.38,457.2166 665.22,467.9366 672.94,478.7766 C693.89,508.2266 708.2234,541.3061 717.4834,565.7361" fill="none" id="system-to-png_out" style="stroke:#181818;stroke-width:1;"/><polygon fill="#181818" points="719.61,571.3466,720.1604,561.5131,717.8378,566.6712,712.6798,564.3486,719.61,571.3466" style="stroke:#181818;stroke-width:1;"/><text fill="#000000" font-family="sans-serif" font-size="12" lengthAdjust="spacing" textLength="105.8379" x="703.7216" y="498.3781">Plotly-Diagramme</text><text fill="#000000" font-family="sans-serif" font-size="12" lengthAdjust="spacing" textLength="115.541" x="698.87" y="512.5109">als PNG exportieren</text></g><!--link system to csv_out--><g class="link" data-entity-1="ent0006" data-entity-2="ent0012" data-link-type="dependency" data-source-line="65" id="lnk21"><path d="M654.03,387.5566 C709.57,404.0066 777.46,432.2066 822.94,478.7766 C848.08,504.5366 858.7644,539.8469 864.0044,565.6169" fill="none" id="system-to-csv_out" style="stroke:#181818;stroke-width:1;"/><polygon fill="#181818" points="865.2,571.4966,867.3265,561.88,864.2037,566.5968,859.4869,563.4741,865.2,571.4966" style="stroke:#181818;stroke-width:1;"/><text fill="#000000" font-family="sans-serif" font-size="12" lengthAdjust="spacing" textLength="131.0215" x="850.97" y="498.3781">Roh- und interpolierte</text><text fill="#000000" font-family="sans-serif" font-size="12" lengthAdjust="spacing" textLength="105.5977" x="863.6819" y="512.5109">Daten exportieren</text></g><!--link system to img_store--><g class="link" data-entity-1="ent0006" data-entity-2="ent0013" data-link-type="dependency" data-source-line="66" id="lnk22"><path d="M654.14,379.0666 C767.38,395.6666 946.71,429.0766 990.94,478.7766 C1013.39,504.0266 1014.0777,539.3895 1011.3477,565.3395" fill="none" id="system-to-img_store" style="stroke:#181818;stroke-width:1;"/><polygon fill="#181818" points="1010.72,571.3066,1015.6397,562.7745,1011.2431,566.334,1007.6836,561.9375,1010.72,571.3066" style="stroke:#181818;stroke-width:1;"/><text fill="#000000" font-family="sans-serif" font-size="12" lengthAdjust="spacing" textLength="87.5508" x="1029.577" y="498.3781">Fahrzeugbilder</text><text fill="#000000" font-family="sans-serif" font-size="12" lengthAdjust="spacing" textLength="125.3848" x="1010.66" y="512.5109">speichern (Freisteller)</text></g><!--link system to gemini--><g class="link" data-entity-1="ent0006" data-entity-2="ent0008" data-link-type="dependency" data-source-line="69" id="lnk23"><path d="M458.2902,398.2049 C410.3202,416.4049 359.14,441.4266 316.94,478.7766 C289.4,503.1566 271.3483,535.1453 259.3883,560.8853" fill="none" id="system-gemini" style="stroke:#181818;stroke-width:1;"/><polygon fill="#181818" points="463.9,396.0766,454.0664,395.5293,459.2252,397.8502,456.9042,403.009,463.9,396.0766" style="stroke:#181818;stroke-width:1;"/><polygon fill="#181818" points="256.86,566.3266,264.28,559.8501,258.9669,561.7921,257.0249,556.4791,256.86,566.3266" style="stroke:#181818;stroke-width:1;"/><text fill="#000000" font-family="sans-serif" font-size="12" lengthAdjust="spacing" textLength="79.6816" x="330.4146" y="491.3781">KI-gestuetzte</text><text fill="#000000" font-family="sans-serif" font-size="12" lengthAdjust="spacing" textLength="104.6309" x="317.94" y="505.5109">Analyse-Narrative</text><text fill="#000000" font-family="sans-serif" font-size="12" lengthAdjust="spacing" textLength="55.5996" x="342.4556" y="519.6438">(optional)</text></g><!--link system to browser--><g class="link" data-entity-1="ent0006" data-entity-2="ent0014" data-link-type="dependency" data-source-line="70" id="lnk24"><path d="M463.6531,451.6386 C455.5031,461.6986 451.88,467.7066 445.94,478.7766 C431.16,506.3066 426.2833,536.1045 424.3833,560.6345" fill="none" id="system-browser" style="stroke:#181818;stroke-width:1;"/><polygon fill="#181818" points="467.43,446.9766,458.6566,451.4517,464.2826,450.8616,464.8727,456.4876,467.43,446.9766" style="stroke:#181818;stroke-width:1;"/><polygon fill="#181818" points="423.92,566.6166,428.6031,557.9523,424.3061,561.6315,420.627,557.3345,423.92,566.6166" style="stroke:#181818;stroke-width:1;"/><text fill="#000000" font-family="sans-serif" font-size="12" lengthAdjust="spacing" textLength="95.877" x="446.94" y="498.3781">HTTP (Port 8501</text><text fill="#000000" font-family="sans-serif" font-size="12" lengthAdjust="spacing" textLength="64.5703" x="462.5933" y="512.5109">oder 8000)</text></g><!--link GMN25 to system--><g class="link" data-entity-1="ent0026" data-entity-2="ent0006" data-link-type="association" data-source-line="83" id="lnk27"><path d="M859.71,158.4266 C839.55,183.2666 812.77,213.2666 784.94,235.8766 C745.14,268.2066 696.21,297.2166 654.06,319.4966" fill="none" id="GMN25-system" style="stroke:#181818;stroke-width:1;stroke-dasharray:7,7;"/></g><g class="legend" data-source-line="74"><rect fill="none" height="96.4414" rx="7.5" ry="7.5" style="stroke:#000000;stroke-width:1;" width="319.1416" x="12" y="659.615"/><text fill="#000000" font-family="sans-serif" font-size="14" font-weight="bold" lengthAdjust="spacing" textLength="52.5068" x="21.6143" y="680.1502">Symbol</text><text fill="#000000" font-family="sans-serif" font-size="14" font-weight="bold" lengthAdjust="spacing" textLength="76.9932" x="83.3496" y="680.1502">Bedeutung</text><rect fill="#FF6600" height="16.4883" style="stroke:none;stroke-width:1;" width="61.7354" x="17" y="683.1033"/><text fill="#000000" font-family="sans-serif" font-size="14" lengthAdjust="spacing" textLength="48.0977" x="21.4297" y="696.6384">System</text><text fill="#000000" font-family="sans-serif" font-size="14" lengthAdjust="spacing" textLength="238.5469" x="83.165" y="696.6384">Analysierte Anwendung (Black Box)</text><rect fill="#FFF3E0" height="16.4883" style="stroke:none;stroke-width:1;" width="61.7354" x="17" y="699.5916"/><text fill="#000000" font-family="sans-serif" font-size="14" lengthAdjust="spacing" textLength="43.627" x="21.4297" y="713.1267">Extern</text><text fill="#000000" font-family="sans-serif" font-size="14" lengthAdjust="spacing" textLength="185.541" x="83.165" y="713.1267">Externe Systeme / Speicher</text><rect fill="#EEEEEE" height="16.4883" style="stroke:none;stroke-width:1;" width="61.7354" x="17" y="716.0798"/><text fill="#000000" font-family="sans-serif" font-size="14" lengthAdjust="spacing" textLength="44.4131" x="21.4297" y="729.615">Geraet</text><text fill="#000000" font-family="sans-serif" font-size="14" lengthAdjust="spacing" textLength="157.9648" x="83.165" y="729.615">Hardware / Messgeraet</text><text fill="#000000" font-family="sans-serif" font-size="14" lengthAdjust="spacing" textLength="28.7793" x="25.8594" y="746.1033">Pfeil</text><text fill="#000000" font-family="sans-serif" font-size="14" lengthAdjust="spacing" textLength="196.0889" x="83.165" y="746.1033">Datenfluss / Kommunikation</text><line style="stroke:#000000;stroke-width:1;" x1="17" x2="326.1416" y1="666.615" y2="666.615"/><line style="stroke:#000000;stroke-width:1;" x1="17" x2="326.1416" y1="683.1033" y2="683.1033"/><line style="stroke:#000000;stroke-width:1;" x1="17" x2="326.1416" y1="699.5916" y2="699.5916"/><line style="stroke:#000000;stroke-width:1;" x1="17" x2="326.1416" y1="716.0798" y2="716.0798"/><line style="stroke:#000000;stroke-width:1;" x1="17" x2="326.1416" y1="732.5681" y2="732.5681"/><line style="stroke:#000000;stroke-width:1;" x1="17" x2="326.1416" y1="749.0564" y2="749.0564"/><line style="stroke:#000000;stroke-width:1;" x1="17" x2="17" y1="666.615" y2="749.0564"/><line style="stroke:#000000;stroke-width:1;" x1="78.7354" x2="78.7354" y1="666.615" y2="749.0564"/><line style="stroke:#000000;stroke-width:1;" x1="326.1416" x2="326.1416" y1="666.615" y2="749.0564"/></g><?plantuml-src lLRhRjis5FwlfpZmWDNEhDXDrw9Dqm2-naPpyIet7GO30MKTsOGaqY2f9iuwe0_H9-oJx92I7Jb1Xc589_Y79Hv-F9VlV8VFuDqJFjup65n2bnc3YYC45oFe29QkDSBthzyWM6k3MIA5mHlZzpbRA9PbKE-cR9v0Lzuq2A3BD4U58WAMnuSm20uWaB6vPWgXe-PBRd1kSdgfJvICzs7A8hQMeWd34VIbCbak8elpf75vEk5YnSXT2CdNXP9qIa-cKi6rzQYohfSiajTSB21cgQwkH1YpF3L3YZ_WjmZF3ogBSvcjf41Xu4yFwEdUE-QduV3LgtRRhLc4wk7ENge8LMdRwxqygDWMf_tg_LKvJr4McLYa-FXvmnU3zaFiqeygLiGC2vb-2YWXeqTX1kvv2FF6FGJZ6MueeBszVqt2lRsPQBMAJmiYtIqAe0E1bb09sZnV2cuCBQSfagL7nFh-xIlzO52QT1A3Zeuf5ubkbCjF-_CyDZSKQgsB8ZUtg6QYFXOB59oEXjPCJD4wcg1gr81fo3KgpwMoTj7j7_Z1d0dXTftz_WkqeCTK-Qcmbs5KcdSkJw7FfuDWEXEZIx-tn7dYJDZdj19yaJ6edr5oyCV4_8_fk6Dl3S3vfvr7Lw7b2rFhaaDtNLKxEYfCZezduW53PgAaY2N4J5oYqbmAEDX_Orz9QFmp6UKQwe5HoBAKcyPC39XURxuFcJQToRXHySKIyW5R-Xm5BSBF4AoGpvUee4x1BCr_O8xdRHkl5lnsIaem4trcK8HC95Jhq0Mulc8kDAxtex3mBmhBQfz8QNDuWXaNd78m6RlrXNltOfbIaq7DOl8Y9hSSwpAxCRS5cFI7VfSIIK6G0tMyMP4AwrPnr2gAhsHkAkORsVSdvoVweRrOtBFl1PV-mDayH9_hp_UiXsofRZ5VXDpwJXjiYbhvAfKiskpYsU9AKpiXLQZ8moSCGoMljTlHMogP8SqJhZ2MDqtOtzylDfOsrJxOqGVgh8dr3duOxsc-qcHXuLPkFDlguFl79UdW4BeO4Sbo6a0vXZQYk-WyQlHTOvjTLryAFA2o9oIfmXzAbJ7Jd8bWqBiuxmTl9-F-sylEwSV1su_dusdGy4WETe58E7nYWeMv63NX3qg8Nf74v5QccbQXiXKgHfEx2Kdc1zI-DAOfe4wkYu3ADl1AI8iUXOIyAIcLP8hQQElMnSZ_XCI89WJKJrBvC-fwOZxeigj4AqMDeWfMKf4GTnbB_baP8FM7Ud_G6fplk50IqkvAfKdNssiBxQJv3iHYA4Zf8AfRItRIrWzowRkvmcdgg9LCEQfjjpwsVKlJIWusjDw6ISgZg3aT_vJBPvT7HDp4a7wnT8DtP06BjYQqzsD_GPdCqTnQBqhfyy-PeWBnpxRFvAe0QEmWb3GYYD5qEg4R6FaDhr-sdyzi7obutMwt6vNsE4LABZNO_pmV7ccUr7a3eJH6Pf1YR8NZopiQPbaeK_kFMWTpOrldYrs2e_AAShmPU5_AguIh7_s_9a1hNhd2LhRQMyznAVtqQJC32YmajTZEWCsUuefpJ8gi61hwD68gSbVV5foXrelokpE7IOmyjVySZ-8qrvhitikCxi0yORQ2P4ek5f5xf7RajP4haF5cI05TbmhHgk-AMMDlxv1MVLVgrWUw4G3DXqtDgT1Dk1k03MUv7Ov0aXF8UKAktd6a2TivMfXNvWhKhH2DCzi8JTkVBUghKlPBR3VWIFPamaZejtEkiVKnWFhEFBFkDk6EoBRsDW7Utm00?></g></svg>